<svg width="71" height="71" viewBox="0 0 71 71" fill="none" xmlns="http://www.w3.org/2000/svg">
<path d="M35.233 0.851562C15.9024 0.851562 0.23291 16.4589 0.23291 35.7126C0.23291 53.192 13.1462 67.6646 29.9899 70.185C31.6997 70.4413 33.0836 70.8516 34.8652 70.8516C36.4734 70.8516 38.4249 70.4657 39.9772 70.2566C57.0642 67.9505 70.2329 53.3646 70.2329 35.7126C70.2329 16.4589 54.5634 0.851562 35.233 0.851562Z" fill="#5CA7CC"/>
<path d="M39.02 37.2019H46.537L47.7177 29.4828H39.02V25.2636C39.02 22.0574 40.057 19.2138 43.0239 19.2138H47.7918V12.4783C46.9538 12.3638 45.182 12.1143 41.8345 12.1143C34.8433 12.1143 30.7449 15.846 30.7449 24.3491V29.4843H23.5576V37.2034H30.7434V58.4535C32.1667 58.6679 33.6088 58.7809 35.0887 58.7809C36.4262 58.7809 37.7318 58.69 39.02 58.5137V37.2019Z" fill="black"/>
</svg>
