<svg width="71" height="70" viewBox="0 0 71 70" fill="none" xmlns="http://www.w3.org/2000/svg">
<path d="M54.4799 69.9631L15.6115 70C7.0605 70.0078 0.0583675 63.0192 0.0486504 54.4682L0.0117252 15.5999C0.00395152 7.04879 6.99248 0.0466486 15.5435 0.0369316L54.4118 6.479e-06C62.9629 -0.0077672 69.9651 6.98077 69.9747 15.5318L70.0117 54.4002C70.0215 62.9532 63.0309 69.9554 54.4799 69.9631Z" fill="#5CA7CC"/>
<path d="M36.0858 49.5351C28.5861 49.5351 22.4819 43.4327 22.4819 35.9312C22.4819 28.4296 28.5861 22.3271 36.0858 22.3271C43.5855 22.3271 49.6897 28.4296 49.6897 35.9312C49.6897 43.4327 43.5855 49.5351 36.0858 49.5351ZM36.0858 26.214C30.7278 26.214 26.3687 30.5731 26.3687 35.9312C26.3687 41.2891 30.7278 45.6482 36.0858 45.6482C41.4438 45.6482 45.803 41.2891 45.803 35.9312C45.803 30.5731 41.4438 26.214 36.0858 26.214Z" fill="black"/>
<path d="M50.6251 23.962C52.2351 23.962 53.5402 22.6569 53.5402 21.047C53.5402 19.4369 52.2351 18.1318 50.6251 18.1318C49.0152 18.1318 47.71 19.4369 47.71 21.047C47.71 22.6569 49.0152 23.962 50.6251 23.962Z" fill="black"/>
<path d="M47.7062 60.8893H24.3851C16.8855 60.8893 10.7812 54.7869 10.7812 47.2854V23.9643C10.7812 16.4627 16.8855 10.3604 24.3851 10.3604H47.7062C55.2058 10.3604 61.3101 16.4627 61.3101 23.9643V47.2854C61.3101 54.7869 55.2058 60.8893 47.7062 60.8893ZM24.3851 14.2472C19.0271 14.2472 14.668 18.6063 14.668 23.9643V47.2854C14.668 52.6433 19.0271 57.0024 24.3851 57.0024H47.7062C53.0642 57.0024 57.4232 52.6433 57.4232 47.2854V23.9643C57.4232 18.6063 53.0642 14.2472 47.7062 14.2472H24.3851Z" fill="black"/>
</svg>
