<svg width="70" height="71" viewBox="0 0 70 71" fill="none" xmlns="http://www.w3.org/2000/svg">
<path d="M34.9981 0.851562C15.6676 0.851562 -0.00195312 16.5211 -0.00195312 35.8515C-0.00195312 55.1821 15.6676 70.8516 34.9981 70.8516C54.3285 70.8516 69.998 55.1821 69.998 35.8515C69.998 16.5211 54.3285 0.851562 34.9981 0.851562Z" fill="#5CA7CC"/>
<path opacity="0.05" d="M45.5005 55.0948V39.3447C45.5005 37.4145 43.9307 35.8448 42.0005 35.8448C40.0703 35.8448 38.5005 37.4145 38.5005 39.3447V55.0948H28.0004V25.3447H38.5005V27.1419C40.3205 25.973 42.4415 25.3447 44.6255 25.3447C50.8975 25.3447 56.0004 30.4478 56.0004 36.7197V55.0948H45.5005ZM15.7505 55.0948V25.3447H20.9409C17.9328 25.3447 15.7505 23.1362 15.7505 20.0929C15.7505 17.0515 17.9677 14.8447 21.0197 14.8447C23.9877 14.8447 26.1875 17.0357 26.2505 20.058C26.2505 23.1275 24.0333 25.3447 20.9795 25.3447H26.2505V55.0948H15.7505Z" fill="#5CA7CC"/>
<path opacity="0.07" d="M46.375 54.2227V39.3477C46.375 36.9362 44.4133 34.9727 42 34.9727C39.5868 34.9727 37.6251 36.9362 37.6251 39.3477V54.2227H28.8751V26.2227H37.6251V28.9072C39.5326 27.1975 42.0211 26.2227 44.625 26.2227C50.4158 26.2227 55.125 30.9319 55.125 36.7227V54.2227H46.375ZM16.625 54.2227V26.2227H25.375V54.2227H16.625ZM20.9405 24.4727C18.4398 24.4727 16.625 22.6317 16.625 20.0959C16.625 17.5619 18.4731 15.7227 21.0192 15.7227C23.5322 15.7227 25.3225 17.513 25.375 20.0784C25.375 22.6317 23.5252 24.4727 20.9791 24.4727H20.9405Z" fill="#5CA7CC"/>
<path d="M17.5024 27.0966H24.5025V53.3466H17.5024V27.0966ZM20.9814 23.5966H20.943C18.8534 23.5966 17.5024 22.0391 17.5024 20.0948C17.5024 18.1086 18.8955 16.5967 21.0217 16.5967C23.1514 16.5967 24.4622 18.1086 24.5025 20.0948C24.5025 22.0391 23.1514 23.5966 20.9814 23.5966ZM54.2524 36.7216C54.2524 31.4051 49.9439 27.0966 44.6275 27.0966C41.369 27.0966 38.4937 28.7206 36.7525 31.1987V27.0966H29.7524V53.3466H36.7525V39.3467C36.7525 36.4469 39.1027 34.0966 42.0025 34.0966C44.9022 34.0966 47.2525 36.4469 47.2525 39.3467V53.3466H54.2524C54.2524 53.3466 54.2524 37.4584 54.2524 36.7216Z" fill="black"/>
</svg>
