<svg width="208" height="68" viewBox="0 0 208 68" fill="none" xmlns="http://www.w3.org/2000/svg">
<path d="M2 25.9153V64.6382H180.282L204.197 40.7229V2H25.9146L2 25.9153Z" fill="#1C2633" fill-opacity="0.7" stroke="#6C818D" stroke-width="2.0487" stroke-miterlimit="10"/>
<path d="M198.428 6.2793H29.2785L6.7666 28.7912V60.3743" stroke="#6C818D" stroke-width="2.0487" stroke-miterlimit="10"/>
<path d="M190.915 49.5684L178.768 61.716H153.38L148.717 66.3795H181.925L191.153 57.1509L190.915 49.5684Z" fill="#9DB2BF"/>
<path d="M75.2896 62.9912H155.205L159.764 67.1067H79.8484L75.2896 62.9912Z" fill="#9DB2BF"/>
<path d="M75.133 67.1068L70.9442 62.918H68.6328L72.7539 67.0384L75.133 67.1068Z" fill="#6C818D"/>
<path d="M68.634 67.1068L64.4452 62.918H62.1338L66.2549 67.0384L68.634 67.1068Z" fill="#6C818D"/>
<path d="M62.133 67.1068L57.9442 62.918H55.6328L59.7539 67.0384L62.133 67.1068Z" fill="#6C818D"/>
<path d="M55.6326 67.1068L51.4437 62.918H49.1323L53.2534 67.0384L55.6326 67.1068Z" fill="#6C818D"/>
<path d="M200.791 38.5371H207.545V12.7638H200.791V38.5371Z" fill="#9DB2BF"/>
<path d="M189.759 35.5986H192.545V23.8837H189.759V35.5986Z" fill="#9DB2BF"/>
<path d="M195.274 35.5986H198.061V23.8837H195.274V35.5986Z" fill="#6C818D"/>
<path d="M67.5444 41V26.3H73.0464C74.2924 26.3 75.3634 26.503 76.2594 26.909C77.1554 27.301 77.8414 27.875 78.3174 28.631C78.8074 29.373 79.0524 30.276 79.0524 31.34C79.0524 32.376 78.8074 33.272 78.3174 34.028C77.8414 34.77 77.1554 35.344 76.2594 35.75C75.3634 36.142 74.2924 36.338 73.0464 36.338H68.4054L69.0984 35.624V41H67.5444ZM77.5824 41L73.8024 35.666H75.4824L79.2834 41H77.5824ZM69.0984 35.75L68.4054 35.015H73.0044C74.4744 35.015 75.5874 34.693 76.3434 34.049C77.1134 33.405 77.4984 32.502 77.4984 31.34C77.4984 30.164 77.1134 29.254 76.3434 28.61C75.5874 27.966 74.4744 27.644 73.0044 27.644H68.4054L69.0984 26.909V35.75ZM87.0882 41.105C85.9402 41.105 84.9322 40.867 84.0642 40.391C83.1962 39.901 82.5172 39.236 82.0272 38.396C81.5372 37.542 81.2922 36.569 81.2922 35.477C81.2922 34.385 81.5232 33.419 81.9852 32.579C82.4612 31.739 83.1052 31.081 83.9172 30.605C84.7432 30.115 85.6672 29.87 86.6892 29.87C87.7252 29.87 88.6422 30.108 89.4402 30.584C90.2522 31.046 90.8892 31.704 91.3512 32.558C91.8132 33.398 92.0442 34.371 92.0442 35.477C92.0442 35.547 92.0372 35.624 92.0232 35.708C92.0232 35.778 92.0232 35.855 92.0232 35.939H82.4262V34.826H91.2252L90.6372 35.267C90.6372 34.469 90.4622 33.762 90.1122 33.146C89.7762 32.516 89.3142 32.026 88.7262 31.676C88.1382 31.326 87.4592 31.151 86.6892 31.151C85.9332 31.151 85.2542 31.326 84.6522 31.676C84.0502 32.026 83.5812 32.516 83.2452 33.146C82.9092 33.776 82.7412 34.497 82.7412 35.309V35.54C82.7412 36.38 82.9232 37.122 83.2872 37.766C83.6652 38.396 84.1832 38.893 84.8412 39.257C85.5132 39.607 86.2762 39.782 87.1302 39.782C87.8022 39.782 88.4252 39.663 88.9992 39.425C89.5872 39.187 90.0912 38.823 90.5112 38.333L91.3512 39.299C90.8612 39.887 90.2452 40.335 89.5032 40.643C88.7752 40.951 87.9702 41.105 87.0882 41.105ZM98.04 41.105C97.13 41.105 96.269 40.979 95.457 40.727C94.645 40.461 94.008 40.132 93.546 39.74L94.218 38.564C94.666 38.9 95.24 39.194 95.94 39.446C96.64 39.684 97.375 39.803 98.145 39.803C99.195 39.803 99.951 39.642 100.413 39.32C100.875 38.984 101.106 38.543 101.106 37.997C101.106 37.591 100.973 37.276 100.707 37.052C100.455 36.814 100.119 36.639 99.699 36.527C99.279 36.401 98.81 36.296 98.292 36.212C97.774 36.128 97.256 36.03 96.738 35.918C96.234 35.806 95.772 35.645 95.352 35.435C94.932 35.211 94.589 34.91 94.323 34.532C94.071 34.154 93.945 33.65 93.945 33.02C93.945 32.418 94.113 31.879 94.449 31.403C94.785 30.927 95.275 30.556 95.919 30.29C96.577 30.01 97.375 29.87 98.313 29.87C99.027 29.87 99.741 29.968 100.455 30.164C101.169 30.346 101.757 30.591 102.219 30.899L101.568 32.096C101.078 31.76 100.553 31.522 99.993 31.382C99.433 31.228 98.873 31.151 98.313 31.151C97.319 31.151 96.584 31.326 96.108 31.676C95.646 32.012 95.415 32.446 95.415 32.978C95.415 33.398 95.541 33.727 95.793 33.965C96.059 34.203 96.402 34.392 96.822 34.532C97.256 34.658 97.725 34.763 98.229 34.847C98.747 34.931 99.258 35.036 99.762 35.162C100.28 35.274 100.749 35.435 101.169 35.645C101.603 35.841 101.946 36.128 102.198 36.506C102.464 36.87 102.597 37.353 102.597 37.955C102.597 38.599 102.415 39.159 102.051 39.635C101.701 40.097 101.183 40.461 100.497 40.727C99.825 40.979 99.006 41.105 98.04 41.105ZM109.89 41.105C108.952 41.105 108.133 40.93 107.433 40.58C106.733 40.23 106.187 39.705 105.795 39.005C105.417 38.305 105.228 37.43 105.228 36.38V29.975H106.719V36.212C106.719 37.388 107.006 38.277 107.58 38.879C108.168 39.467 108.987 39.761 110.037 39.761C110.807 39.761 111.472 39.607 112.032 39.299C112.606 38.977 113.04 38.515 113.334 37.913C113.642 37.311 113.796 36.59 113.796 35.75V29.975H115.287V41H113.859V37.976L114.09 38.522C113.74 39.334 113.194 39.971 112.452 40.433C111.724 40.881 110.87 41.105 109.89 41.105ZM119.442 41V25.418H120.933V41H119.442ZM128.629 41.105C127.593 41.105 126.795 40.825 126.235 40.265C125.675 39.705 125.395 38.914 125.395 37.892V27.539H126.886V37.808C126.886 38.452 127.047 38.949 127.369 39.299C127.705 39.649 128.181 39.824 128.797 39.824C129.455 39.824 130.001 39.635 130.435 39.257L130.96 40.328C130.666 40.594 130.309 40.79 129.889 40.916C129.483 41.042 129.063 41.105 128.629 41.105ZM123.421 31.214V29.975H130.246V31.214H123.421ZM136.636 41.105C135.726 41.105 134.865 40.979 134.053 40.727C133.241 40.461 132.604 40.132 132.142 39.74L132.814 38.564C133.262 38.9 133.836 39.194 134.536 39.446C135.236 39.684 135.971 39.803 136.741 39.803C137.791 39.803 138.547 39.642 139.009 39.32C139.471 38.984 139.702 38.543 139.702 37.997C139.702 37.591 139.569 37.276 139.303 37.052C139.051 36.814 138.715 36.639 138.295 36.527C137.875 36.401 137.406 36.296 136.888 36.212C136.37 36.128 135.852 36.03 135.334 35.918C134.83 35.806 134.368 35.645 133.948 35.435C133.528 35.211 133.185 34.91 132.919 34.532C132.667 34.154 132.541 33.65 132.541 33.02C132.541 32.418 132.709 31.879 133.045 31.403C133.381 30.927 133.871 30.556 134.515 30.29C135.173 30.01 135.971 29.87 136.909 29.87C137.623 29.87 138.337 29.968 139.051 30.164C139.765 30.346 140.353 30.591 140.815 30.899L140.164 32.096C139.674 31.76 139.149 31.522 138.589 31.382C138.029 31.228 137.469 31.151 136.909 31.151C135.915 31.151 135.18 31.326 134.704 31.676C134.242 32.012 134.011 32.446 134.011 32.978C134.011 33.398 134.137 33.727 134.389 33.965C134.655 34.203 134.998 34.392 135.418 34.532C135.852 34.658 136.321 34.763 136.825 34.847C137.343 34.931 137.854 35.036 138.358 35.162C138.876 35.274 139.345 35.435 139.765 35.645C140.199 35.841 140.542 36.128 140.794 36.506C141.06 36.87 141.193 37.353 141.193 37.955C141.193 38.599 141.011 39.159 140.647 39.635C140.297 40.097 139.779 40.461 139.093 40.727C138.421 40.979 137.602 41.105 136.636 41.105Z" fill="white"/>
</svg>
