<svg width="208" height="68" viewBox="0 0 208 68" fill="none" xmlns="http://www.w3.org/2000/svg">
<path d="M2 25.9153V64.6382H180.282L204.197 40.7229V2H25.9146L2 25.9153Z" fill="#1C2633" fill-opacity="0.7" stroke="#6C818D" stroke-width="2.0487" stroke-miterlimit="10"/>
<path d="M198.427 6.2793H29.2775L6.76562 28.7912V60.3743" stroke="#6C818D" stroke-width="2.0487" stroke-miterlimit="10"/>
<path d="M190.915 49.5684L178.768 61.716H153.38L148.717 66.3795H181.925L191.153 57.1509L190.915 49.5684Z" fill="#9DB2BF"/>
<path d="M75.2891 62.9912H155.205L159.764 67.1067H79.8479L75.2891 62.9912Z" fill="#9DB2BF"/>
<path d="M75.133 67.1068L70.9442 62.918H68.6328L72.7539 67.0384L75.133 67.1068Z" fill="#6C818D"/>
<path d="M68.633 67.1068L64.4442 62.918H62.1328L66.2539 67.0384L68.633 67.1068Z" fill="#6C818D"/>
<path d="M62.133 67.1068L57.9442 62.918H55.6328L59.7539 67.0384L62.133 67.1068Z" fill="#6C818D"/>
<path d="M55.633 67.1068L51.4442 62.918H49.1328L53.2539 67.0384L55.633 67.1068Z" fill="#6C818D"/>
<path d="M200.791 38.5371H207.545V12.7638H200.791V38.5371Z" fill="#9DB2BF"/>
<path d="M189.759 35.5986H192.545V23.8837H189.759V35.5986Z" fill="#9DB2BF"/>
<path d="M195.274 35.5986H198.061V23.8837H195.274V35.5986Z" fill="#6C818D"/>
<path d="M60.7515 36.8203V39.1943H70.3804L69.5337 42H57.6138V28.8018H70.3804L69.5337 31.6074H60.7515V34.0146H68.936V36.8203H60.7515ZM78.9302 38.7295L83.5288 28.8018H86.8325L80.5737 41.4854L77.4194 42.332L70.9282 28.8018H74.2485L78.9302 38.7295ZM91.1821 36.8203V39.1943H100.811L99.9644 42H88.0444V28.8018H100.811L99.9644 31.6074H91.1821V34.0146H99.3667V36.8203H91.1821ZM112.748 28.8018H115.885C115.885 28.8018 115.885 33.2012 115.885 42H112.748L105.841 33.3008V42H102.704V29.3164L105.841 28.4697L112.748 37.1689V28.8018ZM117.379 31.6074V28.8018H131.175L130.329 31.6074H125.398V42H122.244V31.6074H117.379ZM136.803 36.8037C135.032 36.8037 133.715 36.2393 132.852 35.1104C132.332 34.4352 132.072 33.6715 132.072 32.8193C132.072 31.6683 132.503 30.7109 133.367 29.9473C134.241 29.1836 135.387 28.8018 136.803 28.8018H145.768L144.921 31.6074H136.836C136.161 31.6074 135.713 31.8564 135.492 32.3545C135.425 32.5094 135.392 32.6644 135.392 32.8193C135.392 33.2952 135.625 33.6439 136.089 33.8652C136.311 33.9648 136.56 34.0146 136.836 34.0146H141.385C143.079 34.0146 144.362 34.557 145.237 35.6416C145.79 36.3389 146.067 37.1302 146.067 38.0156C146.067 39.1667 145.635 40.1185 144.772 40.8711C143.909 41.6237 142.78 42 141.385 42H132.072L132.918 39.1943H141.352C142.038 39.1943 142.486 38.9508 142.697 38.4639C142.763 38.32 142.796 38.1706 142.796 38.0156C142.796 37.5397 142.575 37.1911 142.132 36.9697C141.9 36.859 141.64 36.8037 141.352 36.8037H136.803Z" fill="#AEC8D8"/>
</svg>
