<svg width="71" height="71" viewBox="0 0 71 71" fill="none" xmlns="http://www.w3.org/2000/svg">
<path d="M35.7802 0.53125C16.4498 0.53125 0.780273 16.2011 0.780273 35.5322C0.780273 51.0849 10.932 64.2522 24.9653 68.8111H46.5953C60.6286 64.2522 70.7803 51.0849 70.7803 35.5322C70.7803 16.2011 55.1108 0.53125 35.7802 0.53125Z" fill="#5CA7CC"/>
<path opacity="0.05" d="M46.2967 67.0243L46.2792 56.8775C46.2792 55.2342 45.8942 53.6294 45.1557 52.1751C55.0275 50.1923 59.8313 44.3559 59.8313 34.3649C59.8313 30.4185 58.6674 26.9342 56.3732 24.0046C56.5482 23.4498 56.6777 22.8758 56.7582 22.2878C57.0873 19.892 56.718 18.3257 56.4205 17.0657L56.3732 16.8627C56.0477 15.4696 55.6574 14.4756 55.6418 14.4336L55.4474 13.9401L55.2532 13.4466L54.7247 13.3906L54.1945 13.3346C54.1945 13.3346 53.8463 13.2979 53.3177 13.2979C52.5845 13.2979 51.4977 13.3713 50.4705 13.7196L50.1275 13.8351C48.8325 14.2709 47.6092 14.6838 45.8977 15.7059C45.3972 16.0052 44.8495 16.3464 44.2632 16.7279C41.6137 16.0716 38.763 15.7374 35.7792 15.7374C32.7657 15.7374 29.8905 16.0734 27.2234 16.7367C26.6302 16.3517 26.079 16.0069 25.575 15.7059C23.8634 14.6838 22.6403 14.2726 21.3452 13.8351L21.0022 13.7196C19.9785 13.3713 18.89 13.2979 18.1567 13.2979C17.6282 13.2979 17.2799 13.3346 17.2799 13.3346L16.7515 13.3906L16.2264 13.4448L16.0305 13.9366L15.8327 14.4318C15.8153 14.4774 15.425 15.4714 15.0995 16.8662L15.0522 17.0674C14.7548 18.3257 14.3855 19.8937 14.7145 22.2878C14.7985 22.8934 14.9332 23.4866 15.1169 24.0571C12.8682 26.9727 11.729 30.4378 11.729 34.3649C11.729 44.3314 16.538 50.1643 26.4237 52.1629C26.0842 52.8419 25.82 53.5595 25.6328 54.305C25.2879 54.4222 24.9712 54.5009 24.6912 54.5447C24.2747 54.6077 23.839 54.6392 23.3979 54.6392C22.1974 54.6392 21.2542 54.4047 20.8867 54.186C20.339 53.8604 19.3607 52.9137 18.4122 51.5294C17.602 50.3481 16.3384 48.8028 14.9262 48.157C13.7047 47.5988 12.4115 47.2784 11.3755 47.2784C11.134 47.2784 10.9117 47.296 10.7174 47.3275C9.81271 47.471 9.05671 47.968 8.64546 48.6925C8.29021 49.3173 8.23421 50.0453 8.49145 50.6894C8.8747 51.6484 9.98071 52.4131 10.8417 52.8856C11.2652 53.1184 12.1805 53.9689 12.7143 54.8264C13.1149 55.4705 13.3005 55.9289 13.5578 56.5625C13.7099 56.9387 13.878 57.3483 14.1055 57.8435C14.928 59.632 17.4953 61.2107 17.7857 61.3838C19.1962 62.2291 21.5675 62.5004 23.3105 62.5792L23.5257 62.5844H23.5275C23.9475 62.5844 24.525 62.5442 25.2844 62.4602V67.0331C25.2879 67.9588 24.3447 68.1688 23.097 68.1495L24.0542 68.4716C27.7205 69.7823 31.658 70.5314 35.7792 70.5314C39.9004 70.5314 43.8379 69.7823 47.5095 68.4733L48.7397 68.0148C47.4955 67.9728 46.3073 67.7698 46.2967 67.0243Z" fill="#5CA7CC"/>
<path opacity="0.07" d="M47.6427 68.4252C46.9323 68.5074 45.401 68.2343 45.401 67.0338V56.8766C45.401 54.9621 44.8269 53.1123 43.763 51.5354C54.1143 49.8606 58.9512 44.3724 58.9512 34.3639C58.9512 30.4491 57.7507 27.0243 55.383 24.1752C55.6227 23.5364 55.7908 22.8626 55.887 22.1679C56.1932 19.9348 55.859 18.5173 55.565 17.266L55.5177 17.0629C55.2063 15.7312 54.8388 14.7932 54.823 14.7547L54.6287 14.2612L54.0985 14.2052C54.0985 14.2052 53.7869 14.1719 53.3127 14.1719C52.646 14.1719 51.6607 14.2366 50.7472 14.5482L50.4043 14.6637C49.1547 15.0854 47.9735 15.4827 46.3425 16.4557C45.7615 16.8022 45.114 17.21 44.4157 17.6702C41.733 16.9685 38.8298 16.6115 35.776 16.6115C32.6925 16.6115 29.7647 16.9702 27.0627 17.679C26.3575 17.2152 25.7065 16.8057 25.122 16.4557C23.491 15.4827 22.3098 15.0836 21.0602 14.6637L20.7172 14.5482C19.8055 14.2384 18.8185 14.1719 18.1517 14.1719C17.6774 14.1719 17.366 14.2052 17.366 14.2052L16.8374 14.2612L16.6397 14.7564C16.624 14.7949 16.2565 15.7329 15.945 17.0647L15.8977 17.2678C15.602 18.5191 15.2678 19.9348 15.5757 22.1679C15.6737 22.8801 15.8488 23.5697 16.0973 24.2224C13.775 27.0576 12.599 30.4649 12.599 34.3639C12.599 44.3445 17.4394 49.8309 27.7995 51.5249C27.1083 52.5574 26.6253 53.7213 26.3768 54.962C25.7992 55.1895 25.276 55.3401 24.8175 55.41C24.3573 55.48 23.8778 55.515 23.393 55.515C22.1855 55.515 21.0252 55.2893 20.4354 54.9393C19.6655 54.4824 18.5857 53.3397 17.6844 52.0254C17.0719 51.1329 15.8523 49.5456 14.5554 48.9541C13.4442 48.4465 12.2839 48.1544 11.3687 48.1544C11.1763 48.1544 11.0012 48.1684 10.8473 48.1928C10.2067 48.2944 9.67823 48.6339 9.39822 49.1274C9.17423 49.5194 9.13748 49.9726 9.29498 50.3664C9.60823 51.1504 10.7685 51.8539 11.2532 52.12C11.8395 52.4419 12.8615 53.422 13.4478 54.367C13.887 55.074 14.0952 55.5868 14.3595 56.2343C14.5082 56.6 14.671 56.9991 14.8915 57.4803C15.4707 58.7386 17.2592 60.0564 18.2252 60.6357C19.5448 61.4267 21.9947 61.6471 23.3387 61.7067L23.5329 61.7102C24.0562 61.7102 24.933 61.6315 26.1493 61.4739V67.0338C26.1493 68.3971 24.415 68.4513 23.9898 68.4513C23.9355 68.4513 24.87 68.7734 24.87 68.7734C28.3053 69.9004 31.9645 70.5305 35.776 70.5305C39.5875 70.5305 43.2468 69.9004 46.6802 68.7752C46.6802 68.7752 47.6969 68.4182 47.6427 68.4252Z" fill="#5CA7CC"/>
<path d="M57.2961 34.3641C57.2961 30.3215 55.9275 26.9684 53.5913 24.3398C53.8451 23.7711 54.1092 23.0081 54.2405 22.0491C54.5416 19.8614 54.1863 18.5489 53.8853 17.2644C53.5843 15.9799 53.2291 15.0768 53.2291 15.0768C53.2291 15.0768 51.6155 14.9123 50.2488 15.3779C48.882 15.8434 47.706 16.1986 46.0103 17.2102C45.2176 17.6827 44.4196 18.2007 43.7878 18.6206C41.0875 17.8716 38.1178 17.4867 34.994 17.4867C31.8423 17.4867 28.8463 17.8734 26.1267 18.6276C25.4933 18.2059 24.6901 17.6844 23.892 17.2084C22.1962 16.1969 21.0203 15.8416 19.6536 15.3761C18.2868 14.9105 16.6733 15.0751 16.6733 15.0751C16.6733 15.0751 16.3181 15.9781 16.017 17.2626C15.7161 18.5472 15.3607 19.8597 15.6618 22.0473C15.7965 23.0308 16.0696 23.8078 16.3302 24.3801C14.0378 26.9929 12.6938 30.325 12.6938 34.3624C12.6938 44.8329 18.3497 49.6123 28.6555 50.874C27.4532 52.1446 26.6465 53.7721 26.3752 55.5834C25.698 55.881 24.9176 56.161 24.1668 56.273C22.2348 56.5652 20.1925 56.273 19.209 55.6901C18.2256 55.1074 17.0582 53.7949 16.1833 52.5173C15.4448 51.4393 14.3791 50.188 13.413 49.747C12.1372 49.1642 10.8965 48.9455 10.2053 49.054C9.51228 49.1642 9.18502 49.6735 9.33027 50.0393C9.47553 50.4033 10.1685 50.9511 10.8983 51.3518C11.6281 51.7526 12.7585 52.8463 13.4148 53.9034C14.1463 55.0829 14.2897 55.7637 14.9093 57.1112C15.3451 58.0597 16.836 59.2446 17.8983 59.8815C18.8101 60.4293 20.6317 60.7408 22.6023 60.8301C23.283 60.8615 24.8913 60.6621 26.2475 60.4696V67.0323C26.2475 68.1506 25.2238 69.0011 24.1633 68.805C27.567 69.9496 31.2018 70.5306 34.994 70.5306C38.7846 70.5306 42.4193 69.9496 45.8266 68.8085C44.7678 69.0028 43.744 68.1522 43.744 67.0339V56.8767C43.744 54.5509 42.8218 52.4491 41.3413 50.8828C51.5718 49.6542 57.2961 44.9886 57.2961 34.3641ZM12.6623 50.8023C12.3927 50.664 12.2476 50.4085 12.3386 50.2283C12.4295 50.048 12.7236 50.0147 12.993 50.153C13.2625 50.2913 13.4078 50.5468 13.3168 50.7271C13.2257 50.9073 12.9318 50.9406 12.6623 50.8023ZM14.7832 52.1236C14.6416 52.2776 14.337 52.2285 14.1025 52.0151C13.868 51.8016 13.7928 51.5023 13.9345 51.3484C14.0763 51.1943 14.3808 51.2433 14.6153 51.4569C14.8498 51.6703 14.925 51.9695 14.7832 52.1236ZM16.1027 54.3111C15.9243 54.4371 15.6215 54.3198 15.4273 54.0487C15.2331 53.7774 15.2208 53.4536 15.3993 53.3276C15.5778 53.2017 15.8805 53.3189 16.0748 53.5901C16.2673 53.8614 16.2813 54.1852 16.1027 54.3111ZM17.998 55.9579C17.8772 56.154 17.5342 56.1627 17.2333 55.9789C16.9322 55.7951 16.7853 55.4872 16.9061 55.2912C17.0268 55.0951 17.3698 55.0864 17.6708 55.2702C17.9718 55.4539 18.1187 55.762 17.998 55.9579ZM19.79 57.5697C19.4173 57.5243 19.1408 57.2914 19.1723 57.0499C19.202 56.8084 19.5293 56.651 19.9003 56.6964C20.273 56.742 20.5495 56.9747 20.518 57.2162C20.4883 57.456 20.1627 57.6153 19.79 57.5697ZM22.6792 57.988C22.2821 57.9652 21.9723 57.7378 21.988 57.4822C22.0038 57.2267 22.338 57.0359 22.7353 57.0587C23.1326 57.0815 23.4423 57.3089 23.4265 57.5645C23.4108 57.8217 23.0765 58.0108 22.6792 57.988ZM25.4057 57.715C24.9823 57.715 24.6393 57.4945 24.6393 57.2232C24.6393 56.9519 24.9823 56.7315 25.4057 56.7315C25.8293 56.7315 26.1723 56.9519 26.1723 57.2232C26.1723 57.4945 25.8275 57.715 25.4057 57.715Z" fill="black"/>
</svg>
