<svg width="1586" height="898" viewBox="0 0 1586 898" fill="none" xmlns="http://www.w3.org/2000/svg">
<path d="M11.5429 806.731L9.80322 825.687L69.6853 885.445H93.4982L11.5429 806.731Z" fill="#30414C"/>
<path d="M1560.44 175.739L1560.59 143.025L1449.08 42.0873H1407.75L1560.44 175.739Z" fill="#30414C"/>
<path d="M1586 897.653L120.465 897.653L0 781.993L0 15.1001L431.081 15.1001L455.594 0L651.349 0L657.652 15.1001H665.006L659.403 0L671.31 0L677.613 15.1001L683.566 15.1001L677.613 0L691.621 0L697.924 15.1001L704.227 15.1001L697.924 0L711.581 0L718.585 15.1001L725.589 15.1001L718.585 0L735.394 0L741.698 15.1001L748.701 15.1001L741.698 0L760.608 0L769.012 15.1001H777.066L769.012 0L787.222 0L795.977 15.1001L805.081 15.1001L795.977 0L815.587 0L824.692 15.1001H832.746L824.692 0L842.902 0L852.707 15.1001L861.987 15.1001L852.707 0L870.216 0L879.321 15.1001L1353.13 15.1001L1586 216.502L1586 897.653ZM120.465 889.3L1577.25 889.3L1577.25 216.502L1353.13 22.8108L571.506 22.8108L549.795 41.7663L123.266 41.7663L105.757 28.2725L10.1554 28.2725L10.1554 781.993L120.465 889.3Z" fill="#30414C"/>
</svg>
