<svg width="277" height="90" viewBox="0 0 277 90" fill="none" xmlns="http://www.w3.org/2000/svg">
<path d="M2 33.9964V85.804H240.525L272.521 53.8076V2H33.9955L2 33.9964Z" fill="#1C2533" fill-opacity="0.7" stroke="#6C818D" stroke-width="2.0487" stroke-miterlimit="10"/>
<path d="M264.802 7.72559H38.4957L8.37695 37.8443V80.0996" stroke="#6C818D" stroke-width="2.0487" stroke-miterlimit="10"/>
<path d="M254.749 65.6426L238.498 81.895H204.531L198.292 88.1344H242.721L255.068 75.7873L254.749 65.6426Z" fill="#9DB2BF"/>
<path d="M100.054 83.6006H206.974L213.073 89.1067H106.153L100.054 83.6006Z" fill="#9DB2BF"/>
<path d="M99.8456 89.1072L94.2413 83.5029H91.1489L96.6626 89.0157L99.8456 89.1072Z" fill="#6C818D"/>
<path d="M91.1488 89.1072L85.5446 83.5029H82.4521L87.9658 89.0157L91.1488 89.1072Z" fill="#6C818D"/>
<path d="M82.4525 89.1072L76.8483 83.5029H73.7559L79.2695 89.0157L82.4525 89.1072Z" fill="#6C818D"/>
<path d="M73.7558 89.1072L68.1515 83.5029H65.0591L70.5727 89.0157L73.7558 89.1072Z" fill="#6C818D"/>
<path d="M267.964 50.8838H277V16.4016H267.964V50.8838Z" fill="#9DB2BF"/>
<path d="M253.204 46.9512H256.932V31.2777H253.204V46.9512Z" fill="#9DB2BF"/>
<path d="M260.584 46.9512H264.311V31.2777H260.584V46.9512Z" fill="#6C818D"/>
<path d="M59.75 34.3672H71.7031L70.5078 38.3281H60.2891C58.9453 38.3281 57.9219 39.0781 57.2188 40.5781C56.7812 41.5469 56.5625 42.625 56.5625 43.8125C56.5625 45.6562 57.0312 47.0703 57.9688 48.0547C58.6094 48.7109 59.3828 49.0391 60.2891 49.0391H71.7031L70.5078 53H59.75C57.2031 53 55.1953 51.9375 53.7266 49.8125C52.4922 48.0469 51.875 45.9531 51.875 43.5312C51.875 40.9688 52.5547 38.8281 53.9141 37.1094C55.3672 35.2969 57.3125 34.3828 59.75 34.3672ZM84.8516 46.6719V53H80.4219V46.5781L71.3984 34.3672H76.5547L82.6719 43.1094L88.7891 34.3672H93.9453L84.8516 46.6719ZM95.1641 41.0703L99.5938 39.875V41.7266H107.773C108.711 41.7266 109.344 41.375 109.672 40.6719C109.766 40.4375 109.812 40.2109 109.812 39.9922C109.812 39.3047 109.477 38.8125 108.805 38.5156C108.492 38.3906 108.148 38.3281 107.773 38.3281H95.1641L96.3594 34.3672H107.82C110.227 34.3672 112.055 35.1094 113.305 36.5938C114.102 37.5312 114.5 38.5859 114.5 39.7578C114.5 41.1484 113.883 42.3203 112.648 43.2734C112.508 43.3984 112.359 43.5078 112.203 43.6016C113.766 44.4766 114.672 45.6406 114.922 47.0938C114.969 47.3438 114.992 47.5781 114.992 47.7969C114.992 49.3125 114.367 50.5625 113.117 51.5469C111.898 52.5156 110.297 53 108.312 53H95.1641V41.0703ZM99.5938 45.6641V49.0391H108.266C109.203 49.0391 109.836 48.6875 110.164 47.9844C110.258 47.75 110.305 47.5234 110.305 47.3047C110.305 46.6328 109.969 46.1484 109.297 45.8516C108.984 45.7266 108.641 45.6641 108.266 45.6641H99.5938ZM121.742 45.6875V49.0391H135.336L134.141 53H117.312V34.3672H135.336L134.141 38.3281H121.742V41.7266H133.297V45.6875H121.742ZM137.984 41.0703L142.414 39.875V43.1562C142.414 43.1562 145.062 43.1562 150.359 43.1562C151.234 43.1562 151.844 42.7188 152.188 41.8438C152.328 41.4844 152.398 41.1094 152.398 40.7188C152.398 39.7656 152.078 39.0703 151.438 38.6328C151.109 38.4297 150.75 38.3281 150.359 38.3281H137.984L139.18 34.3672H150.406C152.703 34.3672 154.484 35.2031 155.75 36.875C156.641 38.0625 157.086 39.4141 157.086 40.9297C157.086 42.7422 156.477 44.2344 155.258 45.4062C154.617 46.0156 153.867 46.4609 153.008 46.7422L157.625 53H152.398L148.344 47.1172H142.414V53H137.984V41.0703ZM173.539 45.6641C171.039 45.6641 169.18 44.8672 167.961 43.2734C167.227 42.3203 166.859 41.2422 166.859 40.0391C166.859 38.4141 167.469 37.0625 168.688 35.9844C169.922 34.9062 171.539 34.3672 173.539 34.3672H186.195L185 38.3281H173.586C172.633 38.3281 172 38.6797 171.688 39.3828C171.594 39.6016 171.547 39.8203 171.547 40.0391C171.547 40.7109 171.875 41.2031 172.531 41.5156C172.844 41.6562 173.195 41.7266 173.586 41.7266H180.008C182.398 41.7266 184.211 42.4922 185.445 44.0234C186.227 45.0078 186.617 46.125 186.617 47.375C186.617 49 186.008 50.3438 184.789 51.4062C183.57 52.4688 181.977 53 180.008 53H166.859L168.055 49.0391H179.961C180.93 49.0391 181.562 48.6953 181.859 48.0078C181.953 47.8047 182 47.5938 182 47.375C182 46.7031 181.688 46.2109 181.062 45.8984C180.734 45.7422 180.367 45.6641 179.961 45.6641H173.539ZM193.695 45.6875V49.0391H207.289L206.094 53H189.266V34.3672H207.289L206.094 38.3281H193.695V41.7266H205.25V45.6875H193.695ZM216.453 34.3672H228.406L227.211 38.3281H216.992C215.648 38.3281 214.625 39.0781 213.922 40.5781C213.484 41.5469 213.266 42.625 213.266 43.8125C213.266 45.6562 213.734 47.0703 214.672 48.0547C215.312 48.7109 216.086 49.0391 216.992 49.0391H228.406L227.211 53H216.453C213.906 53 211.898 51.9375 210.43 49.8125C209.195 48.0469 208.578 45.9531 208.578 43.5312C208.578 40.9688 209.258 38.8281 210.617 37.1094C212.07 35.2969 214.016 34.3828 216.453 34.3672Z" fill="#AEC8D8"/>
</svg>
