<svg width="381" height="292" viewBox="0 0 381 292" fill="none" xmlns="http://www.w3.org/2000/svg">
<g filter="url(#filter0_i_241_712)">
<rect width="381" height="292" rx="23" fill="#465C6C"/>
</g>
<rect x="128" y="85" width="125" height="96" fill="#D9D9D9"/>
<g filter="url(#filter1_b_241_712)">
<path d="M173.219 132.097C170.59 132.097 168.067 133.142 166.208 135.001C164.348 136.861 163.304 139.382 163.304 142.012C163.304 144.641 164.349 147.163 166.208 149.022C168.067 150.882 170.589 151.926 173.219 151.926C175.848 151.926 178.37 150.882 180.229 149.022C182.088 147.163 183.133 144.641 183.133 142.012C183.133 139.382 182.089 136.861 180.23 135.001C178.37 133.142 175.849 132.097 173.219 132.097ZM208.572 132.097C206.407 131.914 204.237 132.388 202.346 133.458C200.455 134.529 198.931 136.145 197.974 138.096C197.017 140.047 196.671 142.241 196.982 144.392C197.293 146.542 198.246 148.549 199.716 150.149C201.186 151.749 203.105 152.868 205.222 153.359C207.338 153.85 209.554 153.691 211.579 152.902C213.603 152.113 215.343 150.731 216.569 148.937C217.795 147.143 218.451 145.021 218.451 142.848C218.508 141.493 218.299 140.14 217.834 138.867C217.368 137.593 216.657 136.423 215.739 135.425C214.822 134.427 213.716 133.619 212.487 133.048C211.257 132.477 209.927 132.154 208.572 132.097ZM255.644 50.834H125.856C123.242 50.8402 120.655 51.3612 118.243 52.3673C115.83 53.3734 113.639 54.8448 111.796 56.6976C109.952 58.5505 108.491 60.7483 107.496 63.1658C106.502 65.5832 105.994 68.1728 106 70.7868V201.737C105.994 204.351 106.502 206.941 107.497 209.358C108.491 211.776 109.952 213.973 111.796 215.826C113.64 217.679 115.83 219.15 118.243 220.156C120.655 221.163 123.243 221.684 125.856 221.69H235.692L230.558 203.771L242.956 215.297L254.676 226.145L275.5 244.548V70.7868C275.507 68.1728 274.998 65.5832 274.004 63.1658C273.009 60.7483 271.548 58.5505 269.705 56.6976C267.861 54.8448 265.67 53.3734 263.257 52.3673C260.845 51.3612 258.258 50.8402 255.644 50.834ZM218.257 177.329C218.257 177.329 214.77 173.164 211.864 169.484C218.885 167.831 225.095 163.748 229.396 157.958C225.911 160.278 222.174 162.195 218.257 163.672C213.752 165.595 209.039 166.993 204.213 167.837C195.918 169.364 187.411 169.332 179.128 167.741C174.264 166.789 169.498 165.395 164.889 163.576C162.459 162.641 160.097 161.541 157.818 160.283C157.527 160.088 157.238 159.992 156.947 159.798C156.801 159.726 156.67 159.627 156.559 159.508C154.817 158.539 153.847 157.861 153.847 157.861C157.992 163.53 163.988 167.572 170.797 169.29C167.892 172.971 164.308 177.329 164.308 177.329C158.555 177.484 152.851 176.222 147.7 173.655C142.549 171.088 138.108 167.294 134.767 162.607C135.082 142.971 139.851 123.663 148.714 106.139C156.514 100.013 166.024 96.4593 175.931 95.9691L176.899 97.1319C167.579 99.438 158.881 103.77 151.426 109.82C151.426 109.82 153.557 108.658 157.14 107.011C164.103 103.833 171.523 101.773 179.128 100.909C179.671 100.797 180.222 100.732 180.775 100.715C187.266 99.8697 193.834 99.8049 200.34 100.522C210.571 101.69 220.475 104.849 229.494 109.82C222.416 104.059 214.196 99.8661 205.378 97.519L206.733 95.97C216.639 96.4599 226.149 100.013 233.95 106.14C242.814 123.664 247.583 142.972 247.898 162.607C244.53 167.29 240.069 171.079 234.904 173.645C229.738 176.21 224.023 177.475 218.257 177.329Z" fill="#424866"/>
<path d="M208.53 132.595L208.54 132.596L208.551 132.597C209.84 132.65 211.106 132.958 212.276 133.501C213.446 134.045 214.498 134.813 215.371 135.763C216.244 136.713 216.921 137.826 217.364 139.038C217.807 140.25 218.006 141.537 217.951 142.826L217.951 142.837V142.848C217.951 144.92 217.325 146.944 216.156 148.655C214.987 150.365 213.328 151.683 211.397 152.436C209.466 153.188 207.353 153.34 205.335 152.872C203.316 152.403 201.486 151.336 200.084 149.811C198.682 148.285 197.773 146.371 197.477 144.32C197.18 142.269 197.51 140.177 198.423 138.316C199.335 136.456 200.789 134.914 202.592 133.894C204.395 132.873 206.465 132.42 208.53 132.595ZM106.5 70.7868L106.5 70.7855C106.494 68.2372 106.989 65.7127 107.959 63.356C108.928 60.9993 110.352 58.8566 112.15 57.0503C113.947 55.2441 116.083 53.8096 118.435 52.8287C120.787 51.848 123.309 51.3401 125.857 51.334H255.643C258.191 51.3401 260.713 51.848 263.065 52.8287C265.417 53.8096 267.553 55.2441 269.35 57.0503C271.148 58.8566 272.572 60.9993 273.541 63.356C274.511 65.7127 275.006 68.2372 275 70.7855V70.7868V243.439L255.015 225.778L255.007 225.77L243.296 214.931L243.295 214.93L230.899 203.405L229.583 202.181L230.078 203.909L235.028 221.19H125.858C123.309 221.184 120.787 220.676 118.435 219.695C116.083 218.714 113.948 217.28 112.15 215.473C110.353 213.667 108.929 211.525 107.959 209.168C106.99 206.811 106.494 204.287 106.5 201.739V201.737L106.5 70.7868ZM218.257 177.329L217.874 177.65L218.019 177.823L218.245 177.829C224.092 177.977 229.887 176.694 235.126 174.092C240.365 171.49 244.888 167.648 248.303 162.899L248.4 162.765L248.397 162.599C248.082 142.888 243.294 123.506 234.396 105.914L234.346 105.815L234.258 105.747C226.377 99.5563 216.768 95.9656 206.758 95.4707L206.516 95.4587L206.357 95.6408L205.001 97.1897L204.472 97.7952L205.249 98.0022C212.123 99.8317 218.631 102.791 224.51 106.748C216.889 103.252 208.751 100.979 200.397 100.025L200.395 100.025C193.857 99.3044 187.257 99.3686 180.735 100.216C180.169 100.234 179.604 100.301 179.049 100.415C171.4 101.287 163.936 103.359 156.933 106.556L156.931 106.557C156.682 106.671 156.439 106.784 156.204 106.894C162.528 102.605 169.573 99.4596 177.019 97.6172L177.793 97.4255L177.283 96.812L176.315 95.6492L176.155 95.4574L175.906 95.4697C165.896 95.9651 156.287 99.5557 148.405 105.746L148.318 105.814L148.268 105.913C139.37 123.505 134.583 142.888 134.267 162.599L134.265 162.763L134.36 162.897C137.748 167.651 142.253 171.499 147.477 174.103C152.702 176.707 158.486 177.986 164.322 177.829L164.55 177.823L164.694 177.647L164.308 177.329L164.694 177.647L164.695 177.646L164.695 177.646L164.697 177.643L164.705 177.634L164.736 177.597L164.854 177.452C164.958 177.325 165.11 177.141 165.301 176.907C165.682 176.441 166.221 175.781 166.851 175.005C168.111 173.455 169.735 171.443 171.19 169.6L171.668 168.994L170.919 168.805C165.155 167.351 159.984 164.203 156.055 159.799C156.12 159.835 156.185 159.872 156.252 159.909C156.383 160.038 156.532 160.147 156.695 160.231C156.858 160.337 157.016 160.416 157.149 160.482L157.159 160.487C157.307 160.561 157.425 160.621 157.541 160.698L157.558 160.71L157.576 160.72C159.874 161.989 162.257 163.099 164.707 164.042C169.344 165.871 174.139 167.274 179.031 168.231L179.033 168.232C187.377 169.834 195.946 169.867 204.301 168.329C209.161 167.479 213.906 166.072 218.444 164.136C221.427 163.01 224.306 161.632 227.05 160.017C222.985 164.464 217.66 167.606 211.749 168.997L210.985 169.177L211.472 169.794C212.928 171.638 214.528 173.602 215.764 175.104C216.383 175.856 216.91 176.492 217.283 176.94C217.469 177.165 217.617 177.342 217.718 177.463L217.834 177.602L217.864 177.638L217.872 177.647L217.873 177.649L217.874 177.65L217.874 177.65L218.257 177.329ZM166.561 135.355C168.327 133.589 170.722 132.597 173.219 132.597C175.716 132.597 178.111 133.589 179.876 135.355C181.641 137.12 182.633 139.515 182.633 142.012C182.633 144.509 181.641 146.903 179.876 148.669C178.11 150.434 175.715 151.426 173.219 151.426C170.722 151.426 168.327 150.434 166.561 148.669C164.796 146.903 163.804 144.509 163.804 142.012C163.804 139.515 164.796 137.12 166.561 135.355Z" stroke="white"/>
</g>
<defs>
<filter id="filter0_i_241_712" x="0" y="0" width="381" height="301" filterUnits="userSpaceOnUse" color-interpolation-filters="sRGB">
<feFlood flood-opacity="0" result="BackgroundImageFix"/>
<feBlend mode="normal" in="SourceGraphic" in2="BackgroundImageFix" result="shape"/>
<feColorMatrix in="SourceAlpha" type="matrix" values="0 0 0 0 0 0 0 0 0 0 0 0 0 0 0 0 0 0 127 0" result="hardAlpha"/>
<feOffset dy="9"/>
<feGaussianBlur stdDeviation="8.7"/>
<feComposite in2="hardAlpha" operator="arithmetic" k2="-1" k3="1"/>
<feColorMatrix type="matrix" values="0 0 0 0 0 0 0 0 0 0 0 0 0 0 0 0 0 0 0.25 0"/>
<feBlend mode="normal" in2="shape" result="effect1_innerShadow_241_712"/>
</filter>
<filter id="filter1_b_241_712" x="93" y="37.834" width="195.5" height="219.714" filterUnits="userSpaceOnUse" color-interpolation-filters="sRGB">
<feFlood flood-opacity="0" result="BackgroundImageFix"/>
<feGaussianBlur in="BackgroundImageFix" stdDeviation="6.5"/>
<feComposite in2="SourceAlpha" operator="in" result="effect1_backgroundBlur_241_712"/>
<feBlend mode="normal" in="SourceGraphic" in2="effect1_backgroundBlur_241_712" result="shape"/>
</filter>
</defs>
</svg>
