<svg width="70" height="70" viewBox="0 0 70 70" fill="none" xmlns="http://www.w3.org/2000/svg">
<path d="M35 0C15.6695 0 0 15.6699 0 35.0009C0 50.5537 10.1517 63.721 24.185 68.2798H45.815C59.8483 63.721 70 50.5537 70 35.0009C70 15.6699 54.3305 0 35 0Z" fill="#5CA7CC"/>
<path opacity="0.05" d="M45.5164 66.493L45.4989 56.3462C45.4989 54.703 45.1139 53.0982 44.3755 51.6438C54.2472 49.661 59.051 43.8247 59.051 33.8336C59.051 29.8872 57.8872 26.403 55.593 23.4733C55.7679 22.9186 55.8974 22.3445 55.978 21.7565C56.307 19.3608 55.9377 17.7944 55.6402 16.5345L55.593 16.3314C55.2674 14.9383 54.8772 13.9443 54.8615 13.9024L54.6671 13.4089L54.4729 12.9154L53.9445 12.8593L53.4142 12.8034C53.4142 12.8034 53.066 12.7666 52.5374 12.7666C51.8042 12.7666 50.7175 12.84 49.6902 13.1884L49.3472 13.3039C48.0522 13.7396 46.8289 14.1526 45.1174 15.1747C44.617 15.4739 44.0692 15.8151 43.4829 16.1966C40.8334 15.5404 37.9827 15.2061 34.9989 15.2061C31.9854 15.2061 29.1102 15.5422 26.4431 16.2054C25.8499 15.8204 25.2987 15.4756 24.7947 15.1747C23.0832 14.1526 21.86 13.7413 20.565 13.3039L20.222 13.1884C19.1982 12.84 18.1097 12.7666 17.3764 12.7666C16.848 12.7666 16.4997 12.8034 16.4997 12.8034L15.9712 12.8593L15.4461 12.9136L15.2502 13.4054L15.0525 13.9006C15.035 13.9461 14.6447 14.9401 14.3192 16.3349L14.2719 16.5361C13.9745 17.7944 13.6052 19.3625 13.9342 21.7565C14.0182 22.3621 14.1529 22.9554 14.3367 23.5259C12.088 26.4414 10.9487 29.9065 10.9487 33.8336C10.9487 43.8002 15.7577 49.6331 25.6434 51.6316C25.3039 52.3107 25.0397 53.0282 24.8525 53.7737C24.5077 53.8909 24.1909 53.9697 23.911 54.0134C23.4944 54.0765 23.0587 54.1079 22.6176 54.1079C21.4171 54.1079 20.4739 53.8734 20.1064 53.6547C19.5587 53.3292 18.5804 52.3824 17.6319 50.9982C16.8217 49.8168 15.5581 48.2716 14.1459 47.6258C12.9245 47.0675 11.6312 46.7472 10.5952 46.7472C10.3537 46.7472 10.1314 46.7648 9.93715 46.7963C9.03244 46.9397 8.27644 47.4367 7.86518 48.1613C7.50994 48.786 7.45394 49.5141 7.71118 50.1581C8.09443 51.1172 9.20044 51.8818 10.0614 52.3544C10.4849 52.5872 11.4002 53.4377 11.934 54.2952C12.3346 54.9393 12.5202 55.3977 12.7775 56.0313C12.9296 56.4075 13.0977 56.8171 13.3252 57.3122C14.1477 59.1008 16.715 60.6794 17.0054 60.8526C18.416 61.6979 20.7872 61.9692 22.5302 62.0479L22.7454 62.0531H22.7472C23.1672 62.0531 23.7447 62.0129 24.5042 61.9289V66.5018C24.5077 67.4276 23.5645 67.6376 22.3167 67.6183L23.2739 67.9403C26.9402 69.2511 30.8777 70.0002 34.9989 70.0002C39.1201 70.0002 43.0577 69.2511 46.7292 67.942L47.9595 67.4835C46.7152 67.4415 45.527 67.2385 45.5164 66.493Z" fill="#5CA7CC"/>
<path opacity="0.07" d="M46.8624 67.8939C46.152 67.9762 44.6207 67.7031 44.6207 66.5025V56.3454C44.6207 54.4308 44.0467 52.581 42.9828 51.0042C53.334 49.3293 58.171 43.8412 58.171 33.8327C58.171 29.9179 56.9705 26.493 54.6027 23.6439C54.8424 23.0051 55.0105 22.3314 55.1067 21.6367C55.413 19.4036 55.0787 17.986 54.7847 16.7347L54.7374 16.5317C54.426 15.2 54.0585 14.2619 54.0427 14.2235L53.8485 13.73L53.3182 13.6739C53.3182 13.6739 53.0067 13.6406 52.5325 13.6406C51.8657 13.6406 50.8804 13.7054 49.9669 14.0169L49.624 14.1324C48.3744 14.5542 47.1932 14.9515 45.5622 15.9245C44.9812 16.271 44.3337 16.6788 43.6354 17.139C40.9528 16.4373 38.0495 16.0803 34.9957 16.0803C31.9122 16.0803 28.9845 16.439 26.2824 17.1478C25.5772 16.684 24.9263 16.2745 24.3417 15.9245C22.7107 14.9515 21.5295 14.5524 20.2799 14.1324L19.9369 14.0169C19.0252 13.7072 18.0382 13.6406 17.3715 13.6406C16.8972 13.6406 16.5857 13.6739 16.5857 13.6739L16.0572 13.73L15.8594 14.2252C15.8437 14.2636 15.4763 15.2017 15.1647 16.5335L15.1175 16.7365C14.8217 17.9878 14.4875 19.4036 14.7954 21.6367C14.8934 22.3489 15.0685 23.0384 15.317 23.6912C12.9947 26.5263 11.8187 29.9336 11.8187 33.8327C11.8187 43.8132 16.6592 49.2997 27.0192 50.9937C26.328 52.0262 25.845 53.19 25.5965 54.4307C25.019 54.6582 24.4957 54.8088 24.0372 54.8787C23.577 54.9488 23.0975 54.9838 22.6127 54.9838C21.4052 54.9838 20.245 54.758 19.6552 54.408C18.8852 53.9512 17.8054 52.8084 16.9042 51.4942C16.2917 50.6016 15.072 49.0144 13.7752 48.4229C12.6639 47.9153 11.5037 47.6231 10.5884 47.6231C10.396 47.6231 10.2209 47.6371 10.067 47.6616C9.42645 47.7631 8.89795 48.1026 8.61795 48.5961C8.39396 48.9881 8.35721 49.4413 8.51471 49.8351C8.82795 50.6192 9.98825 51.3226 10.4729 51.5887C11.0593 51.9106 12.0812 52.8908 12.6675 53.8358C13.1067 54.5427 13.315 55.0555 13.5792 55.7031C13.7279 56.0688 13.8907 56.4679 14.1112 56.9491C14.6904 58.2074 16.4789 59.5252 17.4449 60.1044C18.7645 60.8955 21.2145 61.1159 22.5584 61.1754L22.7527 61.179C23.2759 61.179 24.1527 61.1002 25.369 60.9426V66.5025C25.369 67.8658 23.6347 67.9201 23.2095 67.9201C23.1552 67.9201 24.0898 68.2421 24.0898 68.2421C27.525 69.3691 31.1842 69.9992 34.9957 69.9992C38.8072 69.9992 42.4665 69.3691 45.8999 68.2439C45.8999 68.2439 46.9167 67.8869 46.8624 67.8939Z" fill="#5CA7CC"/>
<path d="M56.5158 33.8324C56.5158 29.7897 55.1473 26.4366 52.811 23.8081C53.0648 23.2393 53.329 22.4763 53.4603 21.5173C53.7613 19.3297 53.406 18.0172 53.1051 16.7327C52.804 15.4481 52.4488 14.5451 52.4488 14.5451C52.4488 14.5451 50.8353 14.3806 49.4685 14.8461C48.1017 15.3116 46.9257 15.6669 45.23 16.6784C44.4373 17.151 43.6393 17.6689 43.0075 18.0889C40.3073 17.3399 37.3376 16.9549 34.2138 16.9549C31.062 16.9549 28.066 17.3417 25.3465 18.0959C24.713 17.6741 23.9098 17.1527 23.1117 16.6766C21.416 15.6652 20.24 15.3098 18.8733 14.8443C17.5065 14.3788 15.893 14.5434 15.893 14.5434C15.893 14.5434 15.5378 15.4463 15.2367 16.7309C14.9358 18.0155 14.5805 19.328 14.8815 21.5155C15.0162 22.499 15.2893 23.2761 15.55 23.8483C13.2575 26.4611 11.9135 29.7932 11.9135 33.8307C11.9135 44.3012 17.5695 49.0805 27.8753 50.3423C26.673 51.6129 25.8662 53.2403 25.595 55.0517C24.9177 55.3492 24.1373 55.6292 23.3865 55.7412C21.4545 56.0335 19.4122 55.7412 18.4288 55.1584C17.4453 54.5757 16.278 53.2631 15.403 51.9856C14.6645 50.9075 13.5988 49.6562 12.6327 49.2153C11.357 48.6325 10.1162 48.4138 9.42501 48.5223C8.73201 48.6325 8.40475 49.1418 8.55 49.5076C8.69526 49.8716 9.38826 50.4193 10.118 50.8201C10.8478 51.2209 11.9783 52.3146 12.6345 53.3716C13.366 54.5512 13.5095 55.2319 14.1291 56.5794C14.5648 57.528 16.0557 58.7128 17.1181 59.3498C18.0298 59.8976 19.8515 60.2091 21.822 60.2983C22.5028 60.3298 24.111 60.1304 25.4673 59.9378V66.5005C25.4673 67.6188 24.4435 68.4693 23.383 68.2733C26.7868 69.4179 30.4215 69.9989 34.2138 69.9989C38.0043 69.9989 41.6391 69.4179 45.0463 68.2768C43.9875 68.471 42.9637 67.6205 42.9637 66.5022V56.3449C42.9637 54.0191 42.0415 51.9173 40.5611 50.3511C50.7915 49.1225 56.5158 44.4569 56.5158 33.8324ZM11.882 50.2705C11.6125 50.1323 11.4673 49.8768 11.5583 49.6965C11.6492 49.5163 11.9433 49.483 12.2128 49.6213C12.4822 49.7596 12.6275 50.0151 12.5365 50.1953C12.4455 50.3756 12.1515 50.4088 11.882 50.2705ZM14.003 51.5919C13.8613 51.7459 13.5567 51.6968 13.3222 51.4834C13.0877 51.2698 13.0125 50.9706 13.1543 50.8166C13.2961 50.6625 13.6005 50.7116 13.835 50.9251C14.0695 51.1385 14.1447 51.4378 14.003 51.5919ZM15.3225 53.7794C15.144 53.9054 14.8413 53.7881 14.647 53.5169C14.4528 53.2456 14.4405 52.9219 14.619 52.7959C14.7975 52.6699 15.1002 52.7871 15.2945 53.0584C15.487 53.3297 15.501 53.6534 15.3225 53.7794ZM17.2178 55.4262C17.097 55.6222 16.754 55.6309 16.453 55.4472C16.152 55.2634 16.005 54.9555 16.1258 54.7594C16.2465 54.5634 16.5895 54.5547 16.8905 54.7384C17.1915 54.9222 17.3385 55.2302 17.2178 55.4262ZM19.0098 57.038C18.637 56.9925 18.3605 56.7597 18.392 56.5182C18.4218 56.2767 18.749 56.1192 19.12 56.1647C19.4928 56.2102 19.7692 56.443 19.7378 56.6845C19.708 56.9243 19.3825 57.0835 19.0098 57.038ZM21.899 57.4562C21.5018 57.4334 21.192 57.206 21.2077 56.9504C21.2235 56.695 21.5577 56.5042 21.955 56.527C22.3523 56.5498 22.662 56.7772 22.6462 57.0328C22.6305 57.29 22.2962 57.479 21.899 57.4562ZM24.6255 57.1833C24.202 57.1833 23.859 56.9627 23.859 56.6915C23.859 56.4202 24.202 56.1998 24.6255 56.1998C25.049 56.1998 25.392 56.4202 25.392 56.6915C25.392 56.9627 25.0472 57.1833 24.6255 57.1833Z" fill="black"/>
</svg>
