<svg width="527" height="201" viewBox="0 0 527 201" fill="none" xmlns="http://www.w3.org/2000/svg">
<path d="M1.87427 74.6556V192.821H457.24L518.324 119.842V1.67676H62.9566L1.87427 74.6556Z" fill="#1C2633" fill-opacity="0.7" stroke="#6C818D" stroke-width="2.0487" stroke-miterlimit="10"/>
<path d="M503.587 14.7344H71.5478L14.0483 83.4307V179.809" stroke="#6C818D" stroke-width="2.0487" stroke-miterlimit="10"/>
<path d="M484.397 146.835L453.371 183.904H388.527L376.615 198.135H461.434L485.006 169.974L484.397 146.835Z" fill="#9DB2BF"/>
<path d="M189.069 187.795H393.189L404.833 200.354H200.713L189.069 187.795Z" fill="#9DB2BF"/>
<path d="M188.669 200.354L177.97 187.571H172.067L182.593 200.145L188.669 200.354Z" fill="#6C818D"/>
<path d="M172.07 200.354L161.371 187.571H155.467L165.993 200.145L172.07 200.354Z" fill="#6C818D"/>
<path d="M155.466 200.354L144.767 187.571H138.863L149.389 200.145L155.466 200.354Z" fill="#6C818D"/>
<path d="M138.862 200.354L128.163 187.571H122.259L132.785 200.145L138.862 200.354Z" fill="#6C818D"/>
<path d="M509.624 113.172H526.874V34.5231H509.624V113.172Z" fill="#9DB2BF"/>
<path d="M481.446 104.205H488.562V68.4562H481.446V104.205Z" fill="#9DB2BF"/>
<path d="M495.533 104.205H502.649V68.4562H495.533V104.205Z" fill="#6C818D"/>
<path d="M182.914 120.327C177.844 120.327 173.554 119.373 170.044 117.467C166.578 115.56 163.934 112.852 162.114 109.342C160.294 105.832 159.384 101.672 159.384 96.8618C159.384 93.2218 159.904 89.9501 160.944 87.0468C162.028 84.1434 163.566 81.6734 165.559 79.6368C167.596 77.5568 170.066 75.9751 172.969 74.8918C175.873 73.7651 179.166 73.2018 182.849 73.2018C185.276 73.2018 187.703 73.5051 190.129 74.1118C192.599 74.6751 194.918 75.6501 197.084 77.0368C197.821 77.5134 198.298 78.0984 198.514 78.7918C198.774 79.4851 198.818 80.2001 198.644 80.9368C198.471 81.6301 198.146 82.2368 197.669 82.7568C197.193 83.2768 196.586 83.6018 195.849 83.7318C195.156 83.8618 194.376 83.6884 193.509 83.2118C191.863 82.2584 190.194 81.5651 188.504 81.1318C186.814 80.6984 184.929 80.4818 182.849 80.4818C179.643 80.4818 176.934 81.1318 174.724 82.4318C172.514 83.6884 170.846 85.5301 169.719 87.9568C168.636 90.3834 168.094 93.3518 168.094 96.8618C168.094 102.192 169.373 106.243 171.929 109.017C174.486 111.79 178.278 113.177 183.304 113.177C185.038 113.177 186.793 113.003 188.569 112.657C190.346 112.31 192.079 111.833 193.769 111.227L192.144 114.932V101.087H184.994C183.911 101.087 183.066 100.805 182.459 100.242C181.896 99.6784 181.614 98.9201 181.614 97.9668C181.614 96.9701 181.896 96.2118 182.459 95.6918C183.066 95.1718 183.911 94.9118 184.994 94.9118H195.719C196.803 94.9118 197.626 95.2151 198.189 95.8218C198.796 96.3851 199.099 97.2084 199.099 98.2918V114.087C199.099 115.04 198.904 115.842 198.514 116.492C198.168 117.142 197.583 117.618 196.759 117.922C194.853 118.615 192.664 119.2 190.194 119.677C187.724 120.11 185.298 120.327 182.914 120.327ZM218.426 120.327C216.129 120.327 214.071 119.893 212.251 119.027C210.474 118.117 209.066 116.903 208.026 115.387C207.029 113.87 206.531 112.158 206.531 110.252C206.531 107.912 207.137 106.07 208.351 104.727C209.564 103.34 211.536 102.343 214.266 101.737C216.996 101.13 220.657 100.827 225.251 100.827H228.501V105.507H225.316C222.629 105.507 220.484 105.637 218.881 105.897C217.277 106.157 216.129 106.612 215.436 107.262C214.786 107.868 214.461 108.735 214.461 109.862C214.461 111.292 214.959 112.462 215.956 113.372C216.952 114.282 218.339 114.737 220.116 114.737C221.546 114.737 222.802 114.412 223.886 113.762C225.012 113.068 225.901 112.137 226.551 110.967C227.201 109.797 227.526 108.453 227.526 106.937V99.4618C227.526 97.2951 227.049 95.7351 226.096 94.7818C225.142 93.8284 223.539 93.3518 221.286 93.3518C220.029 93.3518 218.664 93.5034 217.191 93.8068C215.761 94.1101 214.244 94.6301 212.641 95.3668C211.817 95.7568 211.081 95.8651 210.431 95.6918C209.824 95.5184 209.347 95.1718 209.001 94.6518C208.654 94.0884 208.481 93.4818 208.481 92.8318C208.481 92.1818 208.654 91.5534 209.001 90.9468C209.347 90.2968 209.932 89.8201 210.756 89.5168C212.749 88.6934 214.656 88.1084 216.476 87.7618C218.339 87.4151 220.029 87.2418 221.546 87.2418C224.666 87.2418 227.222 87.7184 229.216 88.6718C231.252 89.6251 232.769 91.0768 233.766 93.0268C234.762 94.9334 235.261 97.4034 235.261 100.437V116.037C235.261 117.38 234.936 118.42 234.286 119.157C233.636 119.85 232.704 120.197 231.491 120.197C230.277 120.197 229.324 119.85 228.631 119.157C227.981 118.42 227.656 117.38 227.656 116.037V112.917H228.176C227.872 114.433 227.266 115.755 226.356 116.882C225.489 117.965 224.384 118.81 223.041 119.417C221.697 120.023 220.159 120.327 218.426 120.327ZM247.667 120.197C246.367 120.197 245.371 119.85 244.677 119.157C243.984 118.42 243.637 117.38 243.637 116.037V91.4668C243.637 90.1234 243.984 89.1051 244.677 88.4118C245.371 87.7184 246.346 87.3718 247.602 87.3718C248.859 87.3718 249.834 87.7184 250.527 88.4118C251.221 89.1051 251.567 90.1234 251.567 91.4668V96.2118L250.852 94.2618C251.719 92.0951 253.062 90.3834 254.882 89.1268C256.702 87.8701 258.869 87.2418 261.382 87.2418C263.939 87.2418 266.041 87.8484 267.687 89.0618C269.334 90.2751 270.482 92.1384 271.132 94.6518H270.222C271.089 92.3551 272.519 90.5568 274.512 89.2568C276.506 87.9134 278.802 87.2418 281.402 87.2418C283.829 87.2418 285.822 87.7184 287.382 88.6718C288.986 89.6251 290.177 91.0768 290.957 93.0268C291.737 94.9334 292.127 97.3601 292.127 100.307V116.037C292.127 117.38 291.759 118.42 291.022 119.157C290.329 119.85 289.332 120.197 288.032 120.197C286.732 120.197 285.736 119.85 285.042 119.157C284.349 118.42 284.002 117.38 284.002 116.037V100.632C284.002 98.2051 283.591 96.4284 282.767 95.3018C281.987 94.1751 280.644 93.6118 278.737 93.6118C276.614 93.6118 274.946 94.3701 273.732 95.8868C272.519 97.3601 271.912 99.4184 271.912 102.062V116.037C271.912 117.38 271.566 118.42 270.872 119.157C270.179 119.85 269.182 120.197 267.882 120.197C266.582 120.197 265.564 119.85 264.827 119.157C264.134 118.42 263.787 117.38 263.787 116.037V100.632C263.787 98.2051 263.376 96.4284 262.552 95.3018C261.772 94.1751 260.451 93.6118 258.587 93.6118C256.464 93.6118 254.796 94.3701 253.582 95.8868C252.369 97.3601 251.762 99.4184 251.762 102.062V116.037C251.762 118.81 250.397 120.197 247.667 120.197ZM304.539 120.132C303.239 120.132 302.243 119.742 301.549 118.962C300.856 118.182 300.509 117.098 300.509 115.712V91.8568C300.509 90.4268 300.856 89.3434 301.549 88.6068C302.243 87.8268 303.239 87.4368 304.539 87.4368C305.839 87.4368 306.836 87.8268 307.529 88.6068C308.266 89.3434 308.634 90.4268 308.634 91.8568V115.712C308.634 117.098 308.288 118.182 307.594 118.962C306.901 119.742 305.883 120.132 304.539 120.132ZM304.539 81.3918C303.023 81.3918 301.831 81.0234 300.964 80.2868C300.141 79.5068 299.729 78.4451 299.729 77.1018C299.729 75.7151 300.141 74.6534 300.964 73.9168C301.831 73.1801 303.023 72.8118 304.539 72.8118C306.099 72.8118 307.291 73.1801 308.114 73.9168C308.938 74.6534 309.349 75.7151 309.349 77.1018C309.349 78.4451 308.938 79.5068 308.114 80.2868C307.291 81.0234 306.099 81.3918 304.539 81.3918ZM321.107 120.197C319.807 120.197 318.81 119.85 318.117 119.157C317.423 118.42 317.077 117.38 317.077 116.037V91.4668C317.077 90.1234 317.423 89.1051 318.117 88.4118C318.81 87.7184 319.785 87.3718 321.042 87.3718C322.298 87.3718 323.273 87.7184 323.967 88.4118C324.66 89.1051 325.007 90.1234 325.007 91.4668V95.8868L324.292 94.2618C325.245 91.9651 326.718 90.2318 328.712 89.0618C330.748 87.8484 333.045 87.2418 335.602 87.2418C338.158 87.2418 340.26 87.7184 341.907 88.6718C343.553 89.6251 344.788 91.0768 345.612 93.0268C346.435 94.9334 346.847 97.3601 346.847 100.307V116.037C346.847 117.38 346.5 118.42 345.807 119.157C345.113 119.85 344.117 120.197 342.817 120.197C341.517 120.197 340.498 119.85 339.762 119.157C339.068 118.42 338.722 117.38 338.722 116.037V100.697C338.722 98.2268 338.245 96.4284 337.292 95.3018C336.382 94.1751 334.952 93.6118 333.002 93.6118C330.618 93.6118 328.712 94.3701 327.282 95.8868C325.895 97.3601 325.202 99.3318 325.202 101.802V116.037C325.202 118.81 323.837 120.197 321.107 120.197ZM369.919 132.027C367.579 132.027 365.304 131.81 363.094 131.377C360.928 130.943 358.956 130.272 357.179 129.362C356.356 128.928 355.793 128.408 355.489 127.802C355.229 127.195 355.143 126.567 355.229 125.917C355.359 125.31 355.619 124.768 356.009 124.292C356.443 123.815 356.963 123.49 357.569 123.317C358.176 123.143 358.804 123.23 359.454 123.577C361.361 124.53 363.159 125.137 364.849 125.397C366.583 125.7 368.056 125.852 369.269 125.852C372.173 125.852 374.339 125.137 375.769 123.707C377.243 122.32 377.979 120.24 377.979 117.467V111.617H378.564C377.914 113.827 376.549 115.603 374.469 116.947C372.433 118.247 370.114 118.897 367.514 118.897C364.654 118.897 362.163 118.247 360.039 116.947C357.916 115.603 356.269 113.74 355.099 111.357C353.929 108.973 353.344 106.2 353.344 103.037C353.344 100.653 353.669 98.5084 354.319 96.6018C355.013 94.6518 355.966 92.9834 357.179 91.5968C358.436 90.2101 359.931 89.1484 361.664 88.4118C363.441 87.6318 365.391 87.2418 367.514 87.2418C370.201 87.2418 372.541 87.9134 374.534 89.2568C376.571 90.5568 377.893 92.2901 378.499 94.4568L377.849 96.0818V91.4668C377.849 90.1234 378.196 89.1051 378.889 88.4118C379.626 87.7184 380.623 87.3718 381.879 87.3718C383.179 87.3718 384.176 87.7184 384.869 88.4118C385.563 89.1051 385.909 90.1234 385.909 91.4668V116.492C385.909 121.648 384.544 125.527 381.814 128.127C379.084 130.727 375.119 132.027 369.919 132.027ZM369.724 112.722C371.414 112.722 372.866 112.332 374.079 111.552C375.293 110.772 376.224 109.667 376.874 108.237C377.568 106.763 377.914 105.03 377.914 103.037C377.914 100.047 377.178 97.7068 375.704 96.0168C374.231 94.2834 372.238 93.4168 369.724 93.4168C368.034 93.4168 366.583 93.8068 365.369 94.5868C364.156 95.3668 363.203 96.4718 362.509 97.9018C361.859 99.3318 361.534 101.043 361.534 103.037C361.534 106.027 362.271 108.388 363.744 110.122C365.218 111.855 367.211 112.722 369.724 112.722Z" fill="#CACACA"/>
</svg>
