<svg width="527" height="200" viewBox="0 0 527 200" fill="none" xmlns="http://www.w3.org/2000/svg">
<path d="M1.87427 74.0091V192.174H457.24L518.324 119.196V1.03027H62.9566L1.87427 74.0091Z" fill="#1C2633" fill-opacity="0.7" stroke="#6C818D" stroke-width="2.0487" stroke-miterlimit="10"/>
<path d="M503.587 14.0879H71.5481L14.0486 82.7842V179.162" stroke="#6C818D" stroke-width="2.0487" stroke-miterlimit="10"/>
<path d="M484.397 146.188L453.371 183.258H388.527L376.615 197.489H461.434L485.006 169.327L484.397 146.188Z" fill="#9DB2BF"/>
<path d="M189.069 187.147H393.189L404.833 199.706H200.713L189.069 187.147Z" fill="#9DB2BF"/>
<path d="M188.669 199.707L177.97 186.925H172.067L182.593 199.499L188.669 199.707Z" fill="#6C818D"/>
<path d="M172.07 199.707L161.371 186.925H155.467L165.993 199.499L172.07 199.707Z" fill="#6C818D"/>
<path d="M155.466 199.707L144.767 186.925H138.863L149.389 199.499L155.466 199.707Z" fill="#6C818D"/>
<path d="M138.862 199.707L128.163 186.925H122.259L132.785 199.499L138.862 199.707Z" fill="#6C818D"/>
<path d="M509.624 112.526H526.874V33.8776H509.624V112.526Z" fill="#9DB2BF"/>
<path d="M481.446 103.559H488.562V67.8097H481.446V103.559Z" fill="#9DB2BF"/>
<path d="M495.533 103.559H502.649V67.8097H495.533V103.559Z" fill="#6C818D"/>
<path d="M199.914 119.68C194.844 119.68 190.554 118.727 187.044 116.82C183.578 114.914 180.934 112.205 179.114 108.695C177.294 105.185 176.384 101.025 176.384 96.2153C176.384 92.5753 176.904 89.3036 177.944 86.4003C179.028 83.4969 180.566 81.0269 182.559 78.9903C184.596 76.9103 187.066 75.3286 189.969 74.2453C192.873 73.1186 196.166 72.5553 199.849 72.5553C202.276 72.5553 204.703 72.8586 207.129 73.4653C209.599 74.0286 211.918 75.0036 214.084 76.3903C214.821 76.8669 215.298 77.4519 215.514 78.1453C215.774 78.8386 215.818 79.5536 215.644 80.2903C215.471 80.9836 215.146 81.5903 214.669 82.1103C214.193 82.6303 213.586 82.9553 212.849 83.0853C212.156 83.2153 211.376 83.0419 210.509 82.5653C208.863 81.6119 207.194 80.9186 205.504 80.4853C203.814 80.0519 201.929 79.8353 199.849 79.8353C196.643 79.8353 193.934 80.4853 191.724 81.7853C189.514 83.0419 187.846 84.8836 186.719 87.3103C185.636 89.7369 185.094 92.7053 185.094 96.2153C185.094 101.545 186.373 105.597 188.929 108.37C191.486 111.144 195.278 112.53 200.304 112.53C202.038 112.53 203.793 112.357 205.569 112.01C207.346 111.664 209.079 111.187 210.769 110.58L209.144 114.285V100.44H201.994C200.911 100.44 200.066 100.159 199.459 99.5953C198.896 99.0319 198.614 98.2736 198.614 97.3203C198.614 96.3236 198.896 95.5653 199.459 95.0453C200.066 94.5253 200.911 94.2653 201.994 94.2653H212.719C213.803 94.2653 214.626 94.5686 215.189 95.1753C215.796 95.7386 216.099 96.5619 216.099 97.6453V113.44C216.099 114.394 215.904 115.195 215.514 115.845C215.168 116.495 214.583 116.972 213.759 117.275C211.853 117.969 209.664 118.554 207.194 119.03C204.724 119.464 202.298 119.68 199.914 119.68ZM230.161 119.03C228.731 119.03 227.626 118.662 226.846 117.925C226.109 117.145 225.741 116.04 225.741 114.61V77.6253C225.741 76.1953 226.109 75.1119 226.846 74.3753C227.626 73.5953 228.731 73.2053 230.161 73.2053H242.771C250.441 73.2053 256.356 75.1769 260.516 79.1203C264.719 83.0636 266.821 88.7186 266.821 96.0853C266.821 99.7686 266.279 103.04 265.196 105.9C264.156 108.717 262.596 111.1 260.516 113.05C258.479 115 255.966 116.495 252.976 117.535C250.029 118.532 246.627 119.03 242.771 119.03H230.161ZM234.061 112.14H242.251C244.937 112.14 247.256 111.815 249.206 111.165C251.199 110.472 252.846 109.475 254.146 108.175C255.489 106.832 256.486 105.164 257.136 103.17C257.786 101.134 258.111 98.7719 258.111 96.0853C258.111 90.7119 256.789 86.7036 254.146 84.0603C251.502 81.4169 247.537 80.0953 242.251 80.0953H234.061V112.14ZM274.971 119.55C273.888 119.55 273 119.269 272.306 118.705C271.613 118.099 271.201 117.362 271.071 116.495C270.985 115.585 271.288 114.675 271.981 113.765L286.866 93.9403V97.5153L272.696 78.5353C272.003 77.5819 271.7 76.6719 271.786 75.8053C271.873 74.8953 272.263 74.1586 272.956 73.5953C273.65 72.9886 274.516 72.6853 275.556 72.6853C276.423 72.6853 277.181 72.9019 277.831 73.3353C278.525 73.7253 279.218 74.3969 279.911 75.3503L291.611 91.4703H288.946L300.581 75.3503C301.275 74.3969 301.946 73.7253 302.596 73.3353C303.29 72.9019 304.091 72.6853 305.001 72.6853C306.085 72.6853 306.973 72.9669 307.666 73.5303C308.36 74.0936 308.75 74.8303 308.836 75.7403C308.923 76.6069 308.598 77.5386 307.861 78.5353L293.691 97.5153V93.9403L308.511 113.765C309.205 114.675 309.508 115.585 309.421 116.495C309.335 117.362 308.945 118.099 308.251 118.705C307.558 119.269 306.648 119.55 305.521 119.55C304.698 119.55 303.94 119.334 303.246 118.9C302.596 118.467 301.903 117.774 301.166 116.82L288.816 99.9203H291.676L279.391 116.82C278.698 117.774 278.005 118.467 277.311 118.9C276.618 119.334 275.838 119.55 274.971 119.55ZM321.243 119.55C319.9 119.55 318.86 119.182 318.123 118.445C317.43 117.665 317.083 116.604 317.083 115.26V77.4303C317.083 76.0436 317.452 75.0036 318.188 74.3103C318.925 73.5736 319.965 73.2053 321.308 73.2053H336.973C342 73.2053 345.878 74.4186 348.608 76.8453C351.338 79.2286 352.703 82.5869 352.703 86.9203C352.703 89.7369 352.075 92.1636 350.818 94.2003C349.605 96.2369 347.828 97.7969 345.488 98.8803C343.148 99.9636 340.31 100.505 336.973 100.505L337.558 99.5303H339.703C341.48 99.5303 343.018 99.9636 344.318 100.83C345.662 101.697 346.832 103.062 347.828 104.925L352.703 113.96C353.223 114.87 353.462 115.759 353.418 116.625C353.375 117.492 353.05 118.207 352.443 118.77C351.837 119.29 350.948 119.55 349.778 119.55C348.608 119.55 347.655 119.312 346.918 118.835C346.182 118.315 345.532 117.535 344.968 116.495L338.403 104.405C337.623 102.932 336.692 101.957 335.608 101.48C334.568 100.96 333.225 100.7 331.578 100.7H325.403V115.26C325.403 116.604 325.057 117.665 324.363 118.445C323.67 119.182 322.63 119.55 321.243 119.55ZM325.403 94.5253H335.543C338.533 94.5253 340.787 93.9186 342.303 92.7053C343.863 91.4486 344.643 89.5853 344.643 87.1153C344.643 84.6886 343.863 82.8686 342.303 81.6553C340.787 80.3986 338.533 79.7703 335.543 79.7703H325.403V94.5253Z" fill="#CACACA"/>
</svg>
