<svg width="208" height="68" viewBox="0 0 208 68" fill="none" xmlns="http://www.w3.org/2000/svg">
<path d="M2 25.9153V64.6382H180.282L204.197 40.7229V2H25.9146L2 25.9153Z" fill="#1C2633" fill-opacity="0.7" stroke="#6C818D" stroke-width="2.0487" stroke-miterlimit="10"/>
<path d="M198.427 6.2793H29.2775L6.76562 28.7912V60.3743" stroke="#6C818D" stroke-width="2.0487" stroke-miterlimit="10"/>
<path d="M190.915 49.5684L178.768 61.716H153.38L148.717 66.3795H181.925L191.153 57.1509L190.915 49.5684Z" fill="#9DB2BF"/>
<path d="M75.2891 62.9912H155.205L159.764 67.1067H79.8479L75.2891 62.9912Z" fill="#9DB2BF"/>
<path d="M75.133 67.1068L70.9442 62.918H68.6328L72.7539 67.0384L75.133 67.1068Z" fill="#6C818D"/>
<path d="M68.633 67.1068L64.4442 62.918H62.1328L66.2539 67.0384L68.633 67.1068Z" fill="#6C818D"/>
<path d="M62.133 67.1068L57.9442 62.918H55.6328L59.7539 67.0384L62.133 67.1068Z" fill="#6C818D"/>
<path d="M55.633 67.1068L51.4442 62.918H49.1328L53.2539 67.0384L55.633 67.1068Z" fill="#6C818D"/>
<path d="M200.791 38.5371H207.545V12.7638H200.791V38.5371Z" fill="#9DB2BF"/>
<path d="M189.759 35.5986H192.545V23.8837H189.759V35.5986Z" fill="#9DB2BF"/>
<path d="M195.274 35.5986H198.061V23.8837H195.274V35.5986Z" fill="#6C818D"/>
<path d="M66.4736 28.3164L69.6113 27.4697V33.3467H76.5176V27.8018H79.6553V41H76.5176V36.1523H69.6113V41H66.4736V28.3164ZM84.5527 34.4092C84.5527 36.3018 85.2445 37.5137 86.6279 38.0449C87.2809 38.2995 88.111 38.4268 89.1182 38.4268C91.4756 38.4268 92.8978 37.6188 93.3848 36.0029C93.5176 35.527 93.584 34.9958 93.584 34.4092C93.584 32.251 92.6543 30.9616 90.7949 30.541C90.2969 30.4303 89.738 30.375 89.1182 30.375C86.9821 30.375 85.6042 30.9837 84.9844 32.2012C84.6966 32.7878 84.5527 33.5238 84.5527 34.4092ZM96.9043 34.4092C96.9043 36.999 95.9027 38.8916 93.8994 40.0869C92.5602 40.8838 90.9111 41.2822 88.9521 41.2822C86.5505 41.2822 84.6468 40.6403 83.2412 39.3564C81.902 38.1279 81.2324 36.4788 81.2324 34.4092C81.2324 31.9632 82.14 30.1204 83.9551 28.8809C85.3053 27.9733 86.971 27.5195 88.9521 27.5195C91.5641 27.5195 93.584 28.2002 95.0117 29.5615C96.2734 30.7679 96.9043 32.3838 96.9043 34.4092ZM111.746 27.8018H114.884V41H111.746V33.4131L107.729 40.5684H105.62L101.603 33.7119V41H98.4648V28.3164L101.603 27.4697L106.699 36.7998L111.746 27.8018ZM120.562 35.8203V38.1943H130.19L129.344 41H117.424V27.8018H130.19L129.344 30.6074H120.562V33.0146H128.746V35.8203H120.562Z" fill="#AEC8D8"/>
</svg>
