<svg width="527" height="200" viewBox="0 0 527 200" fill="none" xmlns="http://www.w3.org/2000/svg">
<path d="M2 74.0091V192.174H457.365L518.449 119.196V1.03027H63.0824L2 74.0091Z" fill="#1C2633" fill-opacity="0.7" stroke="#6C818D" stroke-width="2.0487" stroke-miterlimit="10"/>
<path d="M503.712 14.0889H71.6735L14.1741 82.7852V179.163" stroke="#6C818D" stroke-width="2.0487" stroke-miterlimit="10"/>
<path d="M484.523 146.188L453.497 183.258H388.652L376.741 197.489H461.56L485.131 169.327L484.523 146.188Z" fill="#9DB2BF"/>
<path d="M189.195 187.147H393.315L404.959 199.706H200.839L189.195 187.147Z" fill="#9DB2BF"/>
<path d="M188.795 199.707L178.096 186.925H172.192L182.718 199.499L188.795 199.707Z" fill="#6C818D"/>
<path d="M172.195 199.707L161.496 186.925H155.592L166.118 199.499L172.195 199.707Z" fill="#6C818D"/>
<path d="M155.591 199.707L144.892 186.925H138.989L149.515 199.499L155.591 199.707Z" fill="#6C818D"/>
<path d="M138.987 199.707L128.288 186.925H122.385L132.911 199.499L138.987 199.707Z" fill="#6C818D"/>
<path d="M509.75 112.526H527V33.8776H509.75V112.526Z" fill="#9DB2BF"/>
<path d="M481.572 103.559H488.688V67.8097H481.572V103.559Z" fill="#9DB2BF"/>
<path d="M495.659 103.559H502.775V67.8097H495.659V103.559Z" fill="#6C818D"/>
<path d="M149.357 84.5183C148.218 84.5183 147.344 84.1929 146.734 83.5423C146.124 82.8916 145.819 81.9969 145.819 80.8583V44.1973C145.819 43.0179 146.144 42.1233 146.795 41.5133C147.446 40.8626 148.34 40.5373 149.479 40.5373C150.496 40.5373 151.289 40.7406 151.858 41.1473C152.468 41.5133 153.017 42.1639 153.505 43.0993L168.572 70.9763H166.62L181.687 43.0993C182.175 42.1639 182.704 41.5133 183.273 41.1473C183.842 40.7406 184.635 40.5373 185.652 40.5373C186.791 40.5373 187.665 40.8626 188.275 41.5133C188.885 42.1233 189.19 43.0179 189.19 44.1973V80.8583C189.19 81.9969 188.885 82.8916 188.275 83.5423C187.706 84.1929 186.831 84.5183 185.652 84.5183C184.513 84.5183 183.639 84.1929 183.029 83.5423C182.419 82.8916 182.114 81.9969 182.114 80.8583V52.6153H183.456L170.646 75.9783C170.239 76.6696 169.812 77.1779 169.365 77.5033C168.918 77.8286 168.308 77.9913 167.535 77.9913C166.762 77.9913 166.132 77.8286 165.644 77.5033C165.156 77.1373 164.729 76.6289 164.363 75.9783L151.431 52.5543H152.895V80.8583C152.895 81.9969 152.59 82.8916 151.98 83.5423C151.411 84.1929 150.536 84.5183 149.357 84.5183ZM207.744 84.6403C205.589 84.6403 203.657 84.2336 201.949 83.4203C200.282 82.5663 198.96 81.4276 197.984 80.0043C197.049 78.5809 196.581 76.9746 196.581 75.1853C196.581 72.9893 197.15 71.2609 198.289 70.0003C199.428 68.6989 201.278 67.7636 203.84 67.1943C206.402 66.6249 209.838 66.3403 214.149 66.3403H217.199V70.7323H214.21C211.689 70.7323 209.676 70.8543 208.171 71.0983C206.666 71.3423 205.589 71.7693 204.938 72.3793C204.328 72.9486 204.023 73.7619 204.023 74.8193C204.023 76.1613 204.491 77.2593 205.426 78.1133C206.361 78.9673 207.663 79.3943 209.33 79.3943C210.672 79.3943 211.851 79.0893 212.868 78.4793C213.925 77.8286 214.759 76.9543 215.369 75.8563C215.979 74.7583 216.284 73.4976 216.284 72.0743V65.0593C216.284 63.0259 215.837 61.5619 214.942 60.6673C214.047 59.7726 212.543 59.3253 210.428 59.3253C209.249 59.3253 207.968 59.4676 206.585 59.7523C205.243 60.0369 203.82 60.5249 202.315 61.2163C201.542 61.5823 200.851 61.6839 200.241 61.5213C199.672 61.3586 199.224 61.0333 198.899 60.5453C198.574 60.0166 198.411 59.4473 198.411 58.8373C198.411 58.2273 198.574 57.6376 198.899 57.0683C199.224 56.4583 199.773 56.0109 200.546 55.7263C202.417 54.9536 204.206 54.4046 205.914 54.0793C207.663 53.7539 209.249 53.5913 210.672 53.5913C213.6 53.5913 215.999 54.0386 217.87 54.9333C219.781 55.8279 221.205 57.1903 222.14 59.0203C223.075 60.8096 223.543 63.1276 223.543 65.9743V80.6143C223.543 81.8749 223.238 82.8509 222.628 83.5423C222.018 84.1929 221.144 84.5183 220.005 84.5183C218.866 84.5183 217.972 84.1929 217.321 83.5423C216.711 82.8509 216.406 81.8749 216.406 80.6143V77.6863H216.894C216.609 79.1096 216.04 80.3499 215.186 81.4073C214.373 82.4239 213.336 83.2169 212.075 83.7863C210.814 84.3556 209.371 84.6403 207.744 84.6403ZM245.068 84.6403C241.937 84.6403 239.212 84.0099 236.894 82.7493C234.576 81.4479 232.787 79.6179 231.526 77.2593C230.266 74.9006 229.635 72.1353 229.635 68.9633C229.635 66.5639 229.981 64.4289 230.672 62.5583C231.404 60.6469 232.441 59.0406 233.783 57.7393C235.125 56.3973 236.752 55.3806 238.663 54.6893C240.575 53.9573 242.71 53.5913 245.068 53.5913C246.41 53.5913 247.854 53.7743 249.399 54.1403C250.985 54.5063 252.47 55.1163 253.852 55.9703C254.503 56.3769 254.93 56.8649 255.133 57.4343C255.337 58.0036 255.377 58.5933 255.255 59.2033C255.133 59.7726 254.869 60.2809 254.462 60.7283C254.096 61.1349 253.629 61.3993 253.059 61.5213C252.49 61.6026 251.86 61.4603 251.168 61.0943C250.274 60.5656 249.359 60.1793 248.423 59.9353C247.488 59.6506 246.593 59.5083 245.739 59.5083C244.397 59.5083 243.218 59.7319 242.201 60.1793C241.185 60.5859 240.31 61.1959 239.578 62.0093C238.887 62.7819 238.358 63.7579 237.992 64.9373C237.626 66.1166 237.443 67.4789 237.443 69.0243C237.443 72.0336 238.155 74.4126 239.578 76.1613C241.042 77.8693 243.096 78.7233 245.739 78.7233C246.593 78.7233 247.468 78.6013 248.362 78.3573C249.298 78.1133 250.233 77.7269 251.168 77.1983C251.86 76.8323 252.47 76.7103 252.998 76.8323C253.568 76.9543 254.035 77.2389 254.401 77.6863C254.767 78.0929 254.991 78.6013 255.072 79.2113C255.154 79.7806 255.072 80.3499 254.828 80.9193C254.625 81.4886 254.218 81.9563 253.608 82.3223C252.266 83.1356 250.843 83.7253 249.338 84.0913C247.834 84.4573 246.41 84.6403 245.068 84.6403ZM263.837 84.5183C262.617 84.5183 261.682 84.1929 261.031 83.5423C260.38 82.8509 260.055 81.8749 260.055 80.6143V44.3803C260.055 43.1196 260.38 42.1639 261.031 41.5133C261.682 40.8626 262.617 40.5373 263.837 40.5373C265.057 40.5373 265.992 40.8626 266.643 41.5133C267.334 42.1639 267.68 43.1196 267.68 44.3803V60.1793H266.826C267.721 58.0239 269.103 56.3973 270.974 55.2993C272.885 54.1606 275.041 53.5913 277.44 53.5913C279.839 53.5913 281.812 54.0386 283.357 54.9333C284.902 55.8279 286.061 57.1903 286.834 59.0203C287.607 60.8096 287.993 63.0869 287.993 65.8523V80.6143C287.993 81.8749 287.668 82.8509 287.017 83.5423C286.366 84.1929 285.431 84.5183 284.211 84.5183C282.991 84.5183 282.035 84.1929 281.344 83.5423C280.693 82.8509 280.368 81.8749 280.368 80.6143V66.2183C280.368 63.9003 279.921 62.2126 279.026 61.1553C278.172 60.0979 276.83 59.5693 275 59.5693C272.763 59.5693 270.974 60.2809 269.632 61.7043C268.331 63.0869 267.68 64.9373 267.68 67.2553V80.6143C267.68 83.2169 266.399 84.5183 263.837 84.5183ZM299.519 84.4573C298.299 84.4573 297.364 84.0913 296.713 83.3593C296.063 82.6273 295.737 81.6106 295.737 80.3093V57.9223C295.737 56.5803 296.063 55.5636 296.713 54.8723C297.364 54.1403 298.299 53.7743 299.519 53.7743C300.739 53.7743 301.675 54.1403 302.325 54.8723C303.017 55.5636 303.362 56.5803 303.362 57.9223V80.3093C303.362 81.6106 303.037 82.6273 302.386 83.3593C301.736 84.0913 300.78 84.4573 299.519 84.4573ZM299.519 48.1013C298.096 48.1013 296.978 47.7556 296.164 47.0643C295.392 46.3323 295.005 45.3359 295.005 44.0753C295.005 42.7739 295.392 41.7776 296.164 41.0863C296.978 40.3949 298.096 40.0493 299.519 40.0493C300.983 40.0493 302.102 40.3949 302.874 41.0863C303.647 41.7776 304.033 42.7739 304.033 44.0753C304.033 45.3359 303.647 46.3323 302.874 47.0643C302.102 47.7556 300.983 48.1013 299.519 48.1013ZM315.067 84.5183C313.847 84.5183 312.912 84.1929 312.261 83.5423C311.611 82.8509 311.285 81.8749 311.285 80.6143V57.5563C311.285 56.2956 311.611 55.3399 312.261 54.6893C312.912 54.0386 313.827 53.7133 315.006 53.7133C316.186 53.7133 317.101 54.0386 317.751 54.6893C318.402 55.3399 318.727 56.2956 318.727 57.5563V61.7043L318.056 60.1793C318.951 58.0239 320.334 56.3973 322.204 55.2993C324.116 54.1606 326.271 53.5913 328.67 53.5913C331.07 53.5913 333.042 54.0386 334.587 54.9333C336.133 55.8279 337.292 57.1903 338.064 59.0203C338.837 60.8096 339.223 63.0869 339.223 65.8523V80.6143C339.223 81.8749 338.898 82.8509 338.247 83.5423C337.597 84.1929 336.661 84.5183 335.441 84.5183C334.221 84.5183 333.266 84.1929 332.574 83.5423C331.924 82.8509 331.598 81.8749 331.598 80.6143V66.2183C331.598 63.9003 331.151 62.2126 330.256 61.1553C329.402 60.0979 328.06 59.5693 326.23 59.5693C323.994 59.5693 322.204 60.2809 320.862 61.7043C319.561 63.0869 318.91 64.9373 318.91 67.2553V80.6143C318.91 83.2169 317.629 84.5183 315.067 84.5183ZM361.669 84.6403C358.294 84.6403 355.386 84.0099 352.946 82.7493C350.506 81.4886 348.615 79.6993 347.273 77.3813C345.972 75.0633 345.321 72.3183 345.321 69.1463C345.321 66.0556 345.951 63.3513 347.212 61.0333C348.513 58.7153 350.282 56.9056 352.519 55.6043C354.796 54.2623 357.379 53.5913 360.266 53.5913C362.381 53.5913 364.272 53.9369 365.939 54.6283C367.647 55.3196 369.091 56.3159 370.27 57.6173C371.49 58.9186 372.405 60.5046 373.015 62.3753C373.666 64.2053 373.991 66.2793 373.991 68.5973C373.991 69.3293 373.727 69.8986 373.198 70.3053C372.71 70.6713 371.998 70.8543 371.063 70.8543H351.482V66.4623H368.623L367.647 67.3773C367.647 65.5066 367.362 63.9409 366.793 62.6803C366.264 61.4196 365.471 60.4639 364.414 59.8133C363.397 59.1219 362.116 58.7763 360.571 58.7763C358.863 58.7763 357.399 59.1829 356.179 59.9963C355 60.7689 354.085 61.8873 353.434 63.3513C352.824 64.7746 352.519 66.4826 352.519 68.4753V68.9023C352.519 72.2369 353.292 74.7379 354.837 76.4053C356.423 78.0319 358.741 78.8453 361.791 78.8453C362.848 78.8453 364.028 78.7233 365.329 78.4793C366.671 78.1946 367.932 77.7269 369.111 77.0763C369.965 76.5883 370.717 76.3849 371.368 76.4663C372.019 76.5069 372.527 76.7306 372.893 77.1373C373.3 77.5439 373.544 78.0523 373.625 78.6623C373.706 79.2316 373.584 79.8213 373.259 80.4313C372.974 81.0413 372.466 81.5699 371.734 82.0173C370.311 82.9119 368.664 83.5829 366.793 84.0303C364.963 84.4369 363.255 84.6403 361.669 84.6403ZM149.662 151.03C148.401 151.03 147.425 150.685 146.734 149.993C146.043 149.261 145.697 148.265 145.697 147.004V111.807C145.697 110.506 146.022 109.53 146.673 108.879C147.364 108.188 148.34 107.842 149.601 107.842C150.862 107.842 151.817 108.188 152.468 108.879C153.159 109.53 153.505 110.506 153.505 111.807V144.381H171.195C172.293 144.381 173.127 144.666 173.696 145.235C174.306 145.805 174.611 146.618 174.611 147.675C174.611 148.733 174.306 149.566 173.696 150.176C173.127 150.746 172.293 151.03 171.195 151.03H149.662ZM193.621 151.64C190.246 151.64 187.338 151.01 184.898 149.749C182.458 148.489 180.567 146.699 179.225 144.381C177.924 142.063 177.273 139.318 177.273 136.146C177.273 133.056 177.903 130.351 179.164 128.033C180.465 125.715 182.234 123.906 184.471 122.604C186.748 121.262 189.331 120.591 192.218 120.591C194.333 120.591 196.224 120.937 197.891 121.628C199.599 122.32 201.043 123.316 202.222 124.617C203.442 125.919 204.357 127.505 204.967 129.375C205.618 131.205 205.943 133.279 205.943 135.597C205.943 136.329 205.679 136.899 205.15 137.305C204.662 137.671 203.95 137.854 203.015 137.854H183.434V133.462H200.575L199.599 134.377C199.599 132.507 199.314 130.941 198.745 129.68C198.216 128.42 197.423 127.464 196.366 126.813C195.349 126.122 194.068 125.776 192.523 125.776C190.815 125.776 189.351 126.183 188.131 126.996C186.952 127.769 186.037 128.887 185.386 130.351C184.776 131.775 184.471 133.483 184.471 135.475V135.902C184.471 139.237 185.244 141.738 186.789 143.405C188.375 145.032 190.693 145.845 193.743 145.845C194.8 145.845 195.98 145.723 197.281 145.479C198.623 145.195 199.884 144.727 201.063 144.076C201.917 143.588 202.669 143.385 203.32 143.466C203.971 143.507 204.479 143.731 204.845 144.137C205.252 144.544 205.496 145.052 205.577 145.662C205.658 146.232 205.536 146.821 205.211 147.431C204.926 148.041 204.418 148.57 203.686 149.017C202.263 149.912 200.616 150.583 198.745 151.03C196.915 151.437 195.207 151.64 193.621 151.64ZM221.803 151.64C219.647 151.64 217.716 151.234 216.008 150.42C214.34 149.566 213.019 148.428 212.043 147.004C211.107 145.581 210.64 143.975 210.64 142.185C210.64 139.989 211.209 138.261 212.348 137C213.486 135.699 215.337 134.764 217.899 134.194C220.461 133.625 223.897 133.34 228.208 133.34H231.258V137.732H228.269C225.747 137.732 223.734 137.854 222.23 138.098C220.725 138.342 219.647 138.769 218.997 139.379C218.387 139.949 218.082 140.762 218.082 141.819C218.082 143.161 218.549 144.259 219.485 145.113C220.42 145.967 221.721 146.394 223.389 146.394C224.731 146.394 225.91 146.089 226.927 145.479C227.984 144.829 228.818 143.954 229.428 142.856C230.038 141.758 230.343 140.498 230.343 139.074V132.059C230.343 130.026 229.895 128.562 229.001 127.667C228.106 126.773 226.601 126.325 224.487 126.325C223.307 126.325 222.026 126.468 220.644 126.752C219.302 127.037 217.878 127.525 216.374 128.216C215.601 128.582 214.91 128.684 214.3 128.521C213.73 128.359 213.283 128.033 212.958 127.545C212.632 127.017 212.47 126.447 212.47 125.837C212.47 125.227 212.632 124.638 212.958 124.068C213.283 123.458 213.832 123.011 214.605 122.726C216.475 121.954 218.265 121.405 219.973 121.079C221.721 120.754 223.307 120.591 224.731 120.591C227.659 120.591 230.058 121.039 231.929 121.933C233.84 122.828 235.263 124.19 236.199 126.02C237.134 127.81 237.602 130.128 237.602 132.974V147.614C237.602 148.875 237.297 149.851 236.687 150.542C236.077 151.193 235.202 151.518 234.064 151.518C232.925 151.518 232.03 151.193 231.38 150.542C230.77 149.851 230.465 148.875 230.465 147.614V144.686H230.953C230.668 146.11 230.099 147.35 229.245 148.407C228.431 149.424 227.394 150.217 226.134 150.786C224.873 151.356 223.429 151.64 221.803 151.64ZM249.245 151.518C247.984 151.518 247.008 151.193 246.317 150.542C245.666 149.851 245.341 148.875 245.341 147.614V124.556C245.341 123.296 245.666 122.34 246.317 121.689C246.968 121.039 247.883 120.713 249.062 120.713C250.241 120.713 251.156 121.039 251.807 121.689C252.458 122.34 252.783 123.296 252.783 124.556V128.399H252.173C252.742 125.959 253.861 124.109 255.528 122.848C257.195 121.588 259.412 120.835 262.177 120.591C263.031 120.51 263.702 120.734 264.19 121.262C264.719 121.75 265.024 122.523 265.105 123.58C265.186 124.597 264.942 125.431 264.373 126.081C263.844 126.691 263.031 127.057 261.933 127.179L260.591 127.301C258.11 127.545 256.24 128.318 254.979 129.619C253.718 130.88 253.088 132.669 253.088 134.987V147.614C253.088 148.875 252.763 149.851 252.112 150.542C251.461 151.193 250.506 151.518 249.245 151.518ZM273.011 151.518C271.791 151.518 270.855 151.193 270.205 150.542C269.554 149.851 269.229 148.875 269.229 147.614V124.556C269.229 123.296 269.554 122.34 270.205 121.689C270.855 121.039 271.77 120.713 272.95 120.713C274.129 120.713 275.044 121.039 275.695 121.689C276.345 122.34 276.671 123.296 276.671 124.556V128.704L276 127.179C276.894 125.024 278.277 123.397 280.148 122.299C282.059 121.161 284.214 120.591 286.614 120.591C289.013 120.591 290.985 121.039 292.531 121.933C294.076 122.828 295.235 124.19 296.008 126.02C296.78 127.81 297.167 130.087 297.167 132.852V147.614C297.167 148.875 296.841 149.851 296.191 150.542C295.54 151.193 294.605 151.518 293.385 151.518C292.165 151.518 291.209 151.193 290.518 150.542C289.867 149.851 289.542 148.875 289.542 147.614V133.218C289.542 130.9 289.094 129.213 288.2 128.155C287.346 127.098 286.004 126.569 284.174 126.569C281.937 126.569 280.148 127.281 278.806 128.704C277.504 130.087 276.854 131.937 276.854 134.255V147.614C276.854 150.217 275.573 151.518 273.011 151.518ZM308.693 151.457C307.473 151.457 306.538 151.091 305.887 150.359C305.237 149.627 304.911 148.611 304.911 147.309V124.922C304.911 123.58 305.237 122.564 305.887 121.872C306.538 121.14 307.473 120.774 308.693 120.774C309.913 120.774 310.849 121.14 311.499 121.872C312.191 122.564 312.536 123.58 312.536 124.922V147.309C312.536 148.611 312.211 149.627 311.56 150.359C310.91 151.091 309.954 151.457 308.693 151.457ZM308.693 115.101C307.27 115.101 306.152 114.756 305.338 114.064C304.566 113.332 304.179 112.336 304.179 111.075C304.179 109.774 304.566 108.778 305.338 108.086C306.152 107.395 307.27 107.049 308.693 107.049C310.157 107.049 311.276 107.395 312.048 108.086C312.821 108.778 313.207 109.774 313.207 111.075C313.207 112.336 312.821 113.332 312.048 114.064C311.276 114.756 310.157 115.101 308.693 115.101ZM324.241 151.518C323.021 151.518 322.086 151.193 321.435 150.542C320.784 149.851 320.459 148.875 320.459 147.614V124.556C320.459 123.296 320.784 122.34 321.435 121.689C322.086 121.039 323.001 120.713 324.18 120.713C325.359 120.713 326.274 121.039 326.925 121.689C327.576 122.34 327.901 123.296 327.901 124.556V128.704L327.23 127.179C328.125 125.024 329.507 123.397 331.378 122.299C333.289 121.161 335.445 120.591 337.844 120.591C340.243 120.591 342.216 121.039 343.761 121.933C345.306 122.828 346.465 124.19 347.238 126.02C348.011 127.81 348.397 130.087 348.397 132.852V147.614C348.397 148.875 348.072 149.851 347.421 150.542C346.77 151.193 345.835 151.518 344.615 151.518C343.395 151.518 342.439 151.193 341.748 150.542C341.097 149.851 340.772 148.875 340.772 147.614V133.218C340.772 130.9 340.325 129.213 339.43 128.155C338.576 127.098 337.234 126.569 335.404 126.569C333.167 126.569 331.378 127.281 330.036 128.704C328.735 130.087 328.084 131.937 328.084 134.255V147.614C328.084 150.217 326.803 151.518 324.241 151.518ZM370.05 162.62C367.854 162.62 365.719 162.417 363.645 162.01C361.611 161.604 359.761 160.973 358.094 160.119C357.321 159.713 356.792 159.225 356.508 158.655C356.264 158.086 356.182 157.496 356.264 156.886C356.386 156.317 356.63 155.809 356.996 155.361C357.402 154.914 357.89 154.609 358.46 154.446C359.029 154.284 359.619 154.365 360.229 154.69C362.018 155.585 363.706 156.154 365.292 156.398C366.918 156.683 368.301 156.825 369.44 156.825C372.164 156.825 374.198 156.154 375.54 154.812C376.922 153.511 377.614 151.559 377.614 148.956V143.466H378.163C377.553 145.54 376.272 147.208 374.32 148.468C372.408 149.688 370.233 150.298 367.793 150.298C365.109 150.298 362.77 149.688 360.778 148.468C358.785 147.208 357.24 145.459 356.142 143.222C355.044 140.986 354.495 138.383 354.495 135.414C354.495 133.178 354.8 131.165 355.41 129.375C356.06 127.545 356.955 125.98 358.094 124.678C359.273 123.377 360.676 122.381 362.303 121.689C363.97 120.957 365.8 120.591 367.793 120.591C370.314 120.591 372.51 121.222 374.381 122.482C376.292 123.702 377.532 125.329 378.102 127.362L377.492 128.887V124.556C377.492 123.296 377.817 122.34 378.468 121.689C379.159 121.039 380.094 120.713 381.274 120.713C382.494 120.713 383.429 121.039 384.08 121.689C384.73 122.34 385.056 123.296 385.056 124.556V148.041C385.056 152.881 383.775 156.52 381.213 158.96C378.651 161.4 374.93 162.62 370.05 162.62ZM369.867 144.503C371.453 144.503 372.815 144.137 373.954 143.405C375.092 142.673 375.967 141.636 376.577 140.294C377.227 138.912 377.553 137.285 377.553 135.414C377.553 132.608 376.861 130.412 375.479 128.826C374.096 127.2 372.225 126.386 369.867 126.386C368.281 126.386 366.918 126.752 365.78 127.484C364.641 128.216 363.746 129.253 363.096 130.595C362.486 131.937 362.181 133.544 362.181 135.414C362.181 138.22 362.872 140.437 364.255 142.063C365.637 143.69 367.508 144.503 369.867 144.503Z" fill="#CACACA"/>
</svg>
