<svg width="537" height="201" viewBox="0 0 537 201" fill="none" xmlns="http://www.w3.org/2000/svg">
<path d="M2 74.6556V192.821H457.365L518.449 119.842V1.67676H63.0824L2 74.6556Z" fill="#1C2633" fill-opacity="0.7" stroke="#6C818D" stroke-width="2.0487" stroke-miterlimit="10"/>
<path d="M503.712 14.7354H71.6735L14.1741 83.4317V179.809" stroke="#6C818D" stroke-width="2.0487" stroke-miterlimit="10"/>
<path d="M484.523 146.835L453.497 183.904H388.652L376.741 198.135H461.56L485.131 169.974L484.523 146.835Z" fill="#9DB2BF"/>
<path d="M189.195 187.794H393.315L404.959 200.353H200.839L189.195 187.794Z" fill="#9DB2BF"/>
<path d="M188.795 200.354L178.096 187.571H172.192L182.718 200.145L188.795 200.354Z" fill="#6C818D"/>
<path d="M172.195 200.354L161.496 187.571H155.592L166.118 200.145L172.195 200.354Z" fill="#6C818D"/>
<path d="M155.591 200.354L144.892 187.571H138.989L149.515 200.145L155.591 200.354Z" fill="#6C818D"/>
<path d="M138.987 200.354L128.288 187.571H122.385L132.911 200.145L138.987 200.354Z" fill="#6C818D"/>
<path d="M509.75 113.173H527V34.5241H509.75V113.173Z" fill="#9DB2BF"/>
<path d="M481.572 104.205H488.688V68.4562H481.572V104.205Z" fill="#9DB2BF"/>
<path d="M495.659 104.205H502.775V68.4562H495.659V104.205Z" fill="#6C818D"/>
<path d="M82.545 120.327C78.125 120.327 74.2467 119.352 70.91 117.402C67.6167 115.452 65.06 112.722 63.24 109.212C61.42 105.658 60.51 101.498 60.51 96.7318C60.51 93.1351 61.03 89.9068 62.07 87.0468C63.11 84.1434 64.5833 81.6734 66.49 79.6368C68.44 77.5568 70.7583 75.9751 73.445 74.8918C76.175 73.7651 79.2083 73.2018 82.545 73.2018C87.0083 73.2018 90.8867 74.1768 94.18 76.1268C97.4733 78.0334 100.03 80.7418 101.85 84.2518C103.67 87.7618 104.58 91.9001 104.58 96.6668C104.58 100.263 104.06 103.513 103.02 106.417C101.98 109.32 100.485 111.812 98.535 113.892C96.6283 115.972 94.31 117.575 91.58 118.702C88.8933 119.785 85.8817 120.327 82.545 120.327ZM82.545 113.177C85.3617 113.177 87.745 112.527 89.695 111.227C91.6883 109.927 93.205 108.042 94.245 105.572C95.3283 103.102 95.87 100.155 95.87 96.7318C95.87 91.5318 94.7 87.5018 92.36 84.6418C90.0633 81.7818 86.7917 80.3518 82.545 80.3518C79.7717 80.3518 77.3883 81.0018 75.395 82.3018C73.4017 83.5584 71.8633 85.4218 70.78 87.8918C69.74 90.3184 69.22 93.2651 69.22 96.7318C69.22 101.888 70.39 105.918 72.73 108.822C75.07 111.725 78.3417 113.177 82.545 113.177ZM116.29 131.897C114.99 131.897 113.993 131.55 113.3 130.857C112.607 130.163 112.26 129.145 112.26 127.802V91.4668C112.26 90.1234 112.607 89.1051 113.3 88.4118C113.993 87.7184 114.968 87.3718 116.225 87.3718C117.525 87.3718 118.522 87.7184 119.215 88.4118C119.908 89.1051 120.255 90.1234 120.255 91.4668V96.5368L119.54 94.5868C120.19 92.3768 121.512 90.6001 123.505 89.2568C125.542 87.9134 127.903 87.2418 130.59 87.2418C133.363 87.2418 135.79 87.9134 137.87 89.2568C139.993 90.6001 141.64 92.5068 142.81 94.9768C143.98 97.4034 144.565 100.328 144.565 103.752C144.565 107.132 143.98 110.078 142.81 112.592C141.64 115.062 140.015 116.968 137.935 118.312C135.855 119.655 133.407 120.327 130.59 120.327C127.947 120.327 125.628 119.677 123.635 118.377C121.642 117.033 120.298 115.3 119.605 113.177H120.385V127.802C120.385 129.145 120.017 130.163 119.28 130.857C118.587 131.55 117.59 131.897 116.29 131.897ZM128.315 114.152C129.918 114.152 131.327 113.762 132.54 112.982C133.753 112.202 134.685 111.053 135.335 109.537C136.028 107.977 136.375 106.048 136.375 103.752C136.375 100.285 135.638 97.7068 134.165 96.0168C132.692 94.2834 130.742 93.4168 128.315 93.4168C126.712 93.4168 125.303 93.8068 124.09 94.5868C122.877 95.3234 121.923 96.4718 121.23 98.0318C120.58 99.5484 120.255 101.455 120.255 103.752C120.255 107.175 120.992 109.775 122.465 111.552C123.938 113.285 125.888 114.152 128.315 114.152ZM166.9 120.327C163.303 120.327 160.205 119.655 157.605 118.312C155.005 116.968 152.99 115.062 151.56 112.592C150.173 110.122 149.48 107.197 149.48 103.817C149.48 100.523 150.151 97.6418 151.495 95.1718C152.881 92.7018 154.766 90.7734 157.15 89.3868C159.576 87.9568 162.328 87.2418 165.405 87.2418C167.658 87.2418 169.673 87.6101 171.45 88.3468C173.27 89.0834 174.808 90.1451 176.065 91.5318C177.365 92.9184 178.34 94.6084 178.99 96.6018C179.683 98.5518 180.03 100.762 180.03 103.232C180.03 104.012 179.748 104.618 179.185 105.052C178.665 105.442 177.906 105.637 176.91 105.637H156.045V100.957H174.31L173.27 101.932C173.27 99.9384 172.966 98.2701 172.36 96.9268C171.796 95.5834 170.951 94.5651 169.825 93.8718C168.741 93.1351 167.376 92.7668 165.73 92.7668C163.91 92.7668 162.35 93.2001 161.05 94.0668C159.793 94.8901 158.818 96.0818 158.125 97.6418C157.475 99.1584 157.15 100.978 157.15 103.102V103.557C157.15 107.11 157.973 109.775 159.62 111.552C161.31 113.285 163.78 114.152 167.03 114.152C168.156 114.152 169.413 114.022 170.8 113.762C172.23 113.458 173.573 112.96 174.83 112.267C175.74 111.747 176.541 111.53 177.235 111.617C177.928 111.66 178.47 111.898 178.86 112.332C179.293 112.765 179.553 113.307 179.64 113.957C179.726 114.563 179.596 115.192 179.25 115.842C178.946 116.492 178.405 117.055 177.625 117.532C176.108 118.485 174.353 119.2 172.36 119.677C170.41 120.11 168.59 120.327 166.9 120.327ZM190.494 120.197C189.194 120.197 188.198 119.85 187.504 119.157C186.811 118.42 186.464 117.38 186.464 116.037V91.4668C186.464 90.1234 186.811 89.1051 187.504 88.4118C188.198 87.7184 189.173 87.3718 190.429 87.3718C191.686 87.3718 192.661 87.7184 193.354 88.4118C194.048 89.1051 194.394 90.1234 194.394 91.4668V95.8868L193.679 94.2618C194.633 91.9651 196.106 90.2318 198.099 89.0618C200.136 87.8484 202.433 87.2418 204.989 87.2418C207.546 87.2418 209.648 87.7184 211.294 88.6718C212.941 89.6251 214.176 91.0768 214.999 93.0268C215.823 94.9334 216.234 97.3601 216.234 100.307V116.037C216.234 117.38 215.888 118.42 215.194 119.157C214.501 119.85 213.504 120.197 212.204 120.197C210.904 120.197 209.886 119.85 209.149 119.157C208.456 118.42 208.109 117.38 208.109 116.037V100.697C208.109 98.2268 207.633 96.4284 206.679 95.3018C205.769 94.1751 204.339 93.6118 202.389 93.6118C200.006 93.6118 198.099 94.3701 196.669 95.8868C195.283 97.3601 194.589 99.3318 194.589 101.802V116.037C194.589 118.81 193.224 120.197 190.494 120.197ZM247.333 119.677C245.903 119.677 244.798 119.308 244.018 118.572C243.282 117.792 242.913 116.687 242.913 115.257V78.2718C242.913 76.8418 243.282 75.7584 244.018 75.0218C244.798 74.2418 245.903 73.8518 247.333 73.8518H270.538C271.622 73.8518 272.445 74.1334 273.008 74.6968C273.615 75.2601 273.918 76.0618 273.918 77.1018C273.918 78.1851 273.615 79.0301 273.008 79.6368C272.445 80.2001 271.622 80.4818 270.538 80.4818H250.908V93.0918H269.108C270.235 93.0918 271.08 93.3734 271.643 93.9368C272.207 94.5001 272.488 95.3234 272.488 96.4068C272.488 97.4901 272.207 98.3134 271.643 98.8768C271.08 99.4401 270.235 99.7218 269.108 99.7218H250.908V113.047H270.538C271.622 113.047 272.445 113.328 273.008 113.892C273.615 114.455 273.918 115.278 273.918 116.362C273.918 117.445 273.615 118.268 273.008 118.832C272.445 119.395 271.622 119.677 270.538 119.677H247.333ZM293.28 120.197C292.196 120.197 291.243 119.915 290.42 119.352C289.64 118.788 288.99 117.922 288.47 116.752L278.135 92.7668C277.745 91.8134 277.593 90.9251 277.68 90.1018C277.81 89.2784 278.2 88.6284 278.85 88.1518C279.543 87.6318 280.475 87.3718 281.645 87.3718C282.641 87.3718 283.443 87.6101 284.05 88.0868C284.656 88.5201 285.198 89.3651 285.675 90.6218L294.45 112.527H292.5L301.535 90.5568C302.011 89.3434 302.553 88.5201 303.16 88.0868C303.81 87.6101 304.676 87.3718 305.76 87.3718C306.713 87.3718 307.471 87.6318 308.035 88.1518C308.598 88.6284 308.945 89.2784 309.075 90.1018C309.205 90.8818 309.053 91.7484 308.62 92.7018L298.09 116.752C297.613 117.922 296.963 118.788 296.14 119.352C295.36 119.915 294.406 120.197 293.28 120.197ZM329.717 120.327C326.12 120.327 323.022 119.655 320.422 118.312C317.822 116.968 315.807 115.062 314.377 112.592C312.99 110.122 312.297 107.197 312.297 103.817C312.297 100.523 312.969 97.6418 314.312 95.1718C315.699 92.7018 317.584 90.7734 319.967 89.3868C322.394 87.9568 325.145 87.2418 328.222 87.2418C330.475 87.2418 332.49 87.6101 334.267 88.3468C336.087 89.0834 337.625 90.1451 338.882 91.5318C340.182 92.9184 341.157 94.6084 341.807 96.6018C342.5 98.5518 342.847 100.762 342.847 103.232C342.847 104.012 342.565 104.618 342.002 105.052C341.482 105.442 340.724 105.637 339.727 105.637H318.862V100.957H337.127L336.087 101.932C336.087 99.9384 335.784 98.2701 335.177 96.9268C334.614 95.5834 333.769 94.5651 332.642 93.8718C331.559 93.1351 330.194 92.7668 328.547 92.7668C326.727 92.7668 325.167 93.2001 323.867 94.0668C322.61 94.8901 321.635 96.0818 320.942 97.6418C320.292 99.1584 319.967 100.978 319.967 103.102V103.557C319.967 107.11 320.79 109.775 322.437 111.552C324.127 113.285 326.597 114.152 329.847 114.152C330.974 114.152 332.23 114.022 333.617 113.762C335.047 113.458 336.39 112.96 337.647 112.267C338.557 111.747 339.359 111.53 340.052 111.617C340.745 111.66 341.287 111.898 341.677 112.332C342.11 112.765 342.37 113.307 342.457 113.957C342.544 114.563 342.414 115.192 342.067 115.842C341.764 116.492 341.222 117.055 340.442 117.532C338.925 118.485 337.17 119.2 335.177 119.677C333.227 120.11 331.407 120.327 329.717 120.327ZM353.312 120.197C352.012 120.197 351.015 119.85 350.322 119.157C349.628 118.42 349.282 117.38 349.282 116.037V91.4668C349.282 90.1234 349.628 89.1051 350.322 88.4118C351.015 87.7184 351.99 87.3718 353.247 87.3718C354.503 87.3718 355.478 87.7184 356.172 88.4118C356.865 89.1051 357.212 90.1234 357.212 91.4668V95.8868L356.497 94.2618C357.45 91.9651 358.923 90.2318 360.917 89.0618C362.953 87.8484 365.25 87.2418 367.807 87.2418C370.363 87.2418 372.465 87.7184 374.112 88.6718C375.758 89.6251 376.993 91.0768 377.817 93.0268C378.64 94.9334 379.052 97.3601 379.052 100.307V116.037C379.052 117.38 378.705 118.42 378.012 119.157C377.318 119.85 376.322 120.197 375.022 120.197C373.722 120.197 372.703 119.85 371.967 119.157C371.273 118.42 370.927 117.38 370.927 116.037V100.697C370.927 98.2268 370.45 96.4284 369.497 95.3018C368.587 94.1751 367.157 93.6118 365.207 93.6118C362.823 93.6118 360.917 94.3701 359.487 95.8868C358.1 97.3601 357.407 99.3318 357.407 101.802V116.037C357.407 118.81 356.042 120.197 353.312 120.197ZM401.864 120.327C399.047 120.327 396.686 119.85 394.779 118.897C392.916 117.943 391.529 116.557 390.619 114.737C389.709 112.873 389.254 110.577 389.254 107.847V94.0018H385.874C384.834 94.0018 384.032 93.7418 383.469 93.2218C382.906 92.6584 382.624 91.9001 382.624 90.9468C382.624 89.9501 382.906 89.1918 383.469 88.6718C384.032 88.1518 384.834 87.8918 385.874 87.8918H389.254V81.9768C389.254 80.6334 389.601 79.6151 390.294 78.9218C391.031 78.2284 392.049 77.8818 393.349 77.8818C394.649 77.8818 395.646 78.2284 396.339 78.9218C397.032 79.6151 397.379 80.6334 397.379 81.9768V87.8918H404.269C405.309 87.8918 406.111 88.1518 406.674 88.6718C407.237 89.1918 407.519 89.9501 407.519 90.9468C407.519 91.9001 407.237 92.6584 406.674 93.2218C406.111 93.7418 405.309 94.0018 404.269 94.0018H397.379V107.392C397.379 109.472 397.834 111.032 398.744 112.072C399.654 113.112 401.127 113.632 403.164 113.632C403.901 113.632 404.551 113.567 405.114 113.437C405.677 113.307 406.176 113.22 406.609 113.177C407.129 113.133 407.562 113.307 407.909 113.697C408.256 114.043 408.429 114.78 408.429 115.907C408.429 116.773 408.277 117.553 407.974 118.247C407.714 118.897 407.216 119.352 406.479 119.612C405.916 119.785 405.179 119.937 404.269 120.067C403.359 120.24 402.557 120.327 401.864 120.327ZM423.885 120.327C422.022 120.327 420.05 120.132 417.97 119.742C415.89 119.352 414.027 118.68 412.38 117.727C411.687 117.293 411.189 116.795 410.885 116.232C410.625 115.625 410.517 115.04 410.56 114.477C410.647 113.87 410.864 113.35 411.21 112.917C411.6 112.483 412.077 112.202 412.64 112.072C413.247 111.942 413.897 112.05 414.59 112.397C416.324 113.22 417.949 113.805 419.465 114.152C420.982 114.455 422.477 114.607 423.95 114.607C426.03 114.607 427.569 114.26 428.565 113.567C429.605 112.83 430.125 111.877 430.125 110.707C430.125 109.71 429.779 108.952 429.085 108.432C428.435 107.868 427.439 107.457 426.095 107.197L419.595 105.962C416.909 105.442 414.85 104.467 413.42 103.037C412.034 101.563 411.34 99.6784 411.34 97.3818C411.34 95.3018 411.904 93.5034 413.03 91.9868C414.2 90.4701 415.804 89.3001 417.84 88.4768C419.877 87.6534 422.217 87.2418 424.86 87.2418C426.767 87.2418 428.544 87.4584 430.19 87.8918C431.88 88.2818 433.505 88.9101 435.065 89.7768C435.715 90.1234 436.149 90.5784 436.365 91.1418C436.625 91.7051 436.69 92.2901 436.56 92.8968C436.43 93.4601 436.17 93.9801 435.78 94.4568C435.39 94.8901 434.892 95.1718 434.285 95.3018C433.722 95.3884 433.072 95.2584 432.335 94.9118C430.992 94.2184 429.692 93.7201 428.435 93.4168C427.222 93.1134 426.052 92.9618 424.925 92.9618C422.802 92.9618 421.22 93.3301 420.18 94.0668C419.184 94.8034 418.685 95.7784 418.685 96.9918C418.685 97.9018 418.989 98.6601 419.595 99.2668C420.202 99.8734 421.134 100.285 422.39 100.502L428.89 101.737C431.707 102.257 433.83 103.21 435.26 104.597C436.734 105.983 437.47 107.847 437.47 110.187C437.47 113.35 436.235 115.842 433.765 117.662C431.295 119.438 428.002 120.327 423.885 120.327Z" fill="#CACACA"/>
</svg>
