<svg width="527" height="201" viewBox="0 0 527 201" fill="none" xmlns="http://www.w3.org/2000/svg">
<path d="M1.87427 74.3324V192.498H457.24L518.324 119.519V1.35352H62.9566L1.87427 74.3324Z" fill="#1C2633" fill-opacity="0.7" stroke="#6C818D" stroke-width="2.0487" stroke-miterlimit="10"/>
<path d="M503.587 14.4121H71.5481L14.0486 83.1085V179.486" stroke="#6C818D" stroke-width="2.0487" stroke-miterlimit="10"/>
<path d="M484.397 146.512L453.371 183.581H388.527L376.615 197.812H461.434L485.006 169.65L484.397 146.512Z" fill="#9DB2BF"/>
<path d="M189.07 187.471H393.189L404.834 200.029H200.714L189.07 187.471Z" fill="#9DB2BF"/>
<path d="M188.669 200.031L177.97 187.248H172.067L182.593 199.822L188.669 200.031Z" fill="#6C818D"/>
<path d="M172.07 200.031L161.371 187.248H155.467L165.993 199.822L172.07 200.031Z" fill="#6C818D"/>
<path d="M155.466 200.031L144.767 187.248H138.863L149.389 199.822L155.466 200.031Z" fill="#6C818D"/>
<path d="M138.862 200.031L128.163 187.248H122.259L132.785 199.822L138.862 200.031Z" fill="#6C818D"/>
<path d="M509.624 112.85H526.874V34.2009H509.624V112.85Z" fill="#9DB2BF"/>
<path d="M481.446 103.882H488.562V68.133H481.446V103.882Z" fill="#9DB2BF"/>
<path d="M495.533 103.882H502.649V68.133H495.533V103.882Z" fill="#6C818D"/>
<path d="M139.039 119.874C137.696 119.874 136.656 119.505 135.919 118.769C135.226 117.989 134.879 116.927 134.879 115.584V77.7535C134.879 76.3668 135.248 75.3268 135.984 74.6335C136.721 73.8968 137.761 73.5285 139.104 73.5285H154.769C159.796 73.5285 163.674 74.7418 166.404 77.1685C169.134 79.5518 170.499 82.9102 170.499 87.2435C170.499 90.0602 169.871 92.4868 168.614 94.5235C167.401 96.5602 165.624 98.1202 163.284 99.2035C160.944 100.287 158.106 100.829 154.769 100.829L155.354 99.8535H157.499C159.276 99.8535 160.814 100.287 162.114 101.154C163.458 102.02 164.628 103.385 165.624 105.249L170.499 114.284C171.019 115.194 171.258 116.082 171.214 116.949C171.171 117.815 170.846 118.53 170.239 119.094C169.633 119.614 168.744 119.874 167.574 119.874C166.404 119.874 165.451 119.635 164.714 119.159C163.978 118.639 163.328 117.859 162.764 116.819L156.199 104.729C155.419 103.255 154.488 102.28 153.404 101.804C152.364 101.284 151.021 101.024 149.374 101.024H143.199V115.584C143.199 116.927 142.853 117.989 142.159 118.769C141.466 119.505 140.426 119.874 139.039 119.874ZM143.199 94.8485H153.339C156.329 94.8485 158.583 94.2418 160.099 93.0285C161.659 91.7718 162.439 89.9085 162.439 87.4385C162.439 85.0118 161.659 83.1918 160.099 81.9785C158.583 80.7218 156.329 80.0935 153.339 80.0935H143.199V94.8485ZM192.33 120.004C189.036 120.004 186.176 119.332 183.75 117.989C181.323 116.645 179.438 114.739 178.095 112.269C176.751 109.755 176.08 106.809 176.08 103.429C176.08 100.872 176.448 98.5968 177.185 96.6035C177.965 94.5668 179.07 92.8335 180.5 91.4035C181.93 89.9302 183.641 88.8252 185.635 88.0885C187.628 87.3085 189.86 86.9185 192.33 86.9185C195.623 86.9185 198.483 87.5902 200.91 88.9335C203.336 90.2768 205.221 92.1835 206.565 94.6535C207.908 97.1235 208.58 100.049 208.58 103.429C208.58 105.985 208.19 108.282 207.41 110.319C206.673 112.355 205.59 114.11 204.16 115.584C202.73 117.014 201.018 118.119 199.025 118.899C197.031 119.635 194.8 120.004 192.33 120.004ZM192.33 113.829C193.933 113.829 195.341 113.439 196.555 112.659C197.768 111.879 198.7 110.73 199.35 109.214C200.043 107.654 200.39 105.725 200.39 103.429C200.39 99.9618 199.653 97.3835 198.18 95.6935C196.706 93.9602 194.756 93.0935 192.33 93.0935C190.726 93.0935 189.318 93.4835 188.105 94.2635C186.891 95.0002 185.938 96.1485 185.245 97.7085C184.595 99.2252 184.27 101.132 184.27 103.429C184.27 106.852 185.006 109.452 186.48 111.229C187.953 112.962 189.903 113.829 192.33 113.829ZM233.616 120.004C230.929 120.004 228.567 119.332 226.531 117.989C224.537 116.645 223.216 114.847 222.566 112.594L223.281 110.969V115.714C223.281 117.057 222.934 118.097 222.241 118.834C221.547 119.527 220.572 119.874 219.316 119.874C218.016 119.874 217.019 119.527 216.326 118.834C215.632 118.097 215.286 117.057 215.286 115.714V77.1035C215.286 75.7602 215.632 74.7418 216.326 74.0485C217.019 73.3552 218.016 73.0085 219.316 73.0085C220.616 73.0085 221.612 73.3552 222.306 74.0485C223.042 74.7418 223.411 75.7602 223.411 77.1035V94.0035H222.631C223.324 91.8802 224.667 90.1685 226.661 88.8685C228.654 87.5685 230.972 86.9185 233.616 86.9185C236.432 86.9185 238.881 87.5902 240.961 88.9335C243.041 90.2768 244.666 92.1835 245.836 94.6535C247.006 97.0802 247.591 100.005 247.591 103.429C247.591 106.809 247.006 109.755 245.836 112.269C244.666 114.739 243.019 116.645 240.896 117.989C238.816 119.332 236.389 120.004 233.616 120.004ZM231.341 113.829C232.944 113.829 234.352 113.439 235.566 112.659C236.779 111.879 237.711 110.73 238.361 109.214C239.054 107.654 239.401 105.725 239.401 103.429C239.401 99.9618 238.664 97.3835 237.191 95.6935C235.717 93.9602 233.767 93.0935 231.341 93.0935C229.737 93.0935 228.329 93.4835 227.116 94.2635C225.902 95.0002 224.949 96.1485 224.256 97.7085C223.606 99.2252 223.281 101.132 223.281 103.429C223.281 106.852 224.017 109.452 225.491 111.229C226.964 112.962 228.914 113.829 231.341 113.829ZM268.755 120.004C265.462 120.004 262.602 119.332 260.175 117.989C257.749 116.645 255.864 114.739 254.52 112.269C253.177 109.755 252.505 106.809 252.505 103.429C252.505 100.872 252.874 98.5968 253.61 96.6035C254.39 94.5668 255.495 92.8335 256.925 91.4035C258.355 89.9302 260.067 88.8252 262.06 88.0885C264.054 87.3085 266.285 86.9185 268.755 86.9185C272.049 86.9185 274.909 87.5902 277.335 88.9335C279.762 90.2768 281.647 92.1835 282.99 94.6535C284.334 97.1235 285.005 100.049 285.005 103.429C285.005 105.985 284.615 108.282 283.835 110.319C283.099 112.355 282.015 114.11 280.585 115.584C279.155 117.014 277.444 118.119 275.45 118.899C273.457 119.635 271.225 120.004 268.755 120.004ZM268.755 113.829C270.359 113.829 271.767 113.439 272.98 112.659C274.194 111.879 275.125 110.73 275.775 109.214C276.469 107.654 276.815 105.725 276.815 103.429C276.815 99.9618 276.079 97.3835 274.605 95.6935C273.132 93.9602 271.182 93.0935 268.755 93.0935C267.152 93.0935 265.744 93.4835 264.53 94.2635C263.317 95.0002 262.364 96.1485 261.67 97.7085C261.02 99.2252 260.695 101.132 260.695 103.429C260.695 106.852 261.432 109.452 262.905 111.229C264.379 112.962 266.329 113.829 268.755 113.829ZM305.954 120.004C303.138 120.004 300.776 119.527 298.869 118.574C297.006 117.62 295.619 116.234 294.709 114.414C293.799 112.55 293.344 110.254 293.344 107.524V93.6785H289.964C288.924 93.6785 288.123 93.4185 287.559 92.8985C286.996 92.3352 286.714 91.5768 286.714 90.6235C286.714 89.6268 286.996 88.8685 287.559 88.3485C288.123 87.8285 288.924 87.5685 289.964 87.5685H293.344V81.6535C293.344 80.3102 293.691 79.2918 294.384 78.5985C295.121 77.9052 296.139 77.5585 297.439 77.5585C298.739 77.5585 299.736 77.9052 300.429 78.5985C301.123 79.2918 301.469 80.3102 301.469 81.6535V87.5685H308.359C309.399 87.5685 310.201 87.8285 310.764 88.3485C311.328 88.8685 311.609 89.6268 311.609 90.6235C311.609 91.5768 311.328 92.3352 310.764 92.8985C310.201 93.4185 309.399 93.6785 308.359 93.6785H301.469V107.069C301.469 109.149 301.924 110.709 302.834 111.749C303.744 112.789 305.218 113.309 307.254 113.309C307.991 113.309 308.641 113.244 309.204 113.114C309.768 112.984 310.266 112.897 310.699 112.854C311.219 112.81 311.653 112.984 311.999 113.374C312.346 113.72 312.519 114.457 312.519 115.584C312.519 116.45 312.368 117.23 312.064 117.924C311.804 118.574 311.306 119.029 310.569 119.289C310.006 119.462 309.269 119.614 308.359 119.744C307.449 119.917 306.648 120.004 305.954 120.004ZM321.196 119.809C319.896 119.809 318.899 119.419 318.206 118.639C317.512 117.859 317.166 116.775 317.166 115.389V91.5335C317.166 90.1035 317.512 89.0202 318.206 88.2835C318.899 87.5035 319.896 87.1135 321.196 87.1135C322.496 87.1135 323.492 87.5035 324.186 88.2835C324.922 89.0202 325.291 90.1035 325.291 91.5335V115.389C325.291 116.775 324.944 117.859 324.251 118.639C323.557 119.419 322.539 119.809 321.196 119.809ZM321.196 81.0685C319.679 81.0685 318.487 80.7002 317.621 79.9635C316.797 79.1835 316.386 78.1218 316.386 76.7785C316.386 75.3918 316.797 74.3302 317.621 73.5935C318.487 72.8568 319.679 72.4885 321.196 72.4885C322.756 72.4885 323.947 72.8568 324.771 73.5935C325.594 74.3302 326.006 75.3918 326.006 76.7785C326.006 78.1218 325.594 79.1835 324.771 79.9635C323.947 80.7002 322.756 81.0685 321.196 81.0685ZM348.423 120.004C345.086 120.004 342.183 119.332 339.713 117.989C337.243 116.602 335.336 114.652 333.993 112.139C332.65 109.625 331.978 106.679 331.978 103.299C331.978 100.742 332.346 98.4668 333.083 96.4735C333.863 94.4368 334.968 92.7252 336.398 91.3385C337.828 89.9085 339.561 88.8252 341.598 88.0885C343.635 87.3085 345.91 86.9185 348.423 86.9185C349.853 86.9185 351.391 87.1135 353.038 87.5035C354.728 87.8935 356.31 88.5435 357.783 89.4535C358.476 89.8868 358.931 90.4068 359.148 91.0135C359.365 91.6202 359.408 92.2485 359.278 92.8985C359.148 93.5052 358.866 94.0468 358.433 94.5235C358.043 94.9568 357.545 95.2385 356.938 95.3685C356.331 95.4552 355.66 95.3035 354.923 94.9135C353.97 94.3502 352.995 93.9385 351.998 93.6785C351.001 93.3752 350.048 93.2235 349.138 93.2235C347.708 93.2235 346.451 93.4618 345.368 93.9385C344.285 94.3718 343.353 95.0218 342.573 95.8885C341.836 96.7118 341.273 97.7518 340.883 99.0085C340.493 100.265 340.298 101.717 340.298 103.364C340.298 106.57 341.056 109.105 342.573 110.969C344.133 112.789 346.321 113.699 349.138 113.699C350.048 113.699 350.98 113.569 351.933 113.309C352.93 113.049 353.926 112.637 354.923 112.074C355.66 111.684 356.31 111.554 356.873 111.684C357.48 111.814 357.978 112.117 358.368 112.594C358.758 113.027 358.996 113.569 359.083 114.219C359.17 114.825 359.083 115.432 358.823 116.039C358.606 116.645 358.173 117.144 357.523 117.534C356.093 118.4 354.576 119.029 352.973 119.419C351.37 119.809 349.853 120.004 348.423 120.004ZM376.027 120.004C374.164 120.004 372.192 119.809 370.112 119.419C368.032 119.029 366.169 118.357 364.522 117.404C363.829 116.97 363.331 116.472 363.027 115.909C362.767 115.302 362.659 114.717 362.702 114.154C362.789 113.547 363.006 113.027 363.352 112.594C363.742 112.16 364.219 111.879 364.782 111.749C365.389 111.619 366.039 111.727 366.732 112.074C368.466 112.897 370.091 113.482 371.607 113.829C373.124 114.132 374.619 114.284 376.092 114.284C378.172 114.284 379.711 113.937 380.707 113.244C381.747 112.507 382.267 111.554 382.267 110.384C382.267 109.387 381.921 108.629 381.227 108.109C380.577 107.545 379.581 107.134 378.237 106.874L371.737 105.639C369.051 105.119 366.992 104.144 365.562 102.714C364.176 101.24 363.482 99.3552 363.482 97.0585C363.482 94.9785 364.046 93.1802 365.172 91.6635C366.342 90.1468 367.946 88.9768 369.982 88.1535C372.019 87.3302 374.359 86.9185 377.002 86.9185C378.909 86.9185 380.686 87.1352 382.332 87.5685C384.022 87.9585 385.647 88.5868 387.207 89.4535C387.857 89.8002 388.291 90.2552 388.507 90.8185C388.767 91.3818 388.832 91.9668 388.702 92.5735C388.572 93.1368 388.312 93.6568 387.922 94.1335C387.532 94.5668 387.034 94.8485 386.427 94.9785C385.864 95.0652 385.214 94.9352 384.477 94.5885C383.134 93.8952 381.834 93.3968 380.577 93.0935C379.364 92.7902 378.194 92.6385 377.067 92.6385C374.944 92.6385 373.362 93.0068 372.322 93.7435C371.326 94.4802 370.827 95.4552 370.827 96.6685C370.827 97.5785 371.131 98.3368 371.737 98.9435C372.344 99.5502 373.276 99.9618 374.532 100.179L381.032 101.414C383.849 101.934 385.972 102.887 387.402 104.274C388.876 105.66 389.612 107.524 389.612 109.864C389.612 113.027 388.377 115.519 385.907 117.339C383.437 119.115 380.144 120.004 376.027 120.004Z" fill="#CACACA"/>
</svg>
