<svg width="208" height="68" viewBox="0 0 208 68" fill="none" xmlns="http://www.w3.org/2000/svg">
<path d="M2 25.9153V64.6382H180.282L204.197 40.7229V2H25.9146L2 25.9153Z" fill="#1C2633" fill-opacity="0.7" stroke="#6C818D" stroke-width="2.0487" stroke-miterlimit="10"/>
<path d="M198.427 6.2793H29.2775L6.76562 28.7912V60.3743" stroke="#6C818D" stroke-width="2.0487" stroke-miterlimit="10"/>
<path d="M190.915 49.5684L178.768 61.716H153.38L148.717 66.3795H181.925L191.153 57.1509L190.915 49.5684Z" fill="#9DB2BF"/>
<path d="M75.2891 62.9912H155.205L159.764 67.1067H79.8479L75.2891 62.9912Z" fill="#9DB2BF"/>
<path d="M75.133 67.1068L70.9442 62.918H68.6328L72.7539 67.0384L75.133 67.1068Z" fill="#6C818D"/>
<path d="M68.633 67.1068L64.4442 62.918H62.1328L66.2539 67.0384L68.633 67.1068Z" fill="#6C818D"/>
<path d="M62.133 67.1068L57.9442 62.918H55.6328L59.7539 67.0384L62.133 67.1068Z" fill="#6C818D"/>
<path d="M55.633 67.1068L51.4442 62.918H49.1328L53.2539 67.0384L55.633 67.1068Z" fill="#6C818D"/>
<path d="M200.791 38.5371H207.545V12.7638H200.791V38.5371Z" fill="#9DB2BF"/>
<path d="M189.759 35.5986H192.545V23.8837H189.759V35.5986Z" fill="#9DB2BF"/>
<path d="M195.274 35.5986H198.061V23.8837H195.274V35.5986Z" fill="#6C818D"/>
<path d="M47.8975 37.8037C46.1266 37.8037 44.8096 37.2393 43.9463 36.1104C43.4261 35.4352 43.166 34.6715 43.166 33.8193C43.166 32.6683 43.5977 31.7109 44.4609 30.9473C45.3353 30.1836 46.4808 29.8018 47.8975 29.8018H56.8623L56.0156 32.6074H47.9307C47.2555 32.6074 46.8073 32.8564 46.5859 33.3545C46.5195 33.5094 46.4863 33.6644 46.4863 33.8193C46.4863 34.2952 46.7188 34.6439 47.1836 34.8652C47.4049 34.9648 47.654 35.0146 47.9307 35.0146H52.4795C54.1729 35.0146 55.4567 35.557 56.3311 36.6416C56.8844 37.3389 57.1611 38.1302 57.1611 39.0156C57.1611 40.1667 56.7295 41.1185 55.8662 41.8711C55.0029 42.6237 53.874 43 52.4795 43H43.166L44.0127 40.1943H52.4463C53.1325 40.1943 53.5807 39.9508 53.791 39.4639C53.8574 39.32 53.8906 39.1706 53.8906 39.0156C53.8906 38.5397 53.6693 38.1911 53.2266 37.9697C52.9941 37.859 52.734 37.8037 52.4463 37.8037H47.8975ZM63.6357 29.8018H72.1025L71.2559 32.6074H64.0176C63.0658 32.6074 62.3408 33.1387 61.8428 34.2012C61.5329 34.8874 61.3779 35.651 61.3779 36.4922C61.3779 37.7982 61.71 38.7998 62.374 39.4971C62.8278 39.9619 63.3757 40.1943 64.0176 40.1943H72.1025L71.2559 43H63.6357C61.8317 43 60.4095 42.2474 59.3691 40.7422C58.4948 39.4915 58.0576 38.0085 58.0576 36.293C58.0576 34.4779 58.5391 32.9616 59.502 31.7441C60.5312 30.4603 61.9092 29.8128 63.6357 29.8018ZM73.4805 30.3164L76.6182 29.4697V35.3467H83.5244V29.8018H86.6621V43H83.5244V38.1523H76.6182V43H73.4805V30.3164ZM92.3564 37.8203V40.1943H101.985L101.139 43H89.2188V29.8018H101.985L101.139 32.6074H92.3564V35.0146H100.541V37.8203H92.3564ZM103.861 34.5664L106.999 33.7197V40.1943H111.946C112.898 40.1943 113.618 39.6686 114.104 38.6172C114.425 37.9421 114.586 37.1784 114.586 36.3262C114.586 35.0202 114.259 34.0186 113.606 33.3213C113.153 32.8454 112.599 32.6074 111.946 32.6074H103.861L104.708 29.8018H112.328C114.121 29.8018 115.543 30.5544 116.595 32.0596C117.469 33.3213 117.906 34.8099 117.906 36.5254C117.906 38.3516 117.419 39.8678 116.445 41.0742C115.416 42.347 114.044 42.9889 112.328 43H103.861V34.5664ZM130.125 37.7705V29.8018H133.263V37.7705C133.263 39.9951 132.267 41.5667 130.274 42.4854C129.112 43.0166 127.707 43.2822 126.058 43.2822C123.612 43.2822 121.763 42.668 120.513 41.4395C119.55 40.4876 119.068 39.2646 119.068 37.7705V30.3164L122.223 29.4697V37.7705C122.223 38.999 122.782 39.7904 123.899 40.1445C124.486 40.3327 125.255 40.4268 126.207 40.4268C128.277 40.4268 129.522 39.901 129.942 38.8496C130.064 38.5286 130.125 38.1689 130.125 37.7705ZM135.404 29.8018H138.542V40.1943H147.822L146.976 43C146.976 43 143.118 43 135.404 43C135.404 43 135.404 38.6006 135.404 29.8018ZM152.321 37.8203V40.1943H161.95L161.104 43H149.184V29.8018H161.95L161.104 32.6074H152.321V35.0146H160.506V37.8203H152.321Z" fill="#AEC8D8"/>
</svg>
