<svg width="745" height="112" viewBox="0 0 745 112" fill="none" xmlns="http://www.w3.org/2000/svg">
<g style="mix-blend-mode:plus-lighter">
<path d="M58.2353 52.216V59.053L62.0513 60.484V53.647L58.2353 52.216ZM52.5113 52.216V59.053L56.3273 60.484V53.647L52.5113 52.216ZM0.836277 95.464V74.158H9.74028V80.677C8.78628 80.995 8.30928 81.631 8.30928 82.585C8.30928 83.221 8.52128 83.751 8.94528 84.175C9.47528 84.599 10.0053 84.811 10.5353 84.811C11.1713 84.811 11.7013 84.599 12.1253 84.175C12.5493 83.751 12.7613 83.221 12.7613 82.585C12.7613 81.631 12.3373 80.995 11.4893 80.677V74.158H20.3933V90.694H10.3763L10.0583 91.012L7.03728 95.464H0.836277ZM67.6163 63.187H75.4073V66.685H69.5243L69.0473 67.48L66.3443 71.455H55.8503V67.957H64.2773L64.5953 67.48L67.6163 63.187ZM31.2053 22.006L29.1383 24.073L22.1423 31.069H9.74028V38.224C8.78628 38.648 8.30928 39.337 8.30928 40.291C8.30928 40.821 8.52128 41.351 8.94528 41.881C9.47528 42.305 10.0053 42.517 10.5353 42.517C10.9593 42.517 11.3303 42.411 11.6483 42.199C12.0723 41.987 12.3373 41.722 12.4433 41.404C12.6553 40.98 12.7613 40.609 12.7613 40.291C12.7613 39.337 12.3373 38.648 11.4893 38.224V32.818H20.3933V46.651H75.4073V61.279H66.6623L66.3443 61.756L63.3233 66.049H0.836277V57.304H20.2343C20.5523 58.152 21.2413 58.576 22.3013 58.576C22.8313 58.576 23.3083 58.364 23.7323 57.94C24.2623 57.516 24.5273 56.986 24.5273 56.35C24.5273 55.926 24.3683 55.555 24.0503 55.237C23.8383 54.919 23.5733 54.654 23.2553 54.442C22.9373 54.23 22.6193 54.124 22.3013 54.124C21.2413 54.124 20.5523 54.548 20.2343 55.396H0.836277V24.709L24.8453 0.699992H75.4073V9.60399H60.7793C60.3553 8.64999 59.6663 8.17299 58.7123 8.17299C58.1823 8.17299 57.6523 8.43799 57.1223 8.968C56.6983 9.39199 56.4863 9.86899 56.4863 10.399C56.4863 10.823 56.5923 11.247 56.8043 11.671C57.0163 11.989 57.2813 12.254 57.5993 12.466C57.9173 12.572 58.2883 12.625 58.7123 12.625C59.6663 12.625 60.3553 12.201 60.7793 11.353H75.4073V20.257H32.9543L31.2053 22.006ZM60.7793 90.694H55.8503V82.267H60.7793V90.694ZM20.3933 92.443H62.6873V80.518H55.8503V75.112H68.2523L68.7293 74.317L71.4323 70.342H75.4073V101.347H60.1433C59.8253 100.499 59.1893 100.075 58.2353 100.075C57.5993 100.075 57.0693 100.287 56.6453 100.711C56.2213 101.135 56.0093 101.665 56.0093 102.301C56.0093 102.831 56.2213 103.361 56.6453 103.891C57.0693 104.315 57.5993 104.527 58.2353 104.527C59.1893 104.527 59.8253 104.05 60.1433 103.096H75.4073V112H0.836277V97.372H7.99128L8.30928 96.895L11.3303 92.443H20.3933ZM75.4073 22.006V38.542H55.8503V22.006H64.7543V28.366C63.9063 28.79 63.4823 29.479 63.4823 30.433C63.4823 30.963 63.6943 31.493 64.1183 32.023C64.5423 32.447 65.0723 32.659 65.7083 32.659C66.0263 32.659 66.3443 32.553 66.6623 32.341C67.0863 32.129 67.4043 31.864 67.6163 31.546C67.8283 31.122 67.9343 30.751 67.9343 30.433C67.9343 29.479 67.5103 28.79 66.6623 28.366V22.006H75.4073ZM151.309 35.362L147.493 34.09V40.768L151.309 42.199V35.362ZM145.585 35.362L141.769 34.09V40.768L145.585 42.199V35.362ZM155.125 24.391H159.1V112H150.196V92.443C151.15 92.125 151.627 91.489 151.627 90.535C151.627 89.899 151.362 89.369 150.832 88.945C150.408 88.521 149.931 88.309 149.401 88.309C148.977 88.309 148.553 88.415 148.129 88.627C147.811 88.839 147.546 89.104 147.334 89.422C147.228 89.74 147.175 90.111 147.175 90.535C147.175 91.489 147.599 92.125 148.447 92.443V112H139.543V29.32H151.945L152.422 28.525L155.125 24.391ZM151.309 17.236H159.1V20.734H153.217L152.74 21.529L150.037 25.663H139.543V22.006H147.97L148.288 21.688L151.309 17.236ZM104.086 90.694H98.9977V52.852L104.086 50.944V90.694ZM95.1817 32.818H104.086V48.877L97.7257 51.262L97.0897 51.58V92.443H137.794V101.347H121.576C121.258 100.499 120.622 100.075 119.668 100.075C119.35 100.075 119.032 100.128 118.714 100.234C118.502 100.34 118.29 100.499 118.078 100.711C117.866 100.923 117.707 101.188 117.601 101.506C117.495 101.718 117.442 101.983 117.442 102.301C117.442 102.831 117.654 103.361 118.078 103.891C118.502 104.315 119.032 104.527 119.668 104.527C120.622 104.527 121.258 104.05 121.576 103.096H137.794V112H84.5287V24.709L97.8847 11.353H116.011C116.435 12.201 117.124 12.625 118.078 12.625C118.714 12.625 119.244 12.413 119.668 11.989C120.092 11.565 120.304 11.088 120.304 10.558C120.304 9.92199 120.092 9.39199 119.668 8.968C119.244 8.43799 118.714 8.17299 118.078 8.17299C117.124 8.17299 116.435 8.64999 116.011 9.60399H99.7927L105.676 3.56199L108.538 0.699992H159.1V15.328H150.355L150.037 15.805L147.016 20.257H116.647L105.835 31.069H93.4327V41.722C92.4787 42.04 92.0017 42.729 92.0017 43.789C92.0017 44.319 92.2137 44.849 92.6377 45.379C93.1677 45.803 93.6977 46.015 94.2277 46.015C94.8637 46.015 95.3937 45.803 95.8177 45.379C96.2417 44.849 96.4537 44.319 96.4537 43.789C96.4537 42.729 96.0297 42.04 95.1817 41.722V32.818ZM179.987 7.37799L176.171 6.106V12.784L179.987 14.215V7.37799ZM174.263 7.37799L170.447 6.106V12.784L174.263 14.215V7.37799ZM182.849 32.818H187.778V74.158H182.849V32.818ZM179.828 85.288H187.778V88.786H181.895L181.418 89.581L178.556 93.715H168.221V90.058H176.648L176.966 89.74L179.828 85.288ZM220.373 82.744L221.486 81.631L223.235 79.882V64.936H232.139V71.296C231.291 71.614 230.867 72.25 230.867 73.204C230.867 73.84 231.079 74.37 231.503 74.794C231.927 75.218 232.457 75.43 233.093 75.43C233.729 75.43 234.259 75.218 234.683 74.794C235.107 74.37 235.319 73.84 235.319 73.204C235.319 72.25 234.842 71.614 233.888 71.296V64.936H242.792V87.991L218.783 112H168.221V103.096H187.778C188.202 104.05 188.891 104.527 189.845 104.527C190.163 104.527 190.481 104.421 190.799 104.209C191.117 103.997 191.382 103.732 191.594 103.414C191.912 102.99 192.071 102.619 192.071 102.301C192.071 101.665 191.806 101.135 191.276 100.711C190.852 100.287 190.375 100.075 189.845 100.075C188.891 100.075 188.202 100.499 187.778 101.347H168.221V97.213H180.623L181.1 96.418L183.803 92.443H222.44C222.864 93.397 223.553 93.874 224.507 93.874C225.143 93.874 225.673 93.662 226.097 93.238C226.521 92.708 226.733 92.178 226.733 91.648C226.733 91.012 226.521 90.482 226.097 90.058C225.673 89.634 225.143 89.422 224.507 89.422C223.553 89.422 222.864 89.846 222.44 90.694H212.423L220.373 82.744ZM168.221 88.309V0.699992H187.778V31.069H181.1V76.066H187.778V83.38H178.874L178.715 83.857L175.694 88.309H168.221ZM269.244 71.137L265.428 69.706V76.543L269.244 77.974V71.137ZM263.52 71.137L259.704 69.706V76.543L263.52 77.974V71.137ZM263.52 85.288H271.47V88.786H265.587L264.951 89.581L262.248 93.715H251.913V90.058H260.34L260.658 89.74L263.52 85.288ZM296.115 90.694L305.178 81.631H317.739V69.706C318.587 69.282 319.011 68.593 319.011 67.639C319.011 67.109 318.746 66.632 318.216 66.208C317.792 65.678 317.315 65.413 316.785 65.413C316.361 65.413 315.937 65.519 315.513 65.731C315.195 65.943 314.93 66.208 314.718 66.526C314.612 66.844 314.559 67.215 314.559 67.639C314.559 68.593 314.983 69.282 315.831 69.706V79.882H306.927V0.699992H315.831V16.282C314.983 16.6 314.559 17.236 314.559 18.19C314.559 18.826 314.771 19.356 315.195 19.78C315.619 20.204 316.096 20.416 316.626 20.416C317.262 20.416 317.792 20.204 318.216 19.78C318.746 19.356 319.011 18.826 319.011 18.19C319.011 17.236 318.587 16.6 317.739 16.282V0.699992H326.484V87.991L302.475 112H251.913V103.096H271.629C272.053 104.05 272.742 104.527 273.696 104.527C274.226 104.527 274.703 104.315 275.127 103.891C275.657 103.361 275.922 102.831 275.922 102.301C275.922 101.665 275.657 101.135 275.127 100.711C274.703 100.287 274.226 100.075 273.696 100.075C272.742 100.075 272.053 100.499 271.629 101.347H251.913V97.372H264.315L264.792 96.418L267.495 92.443H294.366L296.115 90.694ZM251.913 88.309V0.699992H260.817V38.383C259.863 38.807 259.386 39.496 259.386 40.45C259.386 40.768 259.492 41.139 259.704 41.563C259.916 41.881 260.181 42.146 260.499 42.358C260.923 42.57 261.294 42.676 261.612 42.676C261.93 42.676 262.195 42.623 262.407 42.517C262.725 42.411 262.99 42.252 263.202 42.04C263.414 41.828 263.573 41.616 263.679 41.404C263.785 41.086 263.838 40.768 263.838 40.45C263.838 39.496 263.414 38.807 262.566 38.383V0.699992H271.47V83.38H262.566L262.407 83.857L259.386 88.309H251.913ZM373.607 30.433H363.113V26.776H371.54L371.858 26.458L374.879 22.006H382.67V25.663H376.787L376.31 26.458L373.607 30.433ZM357.23 5.94699V12.784L361.046 14.056V7.37799L357.23 5.94699ZM351.506 5.94699V12.784L355.322 14.056V7.37799L351.506 5.94699ZM335.606 15.646C336.454 14.798 341.436 9.816 350.552 0.699992H410.177V9.60399H396.662C396.238 8.64999 395.549 8.17299 394.595 8.17299C393.959 8.17299 393.429 8.43799 393.005 8.968C392.581 9.39199 392.369 9.92199 392.369 10.558C392.369 11.088 392.581 11.565 393.005 11.989C393.429 12.413 393.959 12.625 394.595 12.625C395.549 12.625 396.238 12.201 396.662 11.353H410.177V38.542H401.273V27.253C402.227 26.829 402.704 26.14 402.704 25.186C402.704 24.656 402.439 24.179 401.909 23.755C401.485 23.225 401.008 22.96 400.478 22.96C400.054 22.96 399.63 23.066 399.206 23.278C398.888 23.49 398.623 23.808 398.411 24.232C398.305 24.55 398.252 24.868 398.252 25.186C398.252 26.14 398.676 26.829 399.524 27.253V38.542H390.62V20.257H373.925L373.607 20.575L370.586 25.027H363.113V20.257H358.502L355.163 23.596H347.69C347.372 22.748 346.736 22.324 345.782 22.324C345.146 22.324 344.616 22.536 344.192 22.96C343.768 23.384 343.556 23.914 343.556 24.55C343.556 25.186 343.768 25.716 344.192 26.14C344.616 26.564 345.146 26.776 345.782 26.776C346.736 26.776 347.372 26.352 347.69 25.504H355.163V38.542H335.606V15.646ZM382.67 102.301V112H373.766V92.284C374.72 91.86 375.197 91.171 375.197 90.217C375.197 89.687 374.932 89.21 374.402 88.786C373.978 88.256 373.501 87.991 372.971 87.991C372.547 87.991 372.123 88.097 371.699 88.309C371.381 88.521 371.116 88.786 370.904 89.104C370.798 89.422 370.745 89.793 370.745 90.217C370.745 91.171 371.169 91.86 372.017 92.284V112H363.113V34.09H375.515L375.992 33.295L378.695 29.32H382.67V102.301ZM475.902 7.696L472.086 6.265V13.102L475.902 14.374V7.696ZM470.178 7.696L466.362 6.265V13.102L470.178 14.374V7.696ZM437.742 7.855V20.257H419.298V11.353H429.633C430.057 12.201 430.746 12.625 431.7 12.625C432.336 12.625 432.866 12.413 433.29 11.989C433.714 11.565 433.926 11.088 433.926 10.558C433.926 9.92199 433.714 9.39199 433.29 8.968C432.866 8.43799 432.336 8.17299 431.7 8.17299C430.746 8.17299 430.057 8.64999 429.633 9.60399H419.298V0.699992H442.512V4.675L438.537 7.37799L437.742 7.855ZM468.111 92.443H493.869V101.347H483.534C483.11 100.499 482.421 100.075 481.467 100.075C480.831 100.075 480.301 100.287 479.877 100.711C479.453 101.135 479.241 101.665 479.241 102.301C479.241 102.831 479.453 103.361 479.877 103.891C480.301 104.315 480.831 104.527 481.467 104.527C482.421 104.527 483.11 104.05 483.534 103.096H493.869V112H463.341V102.937L467.793 99.916L468.111 99.757V92.443ZM451.575 0.699992H493.869V20.257H466.362V98.803L461.91 101.665L461.592 101.983V112H457.458V92.602C458.412 92.178 458.889 91.489 458.889 90.535C458.889 90.005 458.624 89.528 458.094 89.104C457.67 88.574 457.193 88.309 456.663 88.309C456.239 88.309 455.815 88.415 455.391 88.627C455.073 88.839 454.808 89.104 454.596 89.422C454.49 89.74 454.437 90.111 454.437 90.535C454.437 91.489 454.861 92.178 455.709 92.602V112H446.805V12.784L451.257 9.763L451.575 9.44499V0.699992ZM445.056 92.443V112H419.298V92.443H445.056ZM446.169 0.699992H449.826V8.491L445.374 11.512L445.056 11.83V20.257H441.399V9.763L445.374 7.06L446.169 6.58299V0.699992ZM569.771 35.362L565.955 34.09V40.768L569.771 42.199V35.362ZM564.047 35.362L560.231 34.09V40.768L564.047 42.199V35.362ZM573.587 24.391H577.562V112H568.658V92.443C569.612 92.125 570.089 91.489 570.089 90.535C570.089 89.899 569.824 89.369 569.294 88.945C568.87 88.521 568.393 88.309 567.863 88.309C567.439 88.309 567.015 88.415 566.591 88.627C566.273 88.839 566.008 89.104 565.796 89.422C565.69 89.74 565.637 90.111 565.637 90.535C565.637 91.489 566.061 92.125 566.909 92.443V112H558.005V29.32H570.407L570.884 28.525L573.587 24.391ZM569.771 17.236H577.562V20.734H571.679L571.202 21.529L568.499 25.663H558.005V22.006H566.432L566.75 21.688L569.771 17.236ZM522.548 90.694H517.46V52.852L522.548 50.944V90.694ZM513.644 32.818H522.548V48.877L516.188 51.262L515.552 51.58V92.443H556.256V101.347H540.038C539.72 100.499 539.084 100.075 538.13 100.075C537.812 100.075 537.494 100.128 537.176 100.234C536.964 100.34 536.752 100.499 536.54 100.711C536.328 100.923 536.169 101.188 536.063 101.506C535.957 101.718 535.904 101.983 535.904 102.301C535.904 102.831 536.116 103.361 536.54 103.891C536.964 104.315 537.494 104.527 538.13 104.527C539.084 104.527 539.72 104.05 540.038 103.096H556.256V112H502.991V24.709L516.347 11.353H534.473C534.897 12.201 535.586 12.625 536.54 12.625C537.176 12.625 537.706 12.413 538.13 11.989C538.554 11.565 538.766 11.088 538.766 10.558C538.766 9.92199 538.554 9.39199 538.13 8.968C537.706 8.43799 537.176 8.17299 536.54 8.17299C535.586 8.17299 534.897 8.64999 534.473 9.60399H518.255L524.138 3.56199L527 0.699992H577.562V15.328H568.817L568.499 15.805L565.478 20.257H535.109L524.297 31.069H511.895V41.722C510.941 42.04 510.464 42.729 510.464 43.789C510.464 44.319 510.676 44.849 511.1 45.379C511.63 45.803 512.16 46.015 512.69 46.015C513.326 46.015 513.856 45.803 514.28 45.379C514.704 44.849 514.916 44.319 514.916 43.789C514.916 42.729 514.492 42.04 513.644 41.722V32.818ZM603.06 35.362L599.244 34.09V40.768L603.06 42.199V35.362ZM597.336 35.362L593.52 34.09V40.768L597.336 42.199V35.362ZM657.279 24.391H661.254V112H652.35V92.443C653.304 92.125 653.781 91.489 653.781 90.535C653.781 89.899 653.516 89.369 652.986 88.945C652.562 88.521 652.085 88.309 651.555 88.309C651.131 88.309 650.707 88.415 650.283 88.627C649.965 88.839 649.7 89.104 649.488 89.422C649.382 89.74 649.329 90.111 649.329 90.535C649.329 91.489 649.753 92.125 650.601 92.443V112H641.697V29.32H654.099L654.576 28.525L657.279 24.391ZM653.463 17.236H661.254V20.734H655.371L654.894 21.529L652.191 25.663H641.697V22.006H650.124L650.442 21.688L653.463 17.236ZM601.152 112V72.25L606.24 70.342V112H601.152ZM617.052 22.006L606.24 32.818V68.434L599.88 70.819L599.244 70.978V112H586.683V24.709L610.692 0.699992H661.254V9.60399H646.785C646.361 8.64999 645.672 8.17299 644.718 8.17299C644.082 8.17299 643.552 8.43799 643.128 8.968C642.704 9.39199 642.492 9.92199 642.492 10.558C642.492 11.088 642.704 11.565 643.128 11.989C643.552 12.413 644.082 12.625 644.718 12.625C645.672 12.625 646.361 12.201 646.785 11.353H661.254V15.328H652.509L652.191 15.805L649.17 20.257H607.035C606.611 19.303 605.922 18.826 604.968 18.826C604.332 18.826 603.802 19.091 603.378 19.621C602.954 20.045 602.742 20.575 602.742 21.211C602.742 21.741 602.954 22.218 603.378 22.642C603.802 23.066 604.332 23.278 604.968 23.278C605.922 23.278 606.611 22.854 607.035 22.006H617.052ZM727.774 52.216V59.053L731.59 60.484V53.647L727.774 52.216ZM722.05 52.216V59.053L725.866 60.484V53.647L722.05 52.216ZM670.375 95.464V74.158H679.279V80.677C678.325 80.995 677.848 81.631 677.848 82.585C677.848 83.221 678.06 83.751 678.484 84.175C679.014 84.599 679.544 84.811 680.074 84.811C680.71 84.811 681.24 84.599 681.664 84.175C682.088 83.751 682.3 83.221 682.3 82.585C682.3 81.631 681.876 80.995 681.028 80.677V74.158H689.932V90.694H679.915L679.597 91.012L676.576 95.464H670.375ZM737.155 63.187H744.946V66.685H739.063L738.586 67.48L735.883 71.455H725.389V67.957H733.816L734.134 67.48L737.155 63.187ZM700.744 22.006L698.677 24.073L691.681 31.069H679.279V38.224C678.325 38.648 677.848 39.337 677.848 40.291C677.848 40.821 678.06 41.351 678.484 41.881C679.014 42.305 679.544 42.517 680.074 42.517C680.498 42.517 680.869 42.411 681.187 42.199C681.611 41.987 681.876 41.722 681.982 41.404C682.194 40.98 682.3 40.609 682.3 40.291C682.3 39.337 681.876 38.648 681.028 38.224V32.818H689.932V46.651H744.946V61.279H736.201L735.883 61.756L732.862 66.049H670.375V57.304H689.773C690.091 58.152 690.78 58.576 691.84 58.576C692.37 58.576 692.847 58.364 693.271 57.94C693.801 57.516 694.066 56.986 694.066 56.35C694.066 55.926 693.907 55.555 693.589 55.237C693.377 54.919 693.112 54.654 692.794 54.442C692.476 54.23 692.158 54.124 691.84 54.124C690.78 54.124 690.091 54.548 689.773 55.396H670.375V24.709L694.384 0.699992H744.946V9.60399H730.318C729.894 8.64999 729.205 8.17299 728.251 8.17299C727.721 8.17299 727.191 8.43799 726.661 8.968C726.237 9.39199 726.025 9.86899 726.025 10.399C726.025 10.823 726.131 11.247 726.343 11.671C726.555 11.989 726.82 12.254 727.138 12.466C727.456 12.572 727.827 12.625 728.251 12.625C729.205 12.625 729.894 12.201 730.318 11.353H744.946V20.257H702.493L700.744 22.006ZM730.318 90.694H725.389V82.267H730.318V90.694ZM689.932 92.443H732.226V80.518H725.389V75.112H737.791L738.268 74.317L740.971 70.342H744.946V101.347H729.682C729.364 100.499 728.728 100.075 727.774 100.075C727.138 100.075 726.608 100.287 726.184 100.711C725.76 101.135 725.548 101.665 725.548 102.301C725.548 102.831 725.76 103.361 726.184 103.891C726.608 104.315 727.138 104.527 727.774 104.527C728.728 104.527 729.364 104.05 729.682 103.096H744.946V112H670.375V97.372H677.53L677.848 96.895L680.869 92.443H689.932ZM744.946 22.006V38.542H725.389V22.006H734.293V28.366C733.445 28.79 733.021 29.479 733.021 30.433C733.021 30.963 733.233 31.493 733.657 32.023C734.081 32.447 734.611 32.659 735.247 32.659C735.565 32.659 735.883 32.553 736.201 32.341C736.625 32.129 736.943 31.864 737.155 31.546C737.367 31.122 737.473 30.751 737.473 30.433C737.473 29.479 737.049 28.79 736.201 28.366V22.006H744.946Z" fill="#9DB2BF"/>
</g>
</svg>
