<svg width="103" height="119" viewBox="0 0 103 119" fill="none" xmlns="http://www.w3.org/2000/svg">
<path d="M49.977 0L6.75665 25.5276L6.73994 76.6705L11.4819 73.8697L11.4914 28.3457L49.6094 5.83177L49.977 0Z" fill="#CBF9FF"/>
<path d="M101.449 28.656L58.2286 3.1284L14.9258 28.685L19.6678 31.4858L58.2104 8.73224L96.3284 31.2462L101.449 28.656Z" fill="#CBF9FF"/>
<path d="M103 88.1831V37.1278L59.7139 11.5416V17.1432L98.247 39.9136V84.9415L103 88.1831Z" fill="#CBF9FF"/>
<path d="M53.1057 119L96.326 93.4724L96.3428 42.3295L91.6008 45.1303L91.5913 90.6543L53.4733 113.168L53.1057 119Z" fill="#CBF9FF"/>
<path d="M1.53829 90.8682L44.7587 116.396L88.0615 90.8392L83.3195 88.0384L44.7769 110.792L6.65894 88.278L1.53829 90.8682Z" fill="#CBF9FF"/>
<path d="M0 30.9205L3.98529e-07 81.9758L43.2861 107.562V101.96L4.75301 79.1901V34.1621L0 30.9205Z" fill="#CBF9FF"/>
<path d="M50.8428 27.897L78.1509 44.0521V51.5133L50.8325 35.3779L40.8345 41.3411L78.1509 63.4237V70.8848L28.1819 41.3516L50.8428 27.897Z" fill="#CBF9FF"/>
<path d="M25.0255 67.9039V75.4071L51.9564 91.5L74.9466 77.7343L25.0255 48.5112V55.9941L61.7633 77.7343L51.7653 83.6975L25.0255 67.9039Z" fill="#CBF9FF"/>
</svg>
