<svg width="208" height="68" viewBox="0 0 208 68" fill="none" xmlns="http://www.w3.org/2000/svg">
<path d="M2 25.9153V64.6382H180.282L204.197 40.7229V2H25.9146L2 25.9153Z" fill="#1C2633" fill-opacity="0.7" stroke="#6C818D" stroke-width="2.0487" stroke-miterlimit="10"/>
<path d="M198.427 6.2793H29.2775L6.76562 28.7912V60.3743" stroke="#6C818D" stroke-width="2.0487" stroke-miterlimit="10"/>
<path d="M190.915 49.5684L178.768 61.716H153.38L148.717 66.3795H181.925L191.153 57.1509L190.915 49.5684Z" fill="#9DB2BF"/>
<path d="M75.2891 62.9912H155.205L159.764 67.1067H79.8479L75.2891 62.9912Z" fill="#9DB2BF"/>
<path d="M75.133 67.1068L70.9442 62.918H68.6328L72.7539 67.0384L75.133 67.1068Z" fill="#6C818D"/>
<path d="M68.633 67.1068L64.4442 62.918H62.1328L66.2539 67.0384L68.633 67.1068Z" fill="#6C818D"/>
<path d="M62.133 67.1068L57.9442 62.918H55.6328L59.7539 67.0384L62.133 67.1068Z" fill="#6C818D"/>
<path d="M55.633 67.1068L51.4442 62.918H49.1328L53.2539 67.0384L55.633 67.1068Z" fill="#6C818D"/>
<path d="M200.791 38.5371H207.545V12.7638H200.791V38.5371Z" fill="#9DB2BF"/>
<path d="M189.759 35.5986H192.545V23.8837H189.759V35.5986Z" fill="#9DB2BF"/>
<path d="M195.274 35.5986H198.061V23.8837H195.274V35.5986Z" fill="#6C818D"/>
<path d="M69.6895 32.6074V29.8018H83.4854L82.6387 32.6074H77.708V43H74.5537V32.6074H69.6895ZM88.0674 37.8203V40.1943H97.6963L96.8496 43H84.9297V29.8018H97.6963L96.8496 32.6074H88.0674V35.0146H96.252V37.8203H88.0674ZM103.64 41.2402L104.785 38.5508H108.471L105.897 33.0723L101.299 43H97.9951L104.254 30.3164L107.408 29.4697L113.899 43H110.579L109.749 41.2402H103.64ZM128.127 29.8018H131.265V43H128.127V35.4131L124.109 42.5684H122.001L117.983 35.7119V43H114.846V30.3164L117.983 29.4697L123.08 38.7998L128.127 29.8018Z" fill="#AEC8D8"/>
</svg>
