<svg width="527" height="201" viewBox="0 0 527 201" fill="none" xmlns="http://www.w3.org/2000/svg">
<path d="M2 74.9789V193.144H457.365L518.449 120.165V2H63.0824L2 74.9789Z" fill="#1C2633" fill-opacity="0.7" stroke="#6C818D" stroke-width="2.0487" stroke-miterlimit="10"/>
<path d="M503.713 15.0576H71.6738L14.1743 83.754V180.132" stroke="#6C818D" stroke-width="2.0487" stroke-miterlimit="10"/>
<path d="M484.523 147.158L453.497 184.227H388.652L376.741 198.459H461.56L485.131 170.297L484.523 147.158Z" fill="#9DB2BF"/>
<path d="M189.195 188.118H393.315L404.959 200.677H200.839L189.195 188.118Z" fill="#9DB2BF"/>
<path d="M188.795 200.677L178.096 187.895H172.192L182.718 200.468L188.795 200.677Z" fill="#6C818D"/>
<path d="M172.195 200.677L161.496 187.895H155.593L166.119 200.468L172.195 200.677Z" fill="#6C818D"/>
<path d="M155.591 200.677L144.892 187.895H138.989L149.515 200.468L155.591 200.677Z" fill="#6C818D"/>
<path d="M138.987 200.677L128.288 187.895H122.385L132.911 200.468L138.987 200.677Z" fill="#6C818D"/>
<path d="M509.75 113.495H527V34.8464H509.75V113.495Z" fill="#9DB2BF"/>
<path d="M481.572 104.528H488.688V68.7795H481.572V104.528Z" fill="#9DB2BF"/>
<path d="M495.659 104.528H502.775V68.7795H495.659V104.528Z" fill="#6C818D"/>
<path d="M197.325 120.65C192.558 120.65 188.463 119.697 185.04 117.79C181.66 115.84 179.06 113.11 177.24 109.6C175.42 106.047 174.51 101.865 174.51 97.055C174.51 93.4583 175.03 90.23 176.07 87.37C177.11 84.4667 178.605 81.9967 180.555 79.96C182.505 77.88 184.888 76.2983 187.705 75.215C190.565 74.0883 193.772 73.525 197.325 73.525C199.708 73.525 202.048 73.8283 204.345 74.435C206.642 75.0417 208.657 75.9083 210.39 77.035C211.3 77.5983 211.907 78.2917 212.21 79.115C212.513 79.895 212.578 80.675 212.405 81.455C212.232 82.1917 211.863 82.82 211.3 83.34C210.78 83.86 210.108 84.1633 209.285 84.25C208.505 84.2933 207.638 84.0117 206.685 83.405C205.342 82.5383 203.89 81.91 202.33 81.52C200.77 81.13 199.188 80.935 197.585 80.935C194.508 80.935 191.908 81.5633 189.785 82.82C187.662 84.0767 186.058 85.8967 184.975 88.28C183.892 90.6633 183.35 93.5883 183.35 97.055C183.35 100.478 183.892 103.403 184.975 105.83C186.058 108.257 187.662 110.098 189.785 111.355C191.908 112.612 194.508 113.24 197.585 113.24C199.232 113.24 200.857 113.045 202.46 112.655C204.063 112.222 205.58 111.572 207.01 110.705C207.963 110.142 208.808 109.903 209.545 109.99C210.325 110.033 210.975 110.293 211.495 110.77C212.015 111.247 212.362 111.853 212.535 112.59C212.708 113.283 212.665 114.02 212.405 114.8C212.145 115.537 211.625 116.187 210.845 116.75C209.112 118.007 207.032 118.982 204.605 119.675C202.222 120.325 199.795 120.65 197.325 120.65ZM231.615 120.65C228.321 120.65 225.461 119.978 223.035 118.635C220.608 117.292 218.723 115.385 217.38 112.915C216.036 110.402 215.365 107.455 215.365 104.075C215.365 101.518 215.733 99.2433 216.47 97.25C217.25 95.2133 218.355 93.48 219.785 92.05C221.215 90.5767 222.926 89.4717 224.92 88.735C226.913 87.955 229.145 87.565 231.615 87.565C234.908 87.565 237.768 88.2367 240.195 89.58C242.621 90.9233 244.506 92.83 245.85 95.3C247.193 97.77 247.865 100.695 247.865 104.075C247.865 106.632 247.475 108.928 246.695 110.965C245.958 113.002 244.875 114.757 243.445 116.23C242.015 117.66 240.303 118.765 238.31 119.545C236.316 120.282 234.085 120.65 231.615 120.65ZM231.615 114.475C233.218 114.475 234.626 114.085 235.84 113.305C237.053 112.525 237.985 111.377 238.635 109.86C239.328 108.3 239.675 106.372 239.675 104.075C239.675 100.608 238.938 98.03 237.465 96.34C235.991 94.6067 234.041 93.74 231.615 93.74C230.011 93.74 228.603 94.13 227.39 94.91C226.176 95.6467 225.223 96.795 224.53 98.355C223.88 99.8717 223.555 101.778 223.555 104.075C223.555 107.498 224.291 110.098 225.765 111.875C227.238 113.608 229.188 114.475 231.615 114.475ZM266.791 120.65C264.017 120.65 261.569 119.978 259.446 118.635C257.366 117.292 255.741 115.385 254.571 112.915C253.401 110.402 252.816 107.455 252.816 104.075C252.816 100.652 253.401 97.7267 254.571 95.3C255.741 92.83 257.366 90.9233 259.446 89.58C261.569 88.2367 264.017 87.565 266.791 87.565C269.434 87.565 271.731 88.215 273.681 89.515C275.674 90.815 277.017 92.5267 277.711 94.65H276.996V77.75C276.996 76.4067 277.342 75.3883 278.036 74.695C278.729 74.0017 279.726 73.655 281.026 73.655C282.326 73.655 283.322 74.0017 284.016 74.695C284.752 75.3883 285.121 76.4067 285.121 77.75V116.36C285.121 117.703 284.774 118.743 284.081 119.48C283.387 120.173 282.391 120.52 281.091 120.52C279.791 120.52 278.794 120.173 278.101 119.48C277.407 118.743 277.061 117.703 277.061 116.36V111.29L277.776 113.24C277.126 115.493 275.804 117.292 273.811 118.635C271.817 119.978 269.477 120.65 266.791 120.65ZM269.066 114.475C270.669 114.475 272.077 114.085 273.291 113.305C274.504 112.525 275.436 111.377 276.086 109.86C276.779 108.3 277.126 106.372 277.126 104.075C277.126 100.608 276.389 98.03 274.916 96.34C273.442 94.6067 271.492 93.74 269.066 93.74C267.462 93.74 266.054 94.13 264.841 94.91C263.627 95.6467 262.674 96.795 261.981 98.355C261.331 99.8717 261.006 101.778 261.006 104.075C261.006 107.498 261.742 110.098 263.216 111.875C264.689 113.608 266.639 114.475 269.066 114.475ZM297.575 120.455C296.275 120.455 295.279 120.065 294.585 119.285C293.892 118.505 293.545 117.422 293.545 116.035V92.18C293.545 90.75 293.892 89.6667 294.585 88.93C295.279 88.15 296.275 87.76 297.575 87.76C298.875 87.76 299.872 88.15 300.565 88.93C301.302 89.6667 301.67 90.75 301.67 92.18V116.035C301.67 117.422 301.324 118.505 300.63 119.285C299.937 120.065 298.919 120.455 297.575 120.455ZM297.575 81.715C296.059 81.715 294.867 81.3467 294 80.61C293.177 79.83 292.765 78.7683 292.765 77.425C292.765 76.0383 293.177 74.9767 294 74.24C294.867 73.5033 296.059 73.135 297.575 73.135C299.135 73.135 300.327 73.5033 301.15 74.24C301.974 74.9767 302.385 76.0383 302.385 77.425C302.385 78.7683 301.974 79.83 301.15 80.61C300.327 81.3467 299.135 81.715 297.575 81.715ZM314.143 120.52C312.843 120.52 311.846 120.173 311.153 119.48C310.459 118.743 310.113 117.703 310.113 116.36V91.79C310.113 90.4467 310.459 89.4283 311.153 88.735C311.846 88.0417 312.821 87.695 314.078 87.695C315.334 87.695 316.309 88.0417 317.003 88.735C317.696 89.4283 318.043 90.4467 318.043 91.79V96.21L317.328 94.585C318.281 92.2883 319.754 90.555 321.748 89.385C323.784 88.1717 326.081 87.565 328.638 87.565C331.194 87.565 333.296 88.0417 334.943 88.995C336.589 89.9483 337.824 91.4 338.648 93.35C339.471 95.2567 339.883 97.6833 339.883 100.63V116.36C339.883 117.703 339.536 118.743 338.843 119.48C338.149 120.173 337.153 120.52 335.853 120.52C334.553 120.52 333.534 120.173 332.798 119.48C332.104 118.743 331.758 117.703 331.758 116.36V101.02C331.758 98.55 331.281 96.7517 330.328 95.625C329.418 94.4983 327.988 93.935 326.038 93.935C323.654 93.935 321.748 94.6933 320.318 96.21C318.931 97.6833 318.238 99.655 318.238 102.125V116.36C318.238 119.133 316.873 120.52 314.143 120.52ZM362.955 132.35C360.615 132.35 358.34 132.133 356.13 131.7C353.963 131.267 351.992 130.595 350.215 129.685C349.392 129.252 348.828 128.732 348.525 128.125C348.265 127.518 348.178 126.89 348.265 126.24C348.395 125.633 348.655 125.092 349.045 124.615C349.478 124.138 349.998 123.813 350.605 123.64C351.212 123.467 351.84 123.553 352.49 123.9C354.397 124.853 356.195 125.46 357.885 125.72C359.618 126.023 361.092 126.175 362.305 126.175C365.208 126.175 367.375 125.46 368.805 124.03C370.278 122.643 371.015 120.563 371.015 117.79V111.94H371.6C370.95 114.15 369.585 115.927 367.505 117.27C365.468 118.57 363.15 119.22 360.55 119.22C357.69 119.22 355.198 118.57 353.075 117.27C350.952 115.927 349.305 114.063 348.135 111.68C346.965 109.297 346.38 106.523 346.38 103.36C346.38 100.977 346.705 98.8317 347.355 96.925C348.048 94.975 349.002 93.3067 350.215 91.92C351.472 90.5333 352.967 89.4717 354.7 88.735C356.477 87.955 358.427 87.565 360.55 87.565C363.237 87.565 365.577 88.2367 367.57 89.58C369.607 90.88 370.928 92.6133 371.535 94.78L370.885 96.405V91.79C370.885 90.4467 371.232 89.4283 371.925 88.735C372.662 88.0417 373.658 87.695 374.915 87.695C376.215 87.695 377.212 88.0417 377.905 88.735C378.598 89.4283 378.945 90.4467 378.945 91.79V116.815C378.945 121.972 377.58 125.85 374.85 128.45C372.12 131.05 368.155 132.35 362.955 132.35ZM362.76 113.045C364.45 113.045 365.902 112.655 367.115 111.875C368.328 111.095 369.26 109.99 369.91 108.56C370.603 107.087 370.95 105.353 370.95 103.36C370.95 100.37 370.213 98.03 368.74 96.34C367.267 94.6067 365.273 93.74 362.76 93.74C361.07 93.74 359.618 94.13 358.405 94.91C357.192 95.69 356.238 96.795 355.545 98.225C354.895 99.655 354.57 101.367 354.57 103.36C354.57 106.35 355.307 108.712 356.78 110.445C358.253 112.178 360.247 113.045 362.76 113.045Z" fill="#CACACA"/>
</svg>
