<svg width="533" height="201" viewBox="0 0 533 201" fill="none" xmlns="http://www.w3.org/2000/svg">
<path d="M2 74.3324V192.498H457.365L518.449 119.519V1.35352H63.0824L2 74.3324Z" fill="#1C2633" fill-opacity="0.7" stroke="#6C818D" stroke-width="2.0487" stroke-miterlimit="10"/>
<path d="M503.712 14.4121H71.6735L14.1741 83.1085V179.486" stroke="#6C818D" stroke-width="2.0487" stroke-miterlimit="10"/>
<path d="M484.523 146.512L453.497 183.581H388.652L376.741 197.812H461.56L485.131 169.65L484.523 146.512Z" fill="#9DB2BF"/>
<path d="M189.195 187.471H393.315L404.959 200.029H200.839L189.195 187.471Z" fill="#9DB2BF"/>
<path d="M188.795 200.031L178.096 187.248H172.192L182.718 199.822L188.795 200.031Z" fill="#6C818D"/>
<path d="M172.195 200.031L161.496 187.248H155.593L166.119 199.822L172.195 200.031Z" fill="#6C818D"/>
<path d="M155.591 200.031L144.892 187.248H138.989L149.515 199.822L155.591 200.031Z" fill="#6C818D"/>
<path d="M138.987 200.031L128.288 187.248H122.385L132.911 199.822L138.987 200.031Z" fill="#6C818D"/>
<path d="M509.75 112.85H527V34.2009H509.75V112.85Z" fill="#9DB2BF"/>
<path d="M481.572 103.882H488.688V68.133H481.572V103.882Z" fill="#9DB2BF"/>
<path d="M495.659 103.882H502.775V68.133H495.659V103.882Z" fill="#6C818D"/>
<path d="M58.325 120.004C53.5583 120.004 49.4633 119.05 46.04 117.144C42.66 115.194 40.06 112.464 38.24 108.954C36.42 105.4 35.51 101.219 35.51 96.4085C35.51 92.8118 36.03 89.5835 37.07 86.7235C38.11 83.8202 39.605 81.3502 41.555 79.3135C43.505 77.2335 45.8883 75.6518 48.705 74.5685C51.565 73.4418 54.7717 72.8785 58.325 72.8785C60.7083 72.8785 63.0483 73.1818 65.345 73.7885C67.6417 74.3952 69.6567 75.2618 71.39 76.3885C72.3 76.9518 72.9067 77.6452 73.21 78.4685C73.5133 79.2485 73.5783 80.0285 73.405 80.8085C73.2317 81.5452 72.8633 82.1735 72.3 82.6935C71.78 83.2135 71.1083 83.5168 70.285 83.6035C69.505 83.6468 68.6383 83.3652 67.685 82.7585C66.3417 81.8918 64.89 81.2635 63.33 80.8735C61.77 80.4835 60.1883 80.2885 58.585 80.2885C55.5083 80.2885 52.9083 80.9168 50.785 82.1735C48.6617 83.4302 47.0583 85.2502 45.975 87.6335C44.8917 90.0168 44.35 92.9418 44.35 96.4085C44.35 99.8318 44.8917 102.757 45.975 105.184C47.0583 107.61 48.6617 109.452 50.785 110.709C52.9083 111.965 55.5083 112.594 58.585 112.594C60.2317 112.594 61.8567 112.399 63.46 112.009C65.0633 111.575 66.58 110.925 68.01 110.059C68.9633 109.495 69.8083 109.257 70.545 109.344C71.325 109.387 71.975 109.647 72.495 110.124C73.015 110.6 73.3617 111.207 73.535 111.944C73.7083 112.637 73.665 113.374 73.405 114.154C73.145 114.89 72.625 115.54 71.845 116.104C70.1117 117.36 68.0317 118.335 65.605 119.029C63.2217 119.679 60.795 120.004 58.325 120.004ZM86.8778 131.574C85.9244 131.574 85.1444 131.314 84.5378 130.794C83.9311 130.317 83.5628 129.667 83.4328 128.844C83.3461 128.02 83.4978 127.154 83.8878 126.244L88.3078 116.429V119.809L76.4778 92.4435C76.0878 91.4902 75.9578 90.6018 76.0878 89.7785C76.2178 88.9552 76.6078 88.3052 77.2578 87.8285C77.9511 87.3085 78.8828 87.0485 80.0528 87.0485C81.0494 87.0485 81.8511 87.2868 82.4578 87.7635C83.0644 88.1968 83.6061 89.0418 84.0828 90.2985L92.8578 112.204H90.9078L99.8778 90.2335C100.354 89.0202 100.918 88.1968 101.568 87.7635C102.218 87.2868 103.084 87.0485 104.168 87.0485C105.121 87.0485 105.879 87.3085 106.443 87.8285C107.006 88.3052 107.353 88.9552 107.483 89.7785C107.613 90.5585 107.461 91.4252 107.028 92.3785L91.2328 128.454C90.6694 129.667 90.0628 130.49 89.4128 130.924C88.7628 131.357 87.9178 131.574 86.8778 131.574ZM131.362 120.004C128.675 120.004 126.313 119.332 124.277 117.989C122.283 116.645 120.962 114.847 120.312 112.594L121.027 110.969V115.714C121.027 117.057 120.68 118.097 119.987 118.834C119.293 119.527 118.318 119.874 117.062 119.874C115.762 119.874 114.765 119.527 114.072 118.834C113.378 118.097 113.032 117.057 113.032 115.714V77.1035C113.032 75.7602 113.378 74.7418 114.072 74.0485C114.765 73.3552 115.762 73.0085 117.062 73.0085C118.362 73.0085 119.358 73.3552 120.052 74.0485C120.788 74.7418 121.157 75.7602 121.157 77.1035V94.0035H120.377C121.07 91.8802 122.413 90.1685 124.407 88.8685C126.4 87.5685 128.718 86.9185 131.362 86.9185C134.178 86.9185 136.627 87.5902 138.707 88.9335C140.787 90.2768 142.412 92.1835 143.582 94.6535C144.752 97.0802 145.337 100.005 145.337 103.429C145.337 106.809 144.752 109.755 143.582 112.269C142.412 114.739 140.765 116.645 138.642 117.989C136.562 119.332 134.135 120.004 131.362 120.004ZM129.087 113.829C130.69 113.829 132.098 113.439 133.312 112.659C134.525 111.879 135.457 110.73 136.107 109.214C136.8 107.654 137.147 105.725 137.147 103.429C137.147 99.9618 136.41 97.3835 134.937 95.6935C133.463 93.9602 131.513 93.0935 129.087 93.0935C127.483 93.0935 126.075 93.4835 124.862 94.2635C123.648 95.0002 122.695 96.1485 122.002 97.7085C121.352 99.2252 121.027 101.132 121.027 103.429C121.027 106.852 121.763 109.452 123.237 111.229C124.71 112.962 126.66 113.829 129.087 113.829ZM167.671 120.004C164.075 120.004 160.976 119.332 158.376 117.989C155.776 116.645 153.761 114.739 152.331 112.269C150.945 109.799 150.251 106.874 150.251 103.494C150.251 100.2 150.923 97.3185 152.266 94.8485C153.653 92.3785 155.538 90.4502 157.921 89.0635C160.348 87.6335 163.1 86.9185 166.176 86.9185C168.43 86.9185 170.445 87.2868 172.221 88.0235C174.041 88.7602 175.58 89.8218 176.836 91.2085C178.136 92.5952 179.111 94.2852 179.761 96.2785C180.455 98.2285 180.801 100.439 180.801 102.909C180.801 103.689 180.52 104.295 179.956 104.729C179.436 105.119 178.678 105.314 177.681 105.314H156.816V100.634H175.081L174.041 101.609C174.041 99.6152 173.738 97.9468 173.131 96.6035C172.568 95.2602 171.723 94.2418 170.596 93.5485C169.513 92.8118 168.148 92.4435 166.501 92.4435C164.681 92.4435 163.121 92.8768 161.821 93.7435C160.565 94.5668 159.59 95.7585 158.896 97.3185C158.246 98.8352 157.921 100.655 157.921 102.779V103.234C157.921 106.787 158.745 109.452 160.391 111.229C162.081 112.962 164.551 113.829 167.801 113.829C168.928 113.829 170.185 113.699 171.571 113.439C173.001 113.135 174.345 112.637 175.601 111.944C176.511 111.424 177.313 111.207 178.006 111.294C178.7 111.337 179.241 111.575 179.631 112.009C180.065 112.442 180.325 112.984 180.411 113.634C180.498 114.24 180.368 114.869 180.021 115.519C179.718 116.169 179.176 116.732 178.396 117.209C176.88 118.162 175.125 118.877 173.131 119.354C171.181 119.787 169.361 120.004 167.671 120.004ZM191.396 119.874C190.052 119.874 189.012 119.527 188.276 118.834C187.582 118.097 187.236 117.057 187.236 115.714V91.1435C187.236 89.8002 187.582 88.7818 188.276 88.0885C188.969 87.3952 189.944 87.0485 191.201 87.0485C192.457 87.0485 193.432 87.3952 194.126 88.0885C194.819 88.7818 195.166 89.8002 195.166 91.1435V95.2385H194.516C195.122 92.6385 196.314 90.6668 198.091 89.3235C199.867 87.9802 202.229 87.1785 205.176 86.9185C206.086 86.8318 206.801 87.0702 207.321 87.6335C207.884 88.1535 208.209 88.9768 208.296 90.1035C208.382 91.1868 208.122 92.0752 207.516 92.7685C206.952 93.4185 206.086 93.8085 204.916 93.9385L203.486 94.0685C200.842 94.3285 198.849 95.1518 197.506 96.5385C196.162 97.8818 195.491 99.7885 195.491 102.259V115.714C195.491 117.057 195.144 118.097 194.451 118.834C193.757 119.527 192.739 119.874 191.396 119.874ZM246.911 120.004C245.005 120.004 243.098 119.852 241.191 119.549C239.285 119.289 237.486 118.877 235.796 118.314C234.106 117.707 232.59 116.97 231.246 116.104C230.466 115.584 229.925 114.955 229.621 114.219C229.318 113.482 229.21 112.767 229.296 112.074C229.426 111.337 229.708 110.709 230.141 110.189C230.618 109.625 231.203 109.279 231.896 109.149C232.59 109.019 233.348 109.214 234.171 109.734C236.078 110.86 238.093 111.684 240.216 112.204C242.34 112.724 244.571 112.984 246.911 112.984C250.335 112.984 252.826 112.42 254.386 111.294C255.946 110.124 256.726 108.629 256.726 106.809C256.726 105.292 256.163 104.1 255.036 103.234C253.953 102.367 252.068 101.652 249.381 101.089L242.231 99.5935C238.115 98.7268 235.038 97.2752 233.001 95.2385C231.008 93.1585 230.011 90.4285 230.011 87.0485C230.011 84.9252 230.445 82.9968 231.311 81.2635C232.178 79.5302 233.391 78.0352 234.951 76.7785C236.555 75.5218 238.44 74.5685 240.606 73.9185C242.816 73.2252 245.243 72.8785 247.886 72.8785C250.486 72.8785 252.956 73.2035 255.296 73.8535C257.636 74.5035 259.738 75.4568 261.601 76.7135C262.295 77.1902 262.75 77.7752 262.966 78.4685C263.226 79.1618 263.291 79.8552 263.161 80.5485C263.031 81.1985 262.728 81.7618 262.251 82.2385C261.775 82.7152 261.168 82.9968 260.431 83.0835C259.738 83.1702 258.936 82.9535 258.026 82.4335C256.423 81.5235 254.798 80.8735 253.151 80.4835C251.505 80.0935 249.728 79.8985 247.821 79.8985C245.828 79.8985 244.116 80.1802 242.686 80.7435C241.256 81.3068 240.151 82.1085 239.371 83.1485C238.635 84.1452 238.266 85.3368 238.266 86.7235C238.266 88.2835 238.786 89.5402 239.826 90.4935C240.866 91.4035 242.643 92.1185 245.156 92.6385L252.241 94.1335C256.531 95.0435 259.716 96.4735 261.796 98.4235C263.92 100.374 264.981 102.974 264.981 106.224C264.981 108.304 264.548 110.189 263.681 111.879C262.858 113.569 261.645 115.02 260.041 116.234C258.481 117.447 256.596 118.379 254.386 119.029C252.176 119.679 249.685 120.004 246.911 120.004ZM287.007 120.004C283.411 120.004 280.312 119.332 277.712 117.989C275.112 116.645 273.097 114.739 271.667 112.269C270.281 109.799 269.587 106.874 269.587 103.494C269.587 100.2 270.259 97.3185 271.602 94.8485C272.989 92.3785 274.874 90.4502 277.257 89.0635C279.684 87.6335 282.436 86.9185 285.512 86.9185C287.766 86.9185 289.781 87.2868 291.557 88.0235C293.377 88.7602 294.916 89.8218 296.172 91.2085C297.472 92.5952 298.447 94.2852 299.097 96.2785C299.791 98.2285 300.137 100.439 300.137 102.909C300.137 103.689 299.856 104.295 299.292 104.729C298.772 105.119 298.014 105.314 297.017 105.314H276.152V100.634H294.417L293.377 101.609C293.377 99.6152 293.074 97.9468 292.467 96.6035C291.904 95.2602 291.059 94.2418 289.932 93.5485C288.849 92.8118 287.484 92.4435 285.837 92.4435C284.017 92.4435 282.457 92.8768 281.157 93.7435C279.901 94.5668 278.926 95.7585 278.232 97.3185C277.582 98.8352 277.257 100.655 277.257 102.779V103.234C277.257 106.787 278.081 109.452 279.727 111.229C281.417 112.962 283.887 113.829 287.137 113.829C288.264 113.829 289.521 113.699 290.907 113.439C292.337 113.135 293.681 112.637 294.937 111.944C295.847 111.424 296.649 111.207 297.342 111.294C298.036 111.337 298.577 111.575 298.967 112.009C299.401 112.442 299.661 112.984 299.747 113.634C299.834 114.24 299.704 114.869 299.357 115.519C299.054 116.169 298.512 116.732 297.732 117.209C296.216 118.162 294.461 118.877 292.467 119.354C290.517 119.787 288.697 120.004 287.007 120.004ZM321.262 120.004C317.925 120.004 315.022 119.332 312.552 117.989C310.082 116.602 308.175 114.652 306.832 112.139C305.488 109.625 304.817 106.679 304.817 103.299C304.817 100.742 305.185 98.4668 305.922 96.4735C306.702 94.4368 307.807 92.7252 309.237 91.3385C310.667 89.9085 312.4 88.8252 314.437 88.0885C316.473 87.3085 318.748 86.9185 321.262 86.9185C322.692 86.9185 324.23 87.1135 325.877 87.5035C327.567 87.8935 329.148 88.5435 330.622 89.4535C331.315 89.8868 331.77 90.4068 331.987 91.0135C332.203 91.6202 332.247 92.2485 332.117 92.8985C331.987 93.5052 331.705 94.0468 331.272 94.5235C330.882 94.9568 330.383 95.2385 329.777 95.3685C329.17 95.4552 328.498 95.3035 327.762 94.9135C326.808 94.3502 325.833 93.9385 324.837 93.6785C323.84 93.3752 322.887 93.2235 321.977 93.2235C320.547 93.2235 319.29 93.4618 318.207 93.9385C317.123 94.3718 316.192 95.0218 315.412 95.8885C314.675 96.7118 314.112 97.7518 313.722 99.0085C313.332 100.265 313.137 101.717 313.137 103.364C313.137 106.57 313.895 109.105 315.412 110.969C316.972 112.789 319.16 113.699 321.977 113.699C322.887 113.699 323.818 113.569 324.772 113.309C325.768 113.049 326.765 112.637 327.762 112.074C328.498 111.684 329.148 111.554 329.712 111.684C330.318 111.814 330.817 112.117 331.207 112.594C331.597 113.027 331.835 113.569 331.922 114.219C332.008 114.825 331.922 115.432 331.662 116.039C331.445 116.645 331.012 117.144 330.362 117.534C328.932 118.4 327.415 119.029 325.812 119.419C324.208 119.809 322.692 120.004 321.262 120.004ZM348.736 120.004C346.093 120.004 343.904 119.527 342.171 118.574C340.438 117.577 339.138 116.104 338.271 114.154C337.448 112.204 337.036 109.777 337.036 106.874V91.1435C337.036 89.7568 337.383 88.7385 338.076 88.0885C338.769 87.3952 339.766 87.0485 341.066 87.0485C342.366 87.0485 343.363 87.3952 344.056 88.0885C344.793 88.7385 345.161 89.7568 345.161 91.1435V107.004C345.161 109.257 345.616 110.925 346.526 112.009C347.436 113.092 348.888 113.634 350.881 113.634C353.048 113.634 354.824 112.897 356.211 111.424C357.598 109.907 358.291 107.914 358.291 105.444V91.1435C358.291 89.7568 358.638 88.7385 359.331 88.0885C360.024 87.3952 361.021 87.0485 362.321 87.0485C363.621 87.0485 364.618 87.3952 365.311 88.0885C366.048 88.7385 366.416 89.7568 366.416 91.1435V115.714C366.416 118.487 365.094 119.874 362.451 119.874C361.194 119.874 360.219 119.527 359.526 118.834C358.833 118.097 358.486 117.057 358.486 115.714V110.774L359.396 112.724C358.486 115.064 357.099 116.862 355.236 118.119C353.416 119.375 351.249 120.004 348.736 120.004ZM379.032 119.874C377.689 119.874 376.649 119.527 375.912 118.834C375.219 118.097 374.872 117.057 374.872 115.714V91.1435C374.872 89.8002 375.219 88.7818 375.912 88.0885C376.606 87.3952 377.581 87.0485 378.837 87.0485C380.094 87.0485 381.069 87.3952 381.762 88.0885C382.456 88.7818 382.802 89.8002 382.802 91.1435V95.2385H382.152C382.759 92.6385 383.951 90.6668 385.727 89.3235C387.504 87.9802 389.866 87.1785 392.812 86.9185C393.722 86.8318 394.437 87.0702 394.957 87.6335C395.521 88.1535 395.846 88.9768 395.932 90.1035C396.019 91.1868 395.759 92.0752 395.152 92.7685C394.589 93.4185 393.722 93.8085 392.552 93.9385L391.122 94.0685C388.479 94.3285 386.486 95.1518 385.142 96.5385C383.799 97.8818 383.127 99.7885 383.127 102.259V115.714C383.127 117.057 382.781 118.097 382.087 118.834C381.394 119.527 380.376 119.874 379.032 119.874ZM404.357 119.809C403.057 119.809 402.06 119.419 401.367 118.639C400.673 117.859 400.327 116.775 400.327 115.389V91.5335C400.327 90.1035 400.673 89.0202 401.367 88.2835C402.06 87.5035 403.057 87.1135 404.357 87.1135C405.657 87.1135 406.653 87.5035 407.347 88.2835C408.083 89.0202 408.452 90.1035 408.452 91.5335V115.389C408.452 116.775 408.105 117.859 407.412 118.639C406.718 119.419 405.7 119.809 404.357 119.809ZM404.357 81.0685C402.84 81.0685 401.648 80.7002 400.782 79.9635C399.958 79.1835 399.547 78.1218 399.547 76.7785C399.547 75.3918 399.958 74.3302 400.782 73.5935C401.648 72.8568 402.84 72.4885 404.357 72.4885C405.917 72.4885 407.108 72.8568 407.932 73.5935C408.755 74.3302 409.167 75.3918 409.167 76.7785C409.167 78.1218 408.755 79.1835 407.932 79.9635C407.108 80.7002 405.917 81.0685 404.357 81.0685ZM431.454 120.004C428.637 120.004 426.276 119.527 424.369 118.574C422.506 117.62 421.119 116.234 420.209 114.414C419.299 112.55 418.844 110.254 418.844 107.524V93.6785H415.464C414.424 93.6785 413.622 93.4185 413.059 92.8985C412.496 92.3352 412.214 91.5768 412.214 90.6235C412.214 89.6268 412.496 88.8685 413.059 88.3485C413.622 87.8285 414.424 87.5685 415.464 87.5685H418.844V81.6535C418.844 80.3102 419.191 79.2918 419.884 78.5985C420.621 77.9052 421.639 77.5585 422.939 77.5585C424.239 77.5585 425.236 77.9052 425.929 78.5985C426.622 79.2918 426.969 80.3102 426.969 81.6535V87.5685H433.859C434.899 87.5685 435.701 87.8285 436.264 88.3485C436.827 88.8685 437.109 89.6268 437.109 90.6235C437.109 91.5768 436.827 92.3352 436.264 92.8985C435.701 93.4185 434.899 93.6785 433.859 93.6785H426.969V107.069C426.969 109.149 427.424 110.709 428.334 111.749C429.244 112.789 430.717 113.309 432.754 113.309C433.491 113.309 434.141 113.244 434.704 113.114C435.267 112.984 435.766 112.897 436.199 112.854C436.719 112.81 437.152 112.984 437.499 113.374C437.846 113.72 438.019 114.457 438.019 115.584C438.019 116.45 437.867 117.23 437.564 117.924C437.304 118.574 436.806 119.029 436.069 119.289C435.506 119.462 434.769 119.614 433.859 119.744C432.949 119.917 432.147 120.004 431.454 120.004ZM450.408 131.574C449.455 131.574 448.675 131.314 448.068 130.794C447.461 130.317 447.093 129.667 446.963 128.844C446.876 128.02 447.028 127.154 447.418 126.244L451.838 116.429V119.809L440.008 92.4435C439.618 91.4902 439.488 90.6018 439.618 89.7785C439.748 88.9552 440.138 88.3052 440.788 87.8285C441.481 87.3085 442.413 87.0485 443.583 87.0485C444.58 87.0485 445.381 87.2868 445.988 87.7635C446.595 88.1968 447.136 89.0418 447.613 90.2985L456.388 112.204H454.438L463.408 90.2335C463.885 89.0202 464.448 88.1968 465.098 87.7635C465.748 87.2868 466.615 87.0485 467.698 87.0485C468.651 87.0485 469.41 87.3085 469.973 87.8285C470.536 88.3052 470.883 88.9552 471.013 89.7785C471.143 90.5585 470.991 91.4252 470.558 92.3785L454.763 128.454C454.2 129.667 453.593 130.49 452.943 130.924C452.293 131.357 451.448 131.574 450.408 131.574Z" fill="#CACACA"/>
</svg>
