<svg width="527" height="201" viewBox="0 0 527 201" fill="none" xmlns="http://www.w3.org/2000/svg">
<path d="M1.87427 74.6859V192.851H457.24L518.324 119.872V1.70703H62.9566L1.87427 74.6859Z" fill="#1C2633" fill-opacity="0.7" stroke="#6C818D" stroke-width="2.0487" stroke-miterlimit="10"/>
<path d="M503.587 14.7656H71.5481L14.0486 83.462V179.84" stroke="#6C818D" stroke-width="2.0487" stroke-miterlimit="10"/>
<path d="M484.397 146.865L453.371 183.934H388.527L376.615 198.166H461.434L485.006 170.004L484.397 146.865Z" fill="#9DB2BF"/>
<path d="M189.07 187.824H393.189L404.834 200.383H200.714L189.07 187.824Z" fill="#9DB2BF"/>
<path d="M188.669 200.384L177.97 187.602H172.067L182.593 200.175L188.669 200.384Z" fill="#6C818D"/>
<path d="M172.07 200.384L161.371 187.602H155.467L165.993 200.175L172.07 200.384Z" fill="#6C818D"/>
<path d="M155.466 200.384L144.767 187.602H138.863L149.389 200.175L155.466 200.384Z" fill="#6C818D"/>
<path d="M138.862 200.384L128.163 187.602H122.259L132.785 200.175L138.862 200.384Z" fill="#6C818D"/>
<path d="M509.624 113.203H526.874V34.5544H509.624V113.203Z" fill="#9DB2BF"/>
<path d="M481.446 104.235H488.562V68.4865H481.446V104.235Z" fill="#9DB2BF"/>
<path d="M495.533 104.235H502.649V68.4865H495.533V104.235Z" fill="#6C818D"/>
<path d="M231.299 119.707C229.869 119.707 228.764 119.339 227.984 118.602C227.248 117.822 226.879 116.717 226.879 115.287V78.302C226.879 76.872 227.248 75.7887 227.984 75.052C228.764 74.272 229.869 73.882 231.299 73.882H254.504C255.588 73.882 256.411 74.1637 256.974 74.727C257.581 75.2904 257.884 76.092 257.884 77.132C257.884 78.2154 257.581 79.0604 256.974 79.667C256.411 80.2304 255.588 80.512 254.504 80.512H234.874V93.122H253.074C254.201 93.122 255.046 93.4037 255.609 93.967C256.173 94.5304 256.454 95.3537 256.454 96.437C256.454 97.5204 256.173 98.3437 255.609 98.907C255.046 99.4704 254.201 99.752 253.074 99.752H234.874V113.077H254.504C255.588 113.077 256.411 113.359 256.974 113.922C257.581 114.485 257.884 115.309 257.884 116.392C257.884 117.475 257.581 118.299 256.974 118.862C256.411 119.425 255.588 119.707 254.504 119.707H231.299ZM283.673 120.227C282.503 120.227 281.528 119.967 280.748 119.447C280.011 118.884 279.405 118.06 278.928 116.977L261.963 78.887C261.486 77.8037 261.356 76.8504 261.573 76.027C261.79 75.2037 262.245 74.5537 262.938 74.077C263.631 73.6004 264.455 73.362 265.408 73.362C266.665 73.362 267.596 73.6437 268.203 74.207C268.853 74.727 269.395 75.5287 269.828 76.612L285.233 112.297H282.438L297.778 76.547C298.255 75.507 298.818 74.727 299.468 74.207C300.118 73.6437 301.028 73.362 302.198 73.362C303.151 73.362 303.931 73.6004 304.538 74.077C305.188 74.5537 305.6 75.2037 305.773 76.027C305.946 76.8504 305.795 77.8037 305.318 78.887L288.353 116.977C287.876 118.06 287.27 118.884 286.533 119.447C285.84 119.967 284.886 120.227 283.673 120.227Z" fill="#CACACA"/>
</svg>
