<svg width="541" height="209" viewBox="0 0 541 209" fill="none" xmlns="http://www.w3.org/2000/svg">
<g filter="url(#filter0_d_261_1314)">
<path d="M6 74.6556V192.821H461.365L522.449 119.842V1.67676H67.0824L6 74.6556Z" fill="#1C2633" fill-opacity="0.7" stroke="#6C818D" stroke-width="2.0487" stroke-miterlimit="10"/>
<path d="M507.712 14.7354H75.6735L18.1741 83.4317V179.809" stroke="#6C818D" stroke-width="2.0487" stroke-miterlimit="10"/>
<path d="M488.523 146.835L457.497 183.904H392.652L380.741 198.135H465.56L489.131 169.974L488.523 146.835Z" fill="#9DB2BF"/>
<path d="M193.195 187.794H397.315L408.959 200.353H204.839L193.195 187.794Z" fill="#9DB2BF"/>
<path d="M192.795 200.354L182.096 187.571H176.192L186.718 200.145L192.795 200.354Z" fill="#6C818D"/>
<path d="M176.195 200.354L165.496 187.571H159.592L170.118 200.145L176.195 200.354Z" fill="#6C818D"/>
<path d="M159.591 200.354L148.892 187.571H142.989L153.515 200.145L159.591 200.354Z" fill="#6C818D"/>
<path d="M142.987 200.354L132.288 187.571H126.385L136.911 200.145L142.987 200.354Z" fill="#6C818D"/>
<path d="M513.75 113.173H531V34.5241H513.75V113.173Z" fill="#9DB2BF"/>
<path d="M485.572 104.205H492.688V68.4562H485.572V104.205Z" fill="#9DB2BF"/>
<path d="M499.659 104.205H506.775V68.4562H499.659V104.205Z" fill="#6C818D"/>
<path d="M86.545 120.327C82.125 120.327 78.2467 119.352 74.91 117.402C71.6167 115.452 69.06 112.722 67.24 109.212C65.42 105.658 64.51 101.498 64.51 96.7318C64.51 93.1351 65.03 89.9068 66.07 87.0468C67.11 84.1434 68.5833 81.6734 70.49 79.6368C72.44 77.5568 74.7583 75.9751 77.445 74.8918C80.175 73.7651 83.2083 73.2018 86.545 73.2018C91.0083 73.2018 94.8867 74.1768 98.18 76.1268C101.473 78.0334 104.03 80.7418 105.85 84.2518C107.67 87.7618 108.58 91.9001 108.58 96.6668C108.58 100.263 108.06 103.513 107.02 106.417C105.98 109.32 104.485 111.812 102.535 113.892C100.628 115.972 98.31 117.575 95.58 118.702C92.8933 119.785 89.8817 120.327 86.545 120.327ZM86.545 113.177C89.3617 113.177 91.745 112.527 93.695 111.227C95.6883 109.927 97.205 108.042 98.245 105.572C99.3283 103.102 99.87 100.155 99.87 96.7318C99.87 91.5318 98.7 87.5018 96.36 84.6418C94.0633 81.7818 90.7917 80.3518 86.545 80.3518C83.7717 80.3518 81.3883 81.0018 79.395 82.3018C77.4017 83.5584 75.8633 85.4218 74.78 87.8918C73.74 90.3184 73.22 93.2651 73.22 96.7318C73.22 101.888 74.39 105.918 76.73 108.822C79.07 111.725 82.3417 113.177 86.545 113.177ZM120.29 131.897C118.99 131.897 117.993 131.55 117.3 130.857C116.607 130.163 116.26 129.145 116.26 127.802V91.4668C116.26 90.1234 116.607 89.1051 117.3 88.4118C117.993 87.7184 118.968 87.3718 120.225 87.3718C121.525 87.3718 122.522 87.7184 123.215 88.4118C123.908 89.1051 124.255 90.1234 124.255 91.4668V96.5368L123.54 94.5868C124.19 92.3768 125.512 90.6001 127.505 89.2568C129.542 87.9134 131.903 87.2418 134.59 87.2418C137.363 87.2418 139.79 87.9134 141.87 89.2568C143.993 90.6001 145.64 92.5068 146.81 94.9768C147.98 97.4034 148.565 100.328 148.565 103.752C148.565 107.132 147.98 110.078 146.81 112.592C145.64 115.062 144.015 116.968 141.935 118.312C139.855 119.655 137.407 120.327 134.59 120.327C131.947 120.327 129.628 119.677 127.635 118.377C125.642 117.033 124.298 115.3 123.605 113.177H124.385V127.802C124.385 129.145 124.017 130.163 123.28 130.857C122.587 131.55 121.59 131.897 120.29 131.897ZM132.315 114.152C133.918 114.152 135.327 113.762 136.54 112.982C137.753 112.202 138.685 111.053 139.335 109.537C140.028 107.977 140.375 106.048 140.375 103.752C140.375 100.285 139.638 97.7068 138.165 96.0168C136.692 94.2834 134.742 93.4168 132.315 93.4168C130.712 93.4168 129.303 93.8068 128.09 94.5868C126.877 95.3234 125.923 96.4718 125.23 98.0318C124.58 99.5484 124.255 101.455 124.255 103.752C124.255 107.175 124.992 109.775 126.465 111.552C127.938 113.285 129.888 114.152 132.315 114.152ZM170.9 120.327C167.303 120.327 164.205 119.655 161.605 118.312C159.005 116.968 156.99 115.062 155.56 112.592C154.173 110.122 153.48 107.197 153.48 103.817C153.48 100.523 154.151 97.6418 155.495 95.1718C156.881 92.7018 158.766 90.7734 161.15 89.3868C163.576 87.9568 166.328 87.2418 169.405 87.2418C171.658 87.2418 173.673 87.6101 175.45 88.3468C177.27 89.0834 178.808 90.1451 180.065 91.5318C181.365 92.9184 182.34 94.6084 182.99 96.6018C183.683 98.5518 184.03 100.762 184.03 103.232C184.03 104.012 183.748 104.618 183.185 105.052C182.665 105.442 181.906 105.637 180.91 105.637H160.045V100.957H178.31L177.27 101.932C177.27 99.9384 176.966 98.2701 176.36 96.9268C175.796 95.5834 174.951 94.5651 173.825 93.8718C172.741 93.1351 171.376 92.7668 169.73 92.7668C167.91 92.7668 166.35 93.2001 165.05 94.0668C163.793 94.8901 162.818 96.0818 162.125 97.6418C161.475 99.1584 161.15 100.978 161.15 103.102V103.557C161.15 107.11 161.973 109.775 163.62 111.552C165.31 113.285 167.78 114.152 171.03 114.152C172.156 114.152 173.413 114.022 174.8 113.762C176.23 113.458 177.573 112.96 178.83 112.267C179.74 111.747 180.541 111.53 181.235 111.617C181.928 111.66 182.47 111.898 182.86 112.332C183.293 112.765 183.553 113.307 183.64 113.957C183.726 114.563 183.596 115.192 183.25 115.842C182.946 116.492 182.405 117.055 181.625 117.532C180.108 118.485 178.353 119.2 176.36 119.677C174.41 120.11 172.59 120.327 170.9 120.327ZM194.494 120.197C193.194 120.197 192.198 119.85 191.504 119.157C190.811 118.42 190.464 117.38 190.464 116.037V91.4668C190.464 90.1234 190.811 89.1051 191.504 88.4118C192.198 87.7184 193.173 87.3718 194.429 87.3718C195.686 87.3718 196.661 87.7184 197.354 88.4118C198.048 89.1051 198.394 90.1234 198.394 91.4668V95.8868L197.679 94.2618C198.633 91.9651 200.106 90.2318 202.099 89.0618C204.136 87.8484 206.433 87.2418 208.989 87.2418C211.546 87.2418 213.648 87.7184 215.294 88.6718C216.941 89.6251 218.176 91.0768 218.999 93.0268C219.823 94.9334 220.234 97.3601 220.234 100.307V116.037C220.234 117.38 219.888 118.42 219.194 119.157C218.501 119.85 217.504 120.197 216.204 120.197C214.904 120.197 213.886 119.85 213.149 119.157C212.456 118.42 212.109 117.38 212.109 116.037V100.697C212.109 98.2268 211.633 96.4284 210.679 95.3018C209.769 94.1751 208.339 93.6118 206.389 93.6118C204.006 93.6118 202.099 94.3701 200.669 95.8868C199.283 97.3601 198.589 99.3318 198.589 101.802V116.037C198.589 118.81 197.224 120.197 194.494 120.197ZM251.333 119.677C249.903 119.677 248.798 119.308 248.018 118.572C247.282 117.792 246.913 116.687 246.913 115.257V78.2718C246.913 76.8418 247.282 75.7584 248.018 75.0218C248.798 74.2418 249.903 73.8518 251.333 73.8518H274.538C275.622 73.8518 276.445 74.1334 277.008 74.6968C277.615 75.2601 277.918 76.0618 277.918 77.1018C277.918 78.1851 277.615 79.0301 277.008 79.6368C276.445 80.2001 275.622 80.4818 274.538 80.4818H254.908V93.0918H273.108C274.235 93.0918 275.08 93.3734 275.643 93.9368C276.207 94.5001 276.488 95.3234 276.488 96.4068C276.488 97.4901 276.207 98.3134 275.643 98.8768C275.08 99.4401 274.235 99.7218 273.108 99.7218H254.908V113.047H274.538C275.622 113.047 276.445 113.328 277.008 113.892C277.615 114.455 277.918 115.278 277.918 116.362C277.918 117.445 277.615 118.268 277.008 118.832C276.445 119.395 275.622 119.677 274.538 119.677H251.333ZM297.28 120.197C296.196 120.197 295.243 119.915 294.42 119.352C293.64 118.788 292.99 117.922 292.47 116.752L282.135 92.7668C281.745 91.8134 281.593 90.9251 281.68 90.1018C281.81 89.2784 282.2 88.6284 282.85 88.1518C283.543 87.6318 284.475 87.3718 285.645 87.3718C286.641 87.3718 287.443 87.6101 288.05 88.0868C288.656 88.5201 289.198 89.3651 289.675 90.6218L298.45 112.527H296.5L305.535 90.5568C306.011 89.3434 306.553 88.5201 307.16 88.0868C307.81 87.6101 308.676 87.3718 309.76 87.3718C310.713 87.3718 311.471 87.6318 312.035 88.1518C312.598 88.6284 312.945 89.2784 313.075 90.1018C313.205 90.8818 313.053 91.7484 312.62 92.7018L302.09 116.752C301.613 117.922 300.963 118.788 300.14 119.352C299.36 119.915 298.406 120.197 297.28 120.197ZM333.717 120.327C330.12 120.327 327.022 119.655 324.422 118.312C321.822 116.968 319.807 115.062 318.377 112.592C316.99 110.122 316.297 107.197 316.297 103.817C316.297 100.523 316.969 97.6418 318.312 95.1718C319.699 92.7018 321.584 90.7734 323.967 89.3868C326.394 87.9568 329.145 87.2418 332.222 87.2418C334.475 87.2418 336.49 87.6101 338.267 88.3468C340.087 89.0834 341.625 90.1451 342.882 91.5318C344.182 92.9184 345.157 94.6084 345.807 96.6018C346.5 98.5518 346.847 100.762 346.847 103.232C346.847 104.012 346.565 104.618 346.002 105.052C345.482 105.442 344.724 105.637 343.727 105.637H322.862V100.957H341.127L340.087 101.932C340.087 99.9384 339.784 98.2701 339.177 96.9268C338.614 95.5834 337.769 94.5651 336.642 93.8718C335.559 93.1351 334.194 92.7668 332.547 92.7668C330.727 92.7668 329.167 93.2001 327.867 94.0668C326.61 94.8901 325.635 96.0818 324.942 97.6418C324.292 99.1584 323.967 100.978 323.967 103.102V103.557C323.967 107.11 324.79 109.775 326.437 111.552C328.127 113.285 330.597 114.152 333.847 114.152C334.974 114.152 336.23 114.022 337.617 113.762C339.047 113.458 340.39 112.96 341.647 112.267C342.557 111.747 343.359 111.53 344.052 111.617C344.745 111.66 345.287 111.898 345.677 112.332C346.11 112.765 346.37 113.307 346.457 113.957C346.544 114.563 346.414 115.192 346.067 115.842C345.764 116.492 345.222 117.055 344.442 117.532C342.925 118.485 341.17 119.2 339.177 119.677C337.227 120.11 335.407 120.327 333.717 120.327ZM357.312 120.197C356.012 120.197 355.015 119.85 354.322 119.157C353.628 118.42 353.282 117.38 353.282 116.037V91.4668C353.282 90.1234 353.628 89.1051 354.322 88.4118C355.015 87.7184 355.99 87.3718 357.247 87.3718C358.503 87.3718 359.478 87.7184 360.172 88.4118C360.865 89.1051 361.212 90.1234 361.212 91.4668V95.8868L360.497 94.2618C361.45 91.9651 362.923 90.2318 364.917 89.0618C366.953 87.8484 369.25 87.2418 371.807 87.2418C374.363 87.2418 376.465 87.7184 378.112 88.6718C379.758 89.6251 380.993 91.0768 381.817 93.0268C382.64 94.9334 383.052 97.3601 383.052 100.307V116.037C383.052 117.38 382.705 118.42 382.012 119.157C381.318 119.85 380.322 120.197 379.022 120.197C377.722 120.197 376.703 119.85 375.967 119.157C375.273 118.42 374.927 117.38 374.927 116.037V100.697C374.927 98.2268 374.45 96.4284 373.497 95.3018C372.587 94.1751 371.157 93.6118 369.207 93.6118C366.823 93.6118 364.917 94.3701 363.487 95.8868C362.1 97.3601 361.407 99.3318 361.407 101.802V116.037C361.407 118.81 360.042 120.197 357.312 120.197ZM405.864 120.327C403.047 120.327 400.686 119.85 398.779 118.897C396.916 117.943 395.529 116.557 394.619 114.737C393.709 112.873 393.254 110.577 393.254 107.847V94.0018H389.874C388.834 94.0018 388.032 93.7418 387.469 93.2218C386.906 92.6584 386.624 91.9001 386.624 90.9468C386.624 89.9501 386.906 89.1918 387.469 88.6718C388.032 88.1518 388.834 87.8918 389.874 87.8918H393.254V81.9768C393.254 80.6334 393.601 79.6151 394.294 78.9218C395.031 78.2284 396.049 77.8818 397.349 77.8818C398.649 77.8818 399.646 78.2284 400.339 78.9218C401.032 79.6151 401.379 80.6334 401.379 81.9768V87.8918H408.269C409.309 87.8918 410.111 88.1518 410.674 88.6718C411.237 89.1918 411.519 89.9501 411.519 90.9468C411.519 91.9001 411.237 92.6584 410.674 93.2218C410.111 93.7418 409.309 94.0018 408.269 94.0018H401.379V107.392C401.379 109.472 401.834 111.032 402.744 112.072C403.654 113.112 405.127 113.632 407.164 113.632C407.901 113.632 408.551 113.567 409.114 113.437C409.677 113.307 410.176 113.22 410.609 113.177C411.129 113.133 411.562 113.307 411.909 113.697C412.256 114.043 412.429 114.78 412.429 115.907C412.429 116.773 412.277 117.553 411.974 118.247C411.714 118.897 411.216 119.352 410.479 119.612C409.916 119.785 409.179 119.937 408.269 120.067C407.359 120.24 406.557 120.327 405.864 120.327ZM427.885 120.327C426.022 120.327 424.05 120.132 421.97 119.742C419.89 119.352 418.027 118.68 416.38 117.727C415.687 117.293 415.189 116.795 414.885 116.232C414.625 115.625 414.517 115.04 414.56 114.477C414.647 113.87 414.864 113.35 415.21 112.917C415.6 112.483 416.077 112.202 416.64 112.072C417.247 111.942 417.897 112.05 418.59 112.397C420.324 113.22 421.949 113.805 423.465 114.152C424.982 114.455 426.477 114.607 427.95 114.607C430.03 114.607 431.569 114.26 432.565 113.567C433.605 112.83 434.125 111.877 434.125 110.707C434.125 109.71 433.779 108.952 433.085 108.432C432.435 107.868 431.439 107.457 430.095 107.197L423.595 105.962C420.909 105.442 418.85 104.467 417.42 103.037C416.034 101.563 415.34 99.6784 415.34 97.3818C415.34 95.3018 415.904 93.5034 417.03 91.9868C418.2 90.4701 419.804 89.3001 421.84 88.4768C423.877 87.6534 426.217 87.2418 428.86 87.2418C430.767 87.2418 432.544 87.4584 434.19 87.8918C435.88 88.2818 437.505 88.9101 439.065 89.7768C439.715 90.1234 440.149 90.5784 440.365 91.1418C440.625 91.7051 440.69 92.2901 440.56 92.8968C440.43 93.4601 440.17 93.9801 439.78 94.4568C439.39 94.8901 438.892 95.1718 438.285 95.3018C437.722 95.3884 437.072 95.2584 436.335 94.9118C434.992 94.2184 433.692 93.7201 432.435 93.4168C431.222 93.1134 430.052 92.9618 428.925 92.9618C426.802 92.9618 425.22 93.3301 424.18 94.0668C423.184 94.8034 422.685 95.7784 422.685 96.9918C422.685 97.9018 422.989 98.6601 423.595 99.2668C424.202 99.8734 425.134 100.285 426.39 100.502L432.89 101.737C435.707 102.257 437.83 103.21 439.26 104.597C440.734 105.983 441.47 107.847 441.47 110.187C441.47 113.35 440.235 115.842 437.765 117.662C435.295 119.438 432.002 120.327 427.885 120.327Z" fill="#CACACA"/>
</g>
<defs>
<filter id="filter0_d_261_1314" x="0.975586" y="0.652344" width="534.024" height="207.701" filterUnits="userSpaceOnUse" color-interpolation-filters="sRGB">
<feFlood flood-opacity="0" result="BackgroundImageFix"/>
<feColorMatrix in="SourceAlpha" type="matrix" values="0 0 0 0 0 0 0 0 0 0 0 0 0 0 0 0 0 0 127 0" result="hardAlpha"/>
<feOffset dy="4"/>
<feGaussianBlur stdDeviation="2"/>
<feComposite in2="hardAlpha" operator="out"/>
<feColorMatrix type="matrix" values="0 0 0 0 0 0 0 0 0 0 0 0 0 0 0 0 0 0 0.25 0"/>
<feBlend mode="normal" in2="BackgroundImageFix" result="effect1_dropShadow_261_1314"/>
<feBlend mode="normal" in="SourceGraphic" in2="effect1_dropShadow_261_1314" result="shape"/>
</filter>
</defs>
</svg>
